{"glyphs":{"0":{"ha":806,"x_min":63,"x_max":760,"o":"m 760 612 q 727 337 760 454 q 638 143 694 220 q 507 27 582 65 q 348 -11 432 -11 q 232 14 285 -11 q 142 89 180 39 q 84 215 105 140 q 63 392 63 291 q 96 666 63 549 q 184 861 128 783 q 314 976 240 938 q 474 1015 389 1015 q 589 990 537 1015 q 680 914 642 965 q 739 788 718 864 q 760 612 760 713 m 590 620 q 580 741 590 692 q 550 820 569 790 q 508 864 532 851 q 457 877 484 877 q 402 866 429 877 q 349 832 374 856 q 303 770 324 808 q 266 677 281 732 q 241 549 250 622 q 233 382 233 476 q 243 261 233 310 q 272 183 254 213 q 314 140 290 153 q 365 126 338 126 q 447 151 406 126 q 519 233 487 175 q 570 385 551 290 q 590 620 590 479 z "},"1":{"ha":806,"x_min":131,"x_max":662,"o":"m 662 124 l 646 0 l 131 0 l 147 124 l 332 124 l 406 722 q 410 755 408 738 q 416 790 413 772 l 273 667 q 248 655 260 658 q 226 655 236 653 q 209 662 216 657 q 198 674 201 667 l 155 745 l 469 1005 l 606 1005 l 498 124 l 662 124 z "},"2":{"ha":806,"x_min":28,"x_max":742,"o":"m 626 154 q 667 139 653 154 q 678 99 681 124 l 665 0 l 28 0 l 35 55 q 45 90 37 72 q 72 124 54 108 l 388 431 q 468 515 434 476 q 526 592 503 554 q 560 669 549 630 q 572 752 572 708 q 542 844 572 813 q 458 875 512 875 q 407 866 431 875 q 364 841 383 857 q 329 803 344 825 q 305 756 314 781 q 270 714 290 724 q 217 710 251 704 l 132 725 q 185 851 151 797 q 266 942 219 906 q 368 996 312 978 q 485 1015 424 1015 q 592 997 544 1015 q 673 947 640 979 q 724 868 706 914 q 742 767 742 822 q 724 651 742 703 q 674 552 706 599 q 600 461 642 505 q 511 371 558 417 l 268 132 q 337 148 303 142 q 401 154 372 154 l 626 154 z "},"3":{"ha":806,"x_min":51,"x_max":740,"o":"m 135 725 q 189 851 154 797 q 269 942 223 906 q 371 996 315 978 q 489 1015 427 1015 q 595 997 549 1015 q 674 949 642 980 q 723 876 706 918 q 740 786 740 835 q 728 689 740 731 q 693 615 716 647 q 636 563 670 584 q 560 529 603 542 q 666 453 631 503 q 701 330 701 403 q 672 185 701 249 q 592 78 642 122 q 477 11 542 34 q 343 -11 413 -11 q 225 7 274 -11 q 141 58 175 24 q 85 141 106 92 q 51 253 63 190 l 128 284 q 183 291 158 296 q 215 263 207 285 q 235 215 224 240 q 263 172 247 191 q 302 140 278 152 q 358 128 325 128 q 434 145 401 128 q 490 190 467 162 q 524 254 513 218 q 536 329 536 290 q 528 379 536 356 q 498 419 519 402 q 439 445 476 435 q 344 455 402 455 l 358 573 q 459 586 418 574 q 526 621 501 598 q 564 678 552 644 q 575 754 575 711 q 545 844 575 813 q 462 875 515 875 q 411 866 435 875 q 367 841 387 857 q 332 803 347 825 q 308 756 317 781 q 273 714 292 724 q 220 710 253 704 l 135 725 z "},"4":{"ha":806,"x_min":29,"x_max":736,"o":"m 479 376 l 521 716 q 527 756 523 735 q 536 801 531 778 l 202 376 l 479 376 m 736 376 l 724 281 q 713 257 723 267 q 687 247 703 247 l 608 247 l 577 0 l 433 0 l 464 247 l 76 247 q 49 257 60 247 q 36 283 38 267 l 29 367 l 544 1004 l 701 1004 l 624 376 l 736 376 z "},"5":{"ha":806,"x_min":44,"x_max":743,"o":"m 743 1003 l 734 933 q 705 876 730 898 q 627 853 680 853 l 381 853 l 320 638 q 379 648 351 645 q 433 651 407 651 q 549 630 499 651 q 631 574 598 610 q 681 491 664 539 q 697 387 697 442 q 666 225 697 298 q 582 99 635 152 q 458 18 529 47 q 304 -11 386 -11 q 222 -2 260 -11 q 151 24 184 8 q 92 61 119 40 q 44 106 65 83 l 104 176 q 149 198 124 198 q 181 187 166 198 q 216 163 197 176 q 263 139 236 150 q 331 128 290 128 q 418 147 381 128 q 480 199 456 166 q 517 275 505 231 q 530 367 530 318 q 492 476 530 436 q 381 515 455 515 q 315 509 349 515 q 245 490 281 503 l 146 519 l 283 1003 l 743 1003 z "},"6":{"ha":741,"x_min":70,"x_max":726,"o":"m 366 124 q 441 141 406 124 q 502 186 476 157 q 543 255 528 215 q 558 342 558 295 q 548 409 558 379 q 519 459 538 438 q 473 490 500 479 q 413 501 447 501 q 340 485 374 501 q 281 439 306 468 q 241 369 256 410 q 227 282 227 329 q 236 218 227 247 q 262 168 244 189 q 305 136 279 147 q 366 124 331 124 m 399 638 q 381 617 390 627 q 364 598 372 608 q 422 618 391 611 q 486 625 452 625 q 577 608 534 625 q 654 559 621 592 q 706 479 687 527 q 726 368 726 431 q 713 267 726 315 q 676 176 700 218 q 619 100 653 134 q 544 41 585 65 q 454 2 503 16 q 352 -11 406 -11 q 233 11 285 -11 q 144 72 181 33 q 89 167 108 112 q 70 288 70 222 q 80 377 70 334 q 107 464 89 421 q 153 550 126 507 q 219 640 181 594 l 477 965 q 516 992 491 981 q 570 1003 541 1003 l 717 1003 l 399 638 z "},"7":{"ha":806,"x_min":103,"x_max":799,"o":"m 799 1003 l 791 932 q 777 880 787 900 q 760 847 767 860 l 318 56 q 281 16 303 33 q 224 0 259 0 l 103 0 l 551 775 q 581 818 566 799 q 613 853 596 837 l 177 853 q 152 865 163 853 q 144 892 142 877 l 158 1003 l 799 1003 z "},"8":{"ha":806,"x_min":59,"x_max":736,"o":"m 365 118 q 440 133 408 118 q 495 175 473 148 q 529 238 517 201 q 540 319 540 275 q 505 420 540 386 q 406 454 469 454 q 336 443 368 454 q 281 408 304 432 q 244 347 257 384 q 231 258 231 310 q 239 202 231 228 q 264 158 247 176 q 306 128 281 139 q 365 118 331 118 m 460 890 q 392 875 421 890 q 345 837 364 861 q 317 780 326 813 q 308 712 308 748 q 314 665 308 688 q 333 624 320 642 q 368 595 347 606 q 422 585 390 585 q 489 599 460 585 q 537 638 518 613 q 565 695 556 663 q 574 766 574 728 q 568 813 574 791 q 547 852 561 835 q 511 880 533 869 q 460 890 490 890 m 569 522 q 676 443 642 496 q 710 317 710 391 q 683 182 710 242 q 608 78 656 121 q 493 12 560 35 q 349 -11 427 -11 q 229 7 283 -11 q 138 59 176 26 q 80 140 100 92 q 59 245 59 187 q 107 421 59 349 q 260 525 156 493 q 175 600 203 552 q 147 713 147 649 q 172 833 147 778 q 241 928 197 888 q 345 992 285 969 q 475 1015 406 1015 q 582 996 534 1015 q 665 945 631 978 q 718 869 699 913 q 736 776 736 826 q 694 620 736 685 q 569 522 652 556 z "},"9":{"ha":806,"x_min":107,"x_max":745,"o":"m 280 670 q 313 565 280 602 q 410 527 347 527 q 484 543 451 527 q 540 586 517 558 q 575 650 563 613 q 588 729 588 687 q 551 840 588 800 q 454 879 515 879 q 383 864 415 879 q 328 821 351 849 q 293 755 306 793 q 280 670 280 716 m 444 391 q 467 418 456 405 q 488 445 478 432 q 416 413 454 424 q 335 402 377 402 q 252 418 292 402 q 181 466 212 434 q 131 543 149 497 q 112 650 112 590 q 139 792 112 725 q 215 908 167 858 q 330 986 263 957 q 473 1015 396 1015 q 588 993 538 1015 q 674 935 639 972 q 727 845 709 897 q 745 731 745 793 q 735 631 745 678 q 706 541 725 584 q 660 456 688 498 q 599 369 633 414 l 349 38 q 313 11 336 22 q 260 0 289 0 l 107 0 l 444 391 z "},"\u0000":{"ha":0,"x_min":0,"x_max":0,"o":""}," ":{"ha":304,"x_min":0,"x_max":0,"o":""},"A":{"ha":903,"x_min":-56,"x_max":853,"o":"m 592 378 l 524 722 q 514 776 519 745 q 503 844 508 808 q 476 776 489 808 q 452 721 463 745 l 300 378 l 592 378 m 853 0 l 714 0 q 677 11 690 0 q 659 41 665 23 l 617 251 l 243 251 l 150 41 q 125 13 142 25 q 86 0 108 0 l -56 0 l 430 1004 l 614 1004 l 853 0 z "},"Ą":{"ha":903,"x_min":-56,"x_max":873,"o":"m 592 378 l 524 722 q 514 776 519 745 q 503 844 508 808 q 476 776 489 808 q 452 721 463 745 l 300 378 l 592 378 m 873 -204 q 816 -230 849 -219 q 747 -240 783 -240 q 656 -214 687 -240 q 625 -148 625 -188 q 652 -69 625 -107 q 733 0 680 -31 l 714 0 q 677 11 690 0 q 659 41 665 23 l 617 251 l 243 251 l 150 41 q 125 13 142 25 q 86 0 108 0 l -56 0 l 430 1004 l 614 1004 l 853 0 l 835 0 q 807 -18 821 -8 q 782 -42 793 -29 q 765 -70 772 -55 q 758 -101 758 -85 q 768 -129 758 -119 q 795 -140 777 -140 q 814 -138 806 -140 q 826 -135 821 -137 q 834 -131 831 -133 q 840 -130 837 -130 q 855 -141 853 -130 l 873 -204 z "},"Æ":{"ha":1210,"x_min":-54,"x_max":1227,"o":"m 593 378 l 593 858 q 542 749 569 796 l 339 378 l 593 378 m 763 860 l 763 574 l 1088 574 l 1071 436 l 763 436 l 763 144 l 1122 144 l 1103 0 l 593 0 l 593 251 l 269 251 l 155 41 q 127 13 145 25 q 86 0 109 0 l -54 0 l 528 1004 l 1227 1004 l 1210 860 l 763 860 z "},"B":{"ha":853,"x_min":53,"x_max":813,"o":"m 422 140 q 505 153 469 140 q 562 191 540 167 q 595 248 584 215 q 606 322 606 282 q 571 410 606 377 q 457 442 536 442 l 288 442 l 251 140 l 422 140 m 340 865 l 303 567 l 436 567 q 580 610 529 567 q 630 744 630 654 q 594 836 630 808 q 483 865 558 865 l 340 865 m 499 1004 q 642 988 583 1004 q 739 942 701 972 q 795 869 777 912 q 813 775 813 827 q 802 693 813 732 q 766 620 790 653 q 704 560 742 587 q 615 517 667 534 q 742 447 700 495 q 783 324 783 399 q 758 195 783 255 q 683 93 732 136 q 565 25 635 49 q 407 0 495 0 l 53 0 l 177 1004 l 499 1004 z "},"C":{"ha":862,"x_min":56,"x_max":890,"o":"m 476 142 q 549 148 518 142 q 604 165 581 155 q 644 187 628 176 q 673 209 660 199 q 695 226 685 219 q 715 233 705 233 q 729 229 724 233 q 738 222 735 226 l 801 144 q 648 29 736 69 q 445 -11 560 -11 q 280 22 352 -11 q 158 113 208 55 q 82 251 108 172 q 56 426 56 331 q 75 590 56 513 q 128 733 94 667 q 211 851 163 799 q 319 940 260 903 q 447 996 378 976 q 590 1015 515 1015 q 690 1005 644 1015 q 771 977 735 995 q 837 934 808 959 q 890 877 867 908 l 828 802 q 811 788 821 794 q 788 781 802 781 q 759 794 773 781 q 724 821 745 806 q 669 849 703 836 q 581 861 635 861 q 446 832 508 861 q 338 747 384 802 q 266 615 292 692 q 240 441 240 538 q 258 315 240 371 q 307 221 276 260 q 382 162 339 183 q 476 142 425 142 z "},"Ç":{"ha":862,"x_min":56,"x_max":890,"o":"m 401 -9 q 254 34 318 -1 q 146 127 190 70 q 79 261 102 185 q 56 426 56 337 q 75 590 56 513 q 128 733 94 667 q 211 851 163 799 q 319 940 260 903 q 447 996 378 976 q 590 1015 515 1015 q 690 1005 644 1015 q 771 977 735 995 q 837 934 808 959 q 890 877 867 908 l 828 802 q 811 788 821 794 q 788 781 802 781 q 759 794 773 781 q 724 821 745 806 q 669 849 703 836 q 581 861 635 861 q 446 832 508 861 q 338 747 384 802 q 266 615 292 692 q 240 441 240 538 q 258 315 240 371 q 307 221 276 260 q 382 162 339 183 q 476 142 425 142 q 549 148 518 142 q 604 165 581 155 q 644 187 628 176 q 673 209 660 199 q 695 226 685 219 q 715 233 705 233 q 729 229 724 233 q 738 222 735 226 l 801 144 q 669 39 744 78 q 499 -9 594 0 l 485 -43 q 559 -80 538 -57 q 581 -134 581 -103 q 568 -182 581 -160 q 532 -217 555 -203 q 477 -240 509 -232 q 407 -247 445 -247 q 358 -243 381 -247 q 315 -232 336 -240 l 337 -178 q 358 -162 343 -162 q 377 -168 368 -162 q 404 -173 386 -173 q 436 -163 426 -173 q 447 -140 447 -153 q 426 -113 447 -122 q 361 -98 405 -105 l 401 -9 z "},"D":{"ha":983,"x_min":53,"x_max":945,"o":"m 945 569 q 905 340 945 444 q 793 159 865 235 q 622 42 721 84 q 407 0 524 0 l 53 0 l 177 1004 l 531 1004 q 704 972 627 1004 q 834 881 781 939 q 916 744 888 824 q 945 569 945 664 m 760 565 q 744 688 760 633 q 695 781 727 742 q 618 840 664 819 q 513 861 572 861 l 341 861 l 252 144 l 425 144 q 563 173 501 144 q 668 257 624 202 q 736 389 713 311 q 760 565 760 467 z "},"Ð":{"ha":993,"x_min":6,"x_max":955,"o":"m 436 144 q 574 173 512 144 q 679 257 635 202 q 747 389 723 311 q 770 565 770 467 q 753 688 770 633 q 705 781 737 742 q 628 840 674 819 q 524 861 582 861 l 350 861 l 313 556 l 542 556 l 529 453 l 301 453 l 263 144 l 436 144 m 541 1004 q 714 972 637 1004 q 844 881 790 939 q 926 744 898 824 q 955 569 955 664 q 915 340 955 444 q 803 159 874 235 q 633 42 731 84 q 418 0 534 0 l 64 0 l 119 453 l 6 453 l 19 556 l 132 556 l 187 1004 l 541 1004 z "},"E":{"ha":745,"x_min":53,"x_max":763,"o":"m 341 860 l 306 575 l 623 575 l 606 437 l 288 437 l 252 144 l 658 144 l 640 0 l 53 0 l 177 1004 l 763 1004 l 744 860 l 341 860 z "},"Ę":{"ha":745,"x_min":53,"x_max":763,"o":"m 341 860 l 306 575 l 623 575 l 606 437 l 288 437 l 252 144 l 658 144 l 640 0 l 604 0 q 576 -18 590 -8 q 551 -42 562 -29 q 534 -70 540 -55 q 527 -101 527 -85 q 536 -129 527 -119 q 564 -140 546 -140 q 582 -138 575 -140 q 594 -135 590 -137 q 602 -131 599 -133 q 609 -130 606 -130 q 624 -141 622 -130 l 642 -204 q 585 -230 618 -219 q 515 -240 551 -240 q 425 -214 456 -240 q 394 -148 394 -188 q 421 -69 394 -107 q 502 0 449 -31 l 53 0 l 177 1004 l 763 1004 l 744 860 l 341 860 z "},"F":{"ha":738,"x_min":53,"x_max":763,"o":"m 341 860 l 303 555 l 644 555 l 625 411 l 285 411 l 235 0 l 53 0 l 177 1004 l 763 1004 l 744 860 l 341 860 z "},"G":{"ha":941,"x_min":56,"x_max":925,"o":"m 569 501 l 881 501 l 831 97 q 667 15 755 42 q 465 -11 578 -11 q 298 22 373 -11 q 168 115 222 56 q 85 256 115 174 q 56 434 56 338 q 75 595 56 519 q 128 735 94 671 q 211 852 163 800 q 319 940 260 903 q 449 996 379 976 q 595 1015 519 1015 q 706 1005 656 1015 q 796 975 756 994 q 868 931 836 956 q 925 878 900 906 l 867 803 q 833 780 853 784 q 792 789 813 775 q 751 815 772 802 q 707 838 731 828 q 653 855 683 849 q 581 861 622 861 q 444 831 506 861 q 336 745 381 801 q 266 613 291 690 q 241 440 241 535 q 259 311 241 368 q 311 215 278 254 q 391 154 344 175 q 496 133 438 133 q 596 143 553 133 q 678 174 639 154 l 701 365 l 590 365 q 564 375 573 365 q 557 398 556 384 l 569 501 z "},"H":{"ha":997,"x_min":53,"x_max":963,"o":"m 963 1004 l 839 0 l 657 0 l 712 441 l 289 441 l 235 0 l 53 0 l 177 1004 l 358 1004 l 305 569 l 727 569 l 781 1004 l 963 1004 z "},"Ħ":{"ha":1010,"x_min":57,"x_max":1045,"o":"m 754 719 l 332 719 l 313 569 l 735 569 l 754 719 m 1033 719 l 936 719 l 847 0 l 665 0 l 720 441 l 297 441 l 243 0 l 62 0 l 151 719 l 57 719 l 69 825 l 163 825 l 185 1004 l 367 1004 l 344 825 l 767 825 l 790 1004 l 971 1004 l 949 825 l 1045 825 l 1033 719 z "},"I":{"ha":392,"x_min":53,"x_max":357,"o":"m 235 0 l 53 0 l 176 1004 l 357 1004 l 235 0 z "},"Į":{"ha":392,"x_min":-6,"x_max":357,"o":"m 205 0 q 176 -18 190 -8 q 152 -42 163 -29 q 134 -70 141 -55 q 128 -101 128 -85 q 137 -129 128 -119 q 165 -140 147 -140 q 183 -138 176 -140 q 195 -135 190 -137 q 203 -131 200 -133 q 210 -130 206 -130 q 224 -141 222 -130 l 242 -204 q 185 -230 219 -219 q 116 -240 152 -240 q 25 -214 56 -240 q -6 -148 -6 -188 q 22 -69 -6 -107 q 103 0 49 -31 l 53 0 l 176 1004 l 357 1004 l 235 0 l 205 0 z "},"J":{"ha":568,"x_min":-25,"x_max":542,"o":"m 462 348 q 424 198 451 265 q 354 85 397 131 q 251 14 310 39 q 115 -11 191 -11 q 44 -7 78 -11 q -25 8 10 -2 l -12 113 q -1 138 -10 128 q 25 147 7 147 q 62 142 41 147 q 115 138 83 138 q 175 149 147 138 q 224 184 202 160 q 260 248 245 209 q 281 344 275 288 l 362 1004 l 542 1004 l 462 348 z "},"K":{"ha":891,"x_min":53,"x_max":945,"o":"m 303 580 l 342 580 q 384 587 367 580 q 415 611 401 594 l 705 965 q 743 996 722 988 q 790 1004 763 1004 l 945 1004 l 590 584 q 559 552 574 565 q 527 531 544 539 q 563 509 547 523 q 590 470 578 494 l 846 0 l 687 0 q 660 2 671 0 q 641 9 649 5 q 627 20 633 14 q 618 35 622 27 l 411 410 q 386 436 402 428 q 341 444 371 444 l 287 444 l 233 0 l 53 0 l 176 1005 l 356 1005 l 303 580 z "},"L":{"ha":671,"x_min":53,"x_max":617,"o":"m 617 149 l 599 0 l 53 0 l 177 1004 l 357 1004 l 251 149 l 617 149 z "},"Ł":{"ha":697,"x_min":-5,"x_max":642,"o":"m 642 149 l 625 0 l 79 0 l 125 370 l -5 306 l 10 429 q 34 463 13 453 l 143 518 l 203 1004 l 383 1004 l 333 605 l 567 724 l 551 603 q 526 567 548 577 l 315 456 l 277 149 l 642 149 z "},"Ľ":{"ha":671,"x_min":53,"x_max":651,"o":"m 626 1033 q 647 1026 642 1033 q 651 1012 651 1019 q 648 996 651 1006 q 637 967 646 987 q 611 913 628 947 q 565 824 594 879 q 540 799 554 804 q 504 794 526 794 l 446 794 l 515 1033 l 626 1033 m 617 149 l 599 0 l 53 0 l 177 1004 l 357 1004 l 251 149 l 617 149 z "},"M":{"ha":1221,"x_min":53,"x_max":1187,"o":"m 1187 1004 l 1063 0 l 905 0 l 985 654 q 992 693 988 672 q 1001 736 996 714 l 656 164 q 626 135 644 144 q 588 125 608 125 l 563 125 q 526 135 542 125 q 503 164 510 144 l 297 736 q 295 694 296 715 q 292 657 294 674 l 213 0 l 53 0 l 177 1004 l 313 1004 q 332 1003 324 1004 q 347 999 340 1002 q 358 990 353 996 q 370 975 364 984 l 578 401 q 599 326 590 365 q 617 365 608 346 q 638 401 626 383 l 986 975 q 1001 990 994 984 q 1015 999 1008 996 q 1030 1003 1022 1002 q 1050 1004 1038 1004 l 1187 1004 z "},"N":{"ha":997,"x_min":53,"x_max":963,"o":"m 963 1004 l 839 0 l 746 0 q 711 7 725 0 q 686 31 698 15 l 297 717 q 294 684 296 700 q 292 655 293 669 l 213 0 l 53 0 l 177 1004 l 272 1004 q 291 1003 283 1004 q 306 999 299 1002 q 317 990 312 996 q 327 975 322 985 l 718 290 q 721 330 719 310 q 725 365 723 349 l 803 1004 l 963 1004 z "},"Ŋ":{"ha":996,"x_min":53,"x_max":961,"o":"m 844 45 l 844 44 l 841 24 q 815 -85 834 -35 q 763 -172 796 -135 q 682 -228 730 -208 q 571 -248 635 -248 q 509 -241 536 -248 q 453 -221 483 -235 l 480 -149 q 498 -123 488 -129 q 519 -117 508 -117 q 529 -119 524 -117 q 540 -122 534 -120 q 553 -124 546 -123 q 570 -126 560 -126 q 644 -94 617 -126 q 680 6 672 -62 l 683 35 l 294 709 q 292 668 294 688 q 288 629 290 647 l 212 0 l 53 0 l 176 1003 l 270 1003 q 290 1002 282 1003 q 304 998 298 1001 q 316 989 310 995 q 328 974 322 983 l 721 294 q 723 339 722 317 q 727 380 724 360 l 803 1003 l 961 1003 l 844 45 z "},"O":{"ha":1046,"x_min":56,"x_max":1009,"o":"m 1009 569 q 991 411 1009 486 q 938 271 972 335 q 856 154 904 206 q 747 65 807 102 q 617 9 687 28 q 469 -11 547 -11 q 297 23 374 -11 q 167 117 221 57 q 85 258 113 176 q 56 434 56 339 q 75 593 56 517 q 127 733 93 668 q 210 849 162 797 q 318 939 258 901 q 449 995 378 976 q 597 1015 519 1015 q 769 981 692 1015 q 899 888 845 947 q 981 746 952 828 q 1009 569 1009 665 m 824 565 q 807 689 824 633 q 758 784 790 744 q 679 845 726 824 q 574 867 633 867 q 438 836 499 867 q 333 749 376 806 q 265 614 289 693 q 241 438 241 535 q 258 315 241 370 q 306 220 274 259 q 384 159 338 181 q 490 138 431 138 q 627 169 565 138 q 733 255 689 199 q 800 389 776 310 q 824 565 824 468 z "},"Ø":{"ha":1046,"x_min":20,"x_max":1047,"o":"m 356 175 q 417 148 384 157 q 490 138 450 138 q 627 169 565 138 q 733 255 689 199 q 800 389 776 310 q 824 565 824 468 q 816 652 824 612 q 793 727 808 693 l 356 175 m 726 816 q 658 853 696 840 q 574 867 620 867 q 438 836 499 867 q 333 749 376 806 q 265 614 289 693 q 241 438 241 535 q 252 338 241 384 q 283 255 263 292 l 726 816 m 910 874 q 983 738 958 815 q 1009 569 1009 660 q 991 411 1009 486 q 938 271 972 335 q 856 154 904 206 q 747 65 807 102 q 617 9 687 28 q 469 -11 547 -11 q 353 3 407 -11 q 254 45 299 18 l 196 -28 q 145 -66 173 -55 q 91 -77 117 -77 l 20 -77 l 170 113 q 85 255 115 173 q 56 434 56 337 q 75 593 56 517 q 127 733 93 668 q 210 849 162 797 q 318 939 258 901 q 449 995 378 976 q 597 1015 519 1015 q 724 998 665 1015 q 830 947 782 981 l 875 1004 q 894 1025 885 1016 q 911 1039 902 1033 q 930 1046 919 1044 q 955 1049 940 1049 l 1047 1049 l 910 874 z "},"Œ":{"ha":1392,"x_min":58,"x_max":1409,"o":"m 460 133 q 586 165 529 133 q 683 255 642 197 q 745 393 723 313 q 767 572 767 474 q 752 694 767 639 q 711 789 738 749 q 643 850 683 828 q 551 872 603 872 q 424 840 481 872 q 327 750 367 808 q 264 610 286 692 q 242 431 242 529 q 257 310 242 365 q 298 215 271 255 q 366 154 326 176 q 460 133 407 133 m 988 860 l 953 574 l 1269 574 l 1252 436 l 935 436 l 900 144 l 1303 144 l 1285 0 l 722 0 l 736 120 q 596 24 675 58 q 424 -10 517 -10 q 271 23 339 -10 q 156 115 203 56 q 83 253 108 173 q 58 427 58 333 q 75 588 58 511 q 123 729 92 664 q 198 847 153 794 q 297 938 242 900 q 415 995 351 975 q 549 1015 479 1015 q 713 975 644 1015 q 828 866 783 935 l 845 1004 l 1409 1004 l 1392 860 l 988 860 z "},"P":{"ha":807,"x_min":53,"x_max":807,"o":"m 419 496 q 512 512 473 496 q 576 557 551 528 q 614 625 601 585 q 626 713 626 665 q 616 775 626 747 q 586 823 606 803 q 536 854 566 843 q 464 865 506 865 l 339 865 l 294 496 l 419 496 m 481 1004 q 628 984 567 1004 q 729 926 690 963 q 788 839 769 890 q 807 728 807 789 q 782 580 807 648 q 706 461 756 511 q 579 384 655 412 q 401 356 503 356 l 276 356 l 233 0 l 53 0 l 176 1004 l 481 1004 z "},"Þ":{"ha":803,"x_min":53,"x_max":786,"o":"m 399 322 q 491 338 452 322 q 555 383 530 354 q 593 452 581 412 q 605 540 605 492 q 595 601 605 574 q 565 649 585 629 q 515 679 545 668 q 443 690 485 690 l 317 690 l 272 322 l 399 322 m 461 829 q 607 809 545 829 q 708 752 668 788 q 767 665 748 715 q 786 555 786 615 q 761 406 786 474 q 685 288 735 338 q 558 210 634 238 q 381 183 482 183 l 255 183 l 233 0 l 53 0 l 176 1004 l 356 1004 l 335 829 l 461 829 z "},"Q":{"ha":1046,"x_min":56,"x_max":1009,"o":"m 241 438 q 258 315 241 370 q 306 220 274 259 q 384 159 338 181 q 490 138 431 138 q 627 169 565 138 q 733 255 689 199 q 800 389 776 310 q 824 565 824 468 q 807 689 824 633 q 758 784 790 744 q 679 845 726 824 q 574 867 633 867 q 438 836 499 867 q 333 749 376 806 q 265 614 289 693 q 241 438 241 535 m 605 6 q 469 -11 540 -11 q 297 23 374 -11 q 167 117 221 57 q 85 258 113 176 q 56 434 56 339 q 75 593 56 517 q 127 733 93 668 q 210 849 162 797 q 318 939 258 901 q 449 995 378 976 q 597 1015 519 1015 q 769 981 692 1015 q 899 888 845 947 q 981 746 952 828 q 1009 569 1009 665 q 992 417 1009 490 q 943 281 975 344 q 866 166 911 218 q 765 77 822 115 l 966 -197 l 819 -197 q 762 -189 787 -197 q 719 -156 738 -180 l 605 6 z "},"R":{"ha":833,"x_min":53,"x_max":789,"o":"m 401 524 q 494 540 455 524 q 559 583 533 556 q 597 647 585 610 q 610 726 610 684 q 569 828 610 792 q 444 865 528 865 l 339 865 l 297 524 l 401 524 m 461 1004 q 610 986 548 1004 q 712 934 672 967 q 770 856 751 901 q 789 755 789 810 q 773 646 789 697 q 726 553 756 594 q 651 480 695 511 q 550 431 606 449 q 579 408 566 422 q 601 374 592 394 l 781 0 l 619 0 q 557 36 572 0 l 410 362 q 389 388 401 380 q 351 396 377 396 l 281 396 l 233 0 l 53 0 l 176 1004 l 461 1004 z "},"S":{"ha":716,"x_min":-2,"x_max":708,"o":"m 653 824 q 634 803 644 810 q 611 797 625 797 q 583 808 597 797 q 548 832 568 819 q 500 857 528 846 q 433 868 472 868 q 367 857 396 868 q 318 826 338 846 q 288 781 298 807 q 278 724 278 754 q 294 670 278 692 q 337 633 310 649 q 397 605 363 617 q 466 578 431 592 q 535 547 501 565 q 596 502 569 528 q 639 439 622 476 q 655 349 655 401 q 629 210 655 275 q 556 95 603 144 q 441 18 509 47 q 289 -11 373 -11 q 203 -2 245 -11 q 123 25 160 8 q 53 67 85 42 q -2 121 22 91 l 62 207 q 81 223 69 217 q 105 229 93 229 q 127 222 116 229 q 150 205 138 215 q 178 183 163 195 q 212 161 193 171 q 256 144 231 151 q 312 137 281 137 q 435 181 391 137 q 480 304 480 226 q 464 361 480 339 q 422 399 448 383 q 361 425 395 414 q 293 450 328 437 q 225 480 258 463 q 165 523 191 497 q 122 589 138 550 q 106 685 106 628 q 130 809 106 749 q 199 914 154 869 q 307 987 244 960 q 451 1015 371 1015 q 530 1006 492 1015 q 600 983 567 998 q 660 946 633 967 q 708 899 688 925 l 653 824 z "},"Ş":{"ha":716,"x_min":-2,"x_max":708,"o":"m 653 824 q 634 803 644 810 q 611 797 625 797 q 583 808 597 797 q 548 832 568 819 q 500 857 528 846 q 433 868 472 868 q 367 857 396 868 q 318 826 338 846 q 288 781 298 807 q 278 724 278 754 q 294 670 278 692 q 337 633 310 649 q 397 605 363 617 q 466 578 431 592 q 535 547 501 565 q 596 502 569 528 q 639 439 622 476 q 655 349 655 401 q 633 218 655 280 q 569 109 610 157 q 468 30 528 61 q 335 -8 409 -1 l 322 -43 q 395 -80 374 -57 q 417 -134 417 -103 q 404 -182 417 -160 q 368 -217 391 -203 q 313 -240 345 -232 q 243 -247 281 -247 q 194 -243 217 -247 q 151 -232 172 -240 l 173 -178 q 194 -162 179 -162 q 213 -168 204 -162 q 240 -173 222 -173 q 272 -163 262 -173 q 283 -140 283 -153 q 262 -113 283 -122 q 197 -98 241 -105 l 237 -8 q 166 8 200 -3 q 101 36 131 19 q 44 74 70 53 q -2 121 17 96 l 62 207 q 81 223 69 217 q 105 229 93 229 q 127 222 116 229 q 150 205 138 215 q 178 183 163 195 q 212 161 193 171 q 256 144 231 151 q 312 137 281 137 q 435 181 391 137 q 480 304 480 226 q 464 361 480 339 q 422 399 448 383 q 361 425 395 414 q 293 450 328 437 q 225 480 258 463 q 165 523 191 497 q 122 589 138 550 q 106 685 106 628 q 130 809 106 749 q 199 914 154 869 q 307 987 244 960 q 451 1015 371 1015 q 530 1006 492 1015 q 600 983 567 998 q 660 946 633 967 q 708 899 688 925 l 653 824 z "},"T":{"ha":774,"x_min":74,"x_max":823,"o":"m 804 856 l 530 856 l 424 0 l 245 0 l 349 856 l 74 856 l 92 1004 l 823 1004 l 804 856 z "},"Ŧ":{"ha":794,"x_min":84,"x_max":833,"o":"m 540 856 l 508 592 l 705 592 l 692 490 l 495 490 l 435 0 l 256 0 l 315 490 l 116 490 l 128 592 l 328 592 l 360 856 l 84 856 l 102 1004 l 833 1004 l 815 856 l 540 856 z "},"U":{"ha":960,"x_min":81,"x_max":938,"o":"m 446 144 q 535 163 494 144 q 606 215 576 181 q 657 296 637 249 q 683 401 676 343 l 757 1004 l 938 1004 l 863 401 q 816 236 852 312 q 723 106 780 160 q 591 20 667 51 q 426 -11 516 -11 q 269 20 337 -11 q 158 106 201 51 q 98 236 115 160 q 92 401 81 312 l 164 1004 l 344 1004 l 271 401 q 272 296 264 344 q 302 215 280 249 q 361 163 325 181 q 446 144 397 144 z "},"Ų":{"ha":960,"x_min":81,"x_max":938,"o":"m 938 1004 l 863 401 q 825 257 853 324 q 753 137 797 190 q 649 49 708 85 q 519 -2 590 13 l 522 -2 q 494 -20 508 -10 q 469 -44 480 -31 q 452 -72 458 -57 q 445 -103 445 -87 q 455 -131 445 -121 q 482 -142 464 -142 q 500 -140 493 -142 q 513 -137 508 -139 q 520 -133 517 -135 q 527 -132 524 -132 q 542 -143 540 -132 l 560 -206 q 503 -232 536 -222 q 433 -242 469 -242 q 343 -216 374 -242 q 312 -150 312 -190 q 336 -77 312 -112 q 406 -10 360 -41 q 258 25 322 -7 q 154 112 194 58 q 97 240 113 167 q 92 401 81 314 l 164 1004 l 344 1004 l 271 401 q 272 296 264 344 q 302 215 280 249 q 361 163 325 181 q 446 144 397 144 q 535 163 494 144 q 606 215 576 181 q 657 296 637 249 q 683 401 676 343 l 757 1004 l 938 1004 z "},"V":{"ha":901,"x_min":67,"x_max":976,"o":"m 976 1004 l 480 0 l 317 0 l 67 1004 l 212 1004 q 249 993 235 1004 q 266 963 263 981 l 401 338 q 415 274 408 308 q 426 202 421 240 q 451 274 438 240 q 480 338 465 308 l 766 963 q 791 991 773 978 q 831 1004 808 1004 l 976 1004 z "},"W":{"ha":1345,"x_min":78,"x_max":1406,"o":"m 1406 1004 l 995 0 l 832 0 l 719 696 q 715 725 717 710 q 711 758 713 741 q 699 725 705 741 q 688 696 693 710 l 403 0 l 242 0 l 78 1004 l 219 1004 q 257 993 242 1004 q 274 963 271 981 l 362 347 q 366 299 364 325 q 369 246 367 274 q 387 299 378 274 q 406 347 396 325 l 656 963 q 680 991 663 978 q 719 1004 697 1004 l 762 1004 q 799 993 785 1004 q 817 963 812 981 l 917 347 q 924 301 921 326 q 929 249 927 276 q 944 300 937 276 q 960 347 952 325 l 1198 963 q 1207 979 1201 972 q 1222 992 1213 986 q 1241 1001 1231 997 q 1263 1004 1252 1004 l 1406 1004 z "},"X":{"ha":876,"x_min":-58,"x_max":919,"o":"m 578 544 l 830 0 l 668 0 q 640 10 650 0 q 624 31 630 19 l 451 433 q 438 411 444 422 l 178 31 q 152 7 166 14 q 122 0 138 0 l -58 0 l 329 537 l 103 1004 l 266 1004 q 292 999 284 1004 q 306 981 301 994 l 460 635 q 467 649 463 642 q 476 664 472 656 l 690 979 q 731 1004 707 1004 l 919 1004 l 578 544 z "},"Y":{"ha":844,"x_min":66,"x_max":919,"o":"m 508 392 l 459 0 l 279 0 l 328 390 l 66 1004 l 226 1004 q 263 993 250 1004 q 283 963 276 982 l 412 616 q 427 566 421 590 q 438 520 433 542 q 462 566 449 543 q 490 616 475 590 l 706 963 q 732 992 716 979 q 770 1004 748 1004 l 919 1004 l 508 392 z "},"Z":{"ha":779,"x_min":-26,"x_max":815,"o":"m 808 948 q 800 926 806 936 q 788 905 795 915 l 233 144 l 698 144 l 680 0 l -26 0 l -19 55 q -12 77 -17 67 q 1 98 -6 88 l 557 860 l 111 860 l 128 1004 l 815 1004 l 808 948 z "},"a":{"ha":724,"x_min":24,"x_max":679,"o":"m 500 600 q 482 601 490 601 q 465 601 473 601 q 358 575 407 601 q 273 504 308 549 q 216 400 237 459 q 196 274 196 340 q 219 165 196 199 q 284 130 243 130 q 340 150 313 130 q 392 204 367 169 q 437 285 417 238 q 473 385 458 331 l 500 600 m 453 149 q 346 33 406 76 q 217 -10 287 -10 q 141 6 176 -10 q 80 53 106 22 q 39 132 54 85 q 24 244 24 180 q 40 368 24 308 q 86 482 56 428 q 157 579 115 535 q 250 656 199 624 q 362 705 302 688 q 489 723 422 723 q 585 716 537 723 q 679 691 633 709 l 594 0 l 503 0 q 459 16 470 0 q 447 57 447 33 l 453 149 z "},"ą":{"ha":724,"x_min":25,"x_max":680,"o":"m 501 600 q 482 601 491 601 q 465 601 474 601 q 358 575 408 601 q 273 504 309 549 q 217 400 238 459 q 197 274 197 340 q 220 165 197 199 q 285 130 244 130 q 341 150 313 130 q 393 204 368 169 q 438 285 417 238 q 474 385 458 331 l 501 600 m 574 0 q 546 -18 560 -8 q 521 -42 532 -29 q 504 -70 510 -55 q 497 -101 497 -85 q 507 -129 497 -119 q 534 -140 516 -140 q 552 -138 545 -140 q 565 -135 560 -137 q 573 -131 569 -133 q 579 -130 576 -130 q 594 -141 592 -130 l 612 -204 q 555 -230 588 -219 q 485 -240 522 -240 q 395 -214 426 -240 q 364 -148 364 -188 q 393 -67 364 -106 q 478 3 422 -28 q 454 24 460 10 q 448 57 448 38 l 453 149 q 347 33 406 76 q 217 -10 288 -10 q 142 6 177 -10 q 81 53 107 22 q 40 132 55 85 q 25 244 25 180 q 41 368 25 308 q 86 482 57 428 q 158 579 116 535 q 251 656 199 624 q 363 705 303 688 q 490 723 423 723 q 586 716 538 723 q 680 691 634 709 l 594 0 l 574 0 z "},"æ":{"ha":1038,"x_min":3,"x_max":988,"o":"m 412 320 q 291 305 339 317 q 214 275 243 294 q 174 233 185 257 q 163 181 163 209 q 183 122 163 142 q 241 102 203 102 q 299 113 272 102 q 349 147 327 124 q 386 205 371 169 q 408 288 401 240 l 412 320 m 748 603 q 683 590 712 603 q 633 552 655 577 q 598 493 612 528 q 576 415 583 458 q 703 433 654 422 q 781 459 753 444 q 819 493 808 474 q 829 532 829 512 q 809 583 829 563 q 748 603 790 603 m 988 132 q 916 68 951 95 q 844 24 881 41 q 766 -2 807 6 q 676 -10 725 -10 q 554 24 610 -10 q 467 129 498 58 q 413 65 443 92 q 349 22 383 39 q 279 -3 315 5 q 209 -11 243 -11 q 55 33 106 -11 q 3 160 3 77 q 23 252 3 207 q 92 334 43 298 q 222 394 140 371 q 424 422 303 418 l 428 450 q 414 558 437 524 q 340 593 391 593 q 276 583 302 593 q 230 561 250 573 q 192 539 209 549 q 155 529 175 529 q 127 538 138 529 q 110 559 117 547 l 88 613 q 217 697 151 669 q 358 725 283 725 q 475 697 431 725 q 538 617 518 668 q 639 695 581 667 q 769 723 697 723 q 852 709 814 723 q 918 669 890 694 q 963 611 947 644 q 978 540 978 578 q 971 489 978 515 q 946 439 964 463 q 899 393 928 415 q 823 356 869 372 q 715 330 778 340 q 568 317 651 319 l 568 312 q 606 168 568 214 q 710 122 643 122 q 787 134 757 122 q 838 161 817 147 q 877 188 860 176 q 914 200 894 200 q 930 196 922 200 q 944 185 938 192 l 988 132 z "},"b":{"ha":749,"x_min":28,"x_max":703,"o":"m 215 167 q 269 131 238 141 q 329 120 299 120 q 413 149 375 120 q 477 223 450 177 q 518 326 503 269 q 533 441 533 383 q 508 552 533 516 q 440 589 484 589 q 383 570 412 589 q 326 517 353 551 q 276 438 299 483 q 236 339 253 392 l 215 167 m 265 572 q 376 683 315 642 q 507 724 438 724 q 588 707 551 724 q 649 658 624 691 q 689 576 675 626 q 703 458 703 526 q 690 340 703 398 q 655 229 678 281 q 601 133 633 177 q 530 58 569 90 q 448 8 492 26 q 356 -10 403 -10 q 259 11 302 -10 q 187 71 216 33 l 181 47 q 161 11 174 23 q 121 0 149 0 l 28 0 l 153 1032 l 321 1032 l 265 572 z "},"c":{"ha":630,"x_min":30,"x_max":613,"o":"m 577 126 q 509 61 542 88 q 444 19 477 35 q 374 -4 410 3 q 294 -10 338 -10 q 183 11 232 -10 q 100 71 134 32 q 48 165 66 110 q 30 287 30 219 q 42 399 30 344 q 78 503 55 454 q 135 592 102 551 q 210 661 169 632 q 301 707 252 690 q 405 723 350 723 q 525 698 476 723 q 613 623 575 673 l 558 558 q 544 546 553 551 q 526 541 536 541 q 505 548 515 541 q 483 564 496 556 q 451 580 470 572 q 401 587 432 587 q 326 565 362 587 q 262 504 290 544 q 218 409 234 465 q 201 286 201 353 q 236 165 201 208 q 331 122 271 122 q 377 128 357 122 q 413 141 397 133 q 440 159 428 149 q 463 176 452 168 q 482 190 473 184 q 503 195 492 195 q 520 191 512 195 q 534 179 528 186 l 577 126 l 577 126 z "},"ç":{"ha":630,"x_min":30,"x_max":613,"o":"m 558 558 q 544 546 553 551 q 526 541 536 541 q 505 548 515 541 q 483 564 496 556 q 451 580 470 572 q 401 587 432 587 q 326 565 362 587 q 262 504 290 544 q 218 409 234 465 q 201 286 201 353 q 236 165 201 208 q 331 122 271 122 q 377 128 357 122 q 413 141 397 133 q 440 159 428 149 q 463 176 452 168 q 482 190 473 184 q 503 195 492 195 q 520 191 512 195 q 534 179 528 186 l 577 126 q 517 67 546 92 q 460 27 489 43 q 399 2 431 10 q 333 -9 368 -6 l 319 -43 q 393 -80 372 -57 q 415 -134 415 -103 q 402 -182 415 -160 q 366 -217 389 -203 q 311 -240 343 -232 q 241 -247 279 -247 q 192 -243 215 -247 q 149 -232 170 -240 l 171 -178 q 192 -162 177 -162 q 211 -168 202 -162 q 238 -173 220 -173 q 270 -163 260 -173 q 281 -140 281 -153 q 260 -113 281 -122 q 195 -98 239 -105 l 236 -6 q 149 28 187 3 q 84 91 110 53 q 44 178 58 128 q 30 287 30 228 q 42 399 30 344 q 78 503 55 454 q 135 592 102 551 q 210 661 169 632 q 301 707 252 690 q 405 723 350 723 q 525 698 476 723 q 613 623 575 673 l 558 558 z "},"d":{"ha":749,"x_min":28,"x_max":745,"o":"m 517 547 q 463 583 493 572 q 402 593 432 593 q 319 565 356 593 q 255 490 281 536 q 213 387 228 444 q 199 272 199 330 q 223 161 199 197 q 292 124 248 124 q 349 143 319 124 q 405 196 378 163 q 455 276 432 230 q 495 374 478 322 l 517 547 m 745 1032 l 617 0 l 526 0 q 482 16 494 0 q 471 57 471 33 l 477 156 q 422 87 451 118 q 361 35 393 56 q 295 1 329 13 q 224 -10 260 -10 q 144 6 180 -10 q 82 55 108 22 q 42 138 56 88 q 28 256 28 188 q 41 374 28 316 q 76 484 53 432 q 131 580 99 536 q 201 656 163 624 q 284 706 240 688 q 376 724 328 724 q 463 706 424 724 q 531 658 501 689 l 577 1032 l 745 1032 z "},"ď":{"ha":749,"x_min":28,"x_max":938,"o":"m 913 1033 q 933 1026 928 1033 q 938 1012 938 1019 q 935 996 938 1006 q 924 967 933 987 q 898 913 915 947 q 852 824 881 879 q 826 799 840 804 q 791 794 813 794 l 749 794 l 818 1033 l 913 1033 m 517 547 q 463 583 493 572 q 402 593 432 593 q 319 565 356 593 q 255 490 281 536 q 213 387 228 444 q 199 272 199 330 q 223 161 199 197 q 292 124 248 124 q 349 143 319 124 q 405 196 378 163 q 455 276 432 230 q 495 374 478 322 l 517 547 m 745 1032 l 617 0 l 526 0 q 482 16 494 0 q 471 57 471 33 l 477 156 q 422 87 451 118 q 361 35 393 56 q 295 1 329 13 q 224 -10 260 -10 q 144 6 180 -10 q 82 55 108 22 q 42 138 56 88 q 28 256 28 188 q 41 374 28 316 q 76 484 53 432 q 131 580 99 536 q 201 656 163 624 q 284 706 240 688 q 376 724 328 724 q 463 706 424 724 q 531 658 501 689 l 577 1032 l 745 1032 z "},"đ":{"ha":749,"x_min":28,"x_max":815,"o":"m 515 529 q 461 563 491 553 q 402 572 431 572 q 319 547 356 572 q 255 480 281 522 q 213 384 228 438 q 199 272 199 330 q 223 161 199 197 q 292 124 248 124 q 349 143 319 124 q 405 196 378 163 q 455 276 432 230 q 495 374 478 322 l 515 529 m 803 787 l 715 787 l 617 0 l 526 0 q 482 16 494 0 q 471 57 471 33 l 477 156 q 422 87 451 118 q 361 35 393 56 q 295 1 329 13 q 224 -10 260 -10 q 144 6 180 -10 q 82 55 108 22 q 42 138 56 88 q 28 256 28 188 q 41 373 28 316 q 76 479 53 429 q 131 570 99 528 q 201 641 163 611 q 284 687 240 671 q 376 703 328 703 q 461 687 423 703 q 528 641 499 670 l 547 787 l 461 787 q 415 801 427 787 q 408 846 403 815 l 415 890 l 559 890 l 577 1032 l 745 1032 l 728 890 l 815 890 l 803 787 z "},"ð":{"ha":740,"x_min":27,"x_max":692,"o":"m 323 116 q 391 131 358 116 q 450 178 423 145 q 497 263 476 210 q 528 393 517 316 q 509 442 521 419 q 480 483 497 465 q 437 511 462 501 q 380 521 413 521 q 301 503 336 521 q 242 453 266 485 q 205 380 217 422 q 192 289 192 338 q 201 216 192 248 q 228 161 211 183 q 270 127 246 139 q 323 116 294 116 m 582 832 q 663 692 633 773 q 692 504 692 610 q 666 291 692 386 q 590 129 640 196 q 468 26 540 62 q 303 -10 395 -10 q 192 10 242 -10 q 105 68 141 30 q 48 160 68 106 q 27 281 27 214 q 52 422 27 356 q 123 538 78 488 q 228 617 167 588 q 362 647 290 647 q 477 620 427 647 q 560 542 526 594 q 534 674 556 617 q 466 774 512 731 l 322 681 l 291 736 q 287 760 283 749 q 301 778 291 772 l 382 831 q 276 872 335 855 q 244 898 249 881 q 251 940 239 915 l 276 992 q 400 958 341 981 q 510 899 460 935 l 637 978 l 665 924 q 669 899 670 912 q 652 877 668 886 l 582 832 z "},"e":{"ha":676,"x_min":30,"x_max":633,"o":"m 399 603 q 335 589 365 603 q 281 549 305 574 q 239 487 257 523 q 211 409 222 451 q 350 435 297 421 q 431 466 402 449 q 468 501 459 482 q 478 541 478 520 q 473 563 478 551 q 459 582 469 574 q 435 597 450 591 q 399 603 420 603 m 197 290 q 339 122 197 122 q 393 128 369 122 q 434 142 417 134 q 466 161 452 151 q 493 180 481 172 q 517 194 505 188 q 542 200 528 200 q 559 196 551 200 q 573 185 567 192 l 617 132 q 544 68 580 95 q 472 24 509 41 q 394 -2 435 6 q 306 -10 353 -10 q 192 11 243 -10 q 106 70 142 32 q 50 164 69 109 q 30 285 30 218 q 42 396 30 342 q 77 499 54 450 q 133 588 100 547 q 209 659 167 629 q 301 706 251 689 q 409 722 351 722 q 507 706 465 722 q 577 665 549 690 q 619 608 605 640 q 633 547 633 577 q 614 460 633 499 q 545 389 594 420 q 412 335 497 358 q 197 299 327 313 l 197 290 z "},"ę":{"ha":676,"x_min":30,"x_max":633,"o":"m 399 603 q 335 589 365 603 q 281 549 305 574 q 239 487 257 523 q 211 409 222 451 q 350 435 297 421 q 431 466 402 449 q 468 501 459 482 q 478 541 478 520 q 473 563 478 551 q 459 582 469 574 q 435 597 450 591 q 399 603 420 603 m 617 132 q 565 84 590 106 q 513 46 539 63 q 460 18 487 30 q 404 0 433 7 l 405 0 q 376 -18 390 -8 q 352 -42 363 -29 q 334 -70 341 -55 q 328 -101 328 -85 q 337 -129 328 -119 q 365 -140 347 -140 q 383 -138 376 -140 q 395 -135 390 -137 q 403 -131 400 -133 q 410 -130 406 -130 q 424 -141 422 -130 l 442 -204 q 385 -230 419 -219 q 316 -240 352 -240 q 225 -214 256 -240 q 194 -148 194 -188 q 218 -75 194 -110 q 287 -10 241 -40 q 181 16 228 -7 q 100 76 133 38 q 48 168 67 115 q 30 285 30 221 q 42 396 30 342 q 77 499 54 450 q 133 588 100 547 q 209 659 167 629 q 301 706 251 689 q 409 722 351 722 q 507 706 465 722 q 577 665 549 690 q 619 608 605 640 q 633 547 633 577 q 614 460 633 499 q 545 389 594 420 q 412 335 497 358 q 197 299 327 313 l 197 290 q 339 122 197 122 q 393 128 369 122 q 434 142 417 134 q 466 161 452 151 q 493 180 481 172 q 517 194 505 188 q 542 200 528 200 q 559 196 551 200 q 573 185 567 192 l 617 132 z "},"f":{"ha":460,"x_min":51,"x_max":534,"o":"m 311 584 l 244 29 l 208 -101 q 178 -153 198 -135 q 120 -172 158 -172 l 51 -172 l 142 584 l 88 594 q 61 607 72 597 q 53 637 51 617 l 62 706 l 158 706 l 164 759 q 196 869 172 820 q 259 951 221 917 q 346 1003 297 985 q 452 1022 395 1022 q 534 1008 497 1022 l 519 919 q 499 900 515 903 q 463 897 483 897 q 412 890 435 897 q 371 865 389 882 q 342 820 353 848 q 326 753 331 793 l 320 706 l 480 706 l 464 584 l 311 584 z "},"ﬀ":{"ha":880,"x_min":51,"x_max":948,"o":"m 734 706 l 902 706 l 887 588 l 726 588 l 658 29 l 622 -101 q 591 -153 611 -135 q 534 -172 572 -172 l 465 -172 l 556 588 l 312 588 l 244 29 l 209 -101 q 178 -153 198 -135 q 121 -172 158 -172 l 51 -172 l 144 588 l 90 597 q 61 610 72 601 q 53 639 51 620 l 62 706 l 159 706 l 164 747 q 195 856 172 808 q 256 939 219 905 q 341 991 293 973 q 446 1009 390 1009 q 528 996 491 1009 l 513 907 q 493 888 509 891 q 458 885 478 885 q 408 880 431 885 q 369 858 386 874 q 342 817 353 843 q 326 752 331 792 l 319 706 l 570 706 l 578 769 q 610 879 585 831 q 672 962 635 928 q 759 1014 710 996 q 865 1032 808 1032 q 908 1029 888 1032 q 948 1019 928 1026 l 932 930 q 913 911 928 914 q 877 908 897 908 q 826 901 849 908 q 786 876 803 893 q 757 831 769 859 q 741 764 746 803 l 734 706 z "},"ﬁ":{"ha":781,"x_min":51,"x_max":729,"o":"m 319 706 l 729 706 l 643 0 l 475 0 l 547 584 l 310 584 l 243 28 l 208 -102 q 177 -154 197 -135 q 119 -173 157 -173 l 51 -173 l 144 583 l 91 593 q 62 607 72 597 q 53 634 51 616 l 61 706 l 159 706 l 162 729 q 196 850 169 794 q 269 945 223 905 q 380 1009 315 986 q 531 1032 445 1032 q 588 1029 558 1032 q 638 1019 618 1026 l 622 933 q 602 915 618 917 q 564 913 586 913 q 458 901 501 913 q 386 866 414 890 q 342 808 358 843 q 322 726 327 773 l 319 706 z "},"ﬃ":{"ha":1194,"x_min":51,"x_max":1143,"o":"m 319 706 l 574 706 l 577 729 q 611 850 585 794 q 684 945 638 905 q 795 1009 730 986 q 947 1032 861 1032 q 974 1031 960 1032 q 1003 1029 989 1031 q 1031 1025 1017 1027 q 1053 1019 1044 1022 l 1037 933 q 1017 915 1033 917 q 980 913 1001 913 q 873 901 917 913 q 801 866 829 890 q 758 808 773 843 q 737 726 742 773 l 735 706 l 1143 706 l 1057 0 l 891 0 l 963 588 l 726 588 l 658 28 l 623 -102 q 592 -154 613 -135 q 535 -173 572 -173 l 466 -173 l 560 588 l 312 588 l 244 29 l 209 -101 q 178 -153 198 -135 q 121 -172 158 -172 l 51 -172 l 144 588 l 90 597 q 61 610 72 601 q 53 639 51 620 l 62 706 l 159 706 l 164 747 q 195 856 172 808 q 256 939 219 905 q 341 991 293 973 q 446 1009 390 1009 q 528 996 491 1009 l 513 907 q 493 888 509 891 q 458 885 478 885 q 408 880 431 885 q 369 858 386 874 q 342 817 353 843 q 326 752 331 792 l 319 706 z "},"ﬂ":{"ha":794,"x_min":51,"x_max":785,"o":"m 312 584 l 243 28 l 208 -102 q 177 -154 197 -135 q 119 -173 157 -173 l 51 -173 l 143 583 l 91 593 q 61 607 72 597 q 53 634 51 616 l 62 706 l 158 706 l 162 738 q 192 846 169 794 q 253 938 215 898 q 348 1000 292 977 q 474 1024 403 1024 q 585 1019 533 1024 q 690 1015 637 1015 l 785 1015 l 660 0 l 494 0 l 603 893 q 543 900 573 897 q 485 903 513 903 q 374 861 416 903 q 324 738 332 819 l 320 706 l 471 706 l 456 584 l 312 584 z "},"ﬄ":{"ha":1207,"x_min":49,"x_max":1199,"o":"m 317 704 l 571 704 l 575 738 q 605 846 582 794 q 667 938 628 898 q 761 1000 706 977 q 887 1024 816 1024 q 998 1019 946 1024 q 1103 1015 1050 1015 l 1199 1015 l 1074 0 l 908 0 l 1016 893 q 956 900 986 897 q 899 903 926 903 q 787 861 829 903 q 737 738 745 819 l 733 704 l 902 704 l 887 587 l 725 587 l 656 28 l 621 -102 q 590 -154 610 -135 q 533 -173 570 -173 l 464 -173 l 556 587 l 309 587 l 242 29 l 206 -101 q 175 -153 195 -135 q 118 -172 156 -172 l 49 -172 l 142 587 l 90 596 q 61 609 72 599 q 53 638 51 619 l 62 704 l 156 704 l 161 747 q 193 856 169 808 q 254 939 217 905 q 339 991 291 973 q 444 1009 388 1009 q 526 996 488 1009 l 510 907 q 503 895 508 899 q 491 888 498 890 q 474 886 483 886 q 455 885 465 885 q 406 880 428 885 q 367 858 383 874 q 339 817 350 843 q 323 752 328 792 l 317 704 z "},"g":{"ha":698,"x_min":-44,"x_max":710,"o":"m 256 -131 q 326 -122 294 -131 q 381 -94 358 -112 q 417 -53 404 -77 q 429 -3 429 -30 q 428 16 429 7 q 426 34 427 26 q 285 46 344 48 q 190 31 227 44 q 136 -2 153 19 q 119 -47 119 -23 q 152 -110 119 -88 q 256 -131 186 -131 m 317 334 q 372 349 349 334 q 412 387 396 363 q 437 440 428 410 q 446 500 445 469 q 421 580 446 552 q 350 608 397 608 q 295 594 319 608 q 256 558 272 581 q 232 506 240 535 q 224 446 224 477 q 248 363 224 392 q 317 334 272 334 m 710 687 l 702 631 q 668 587 697 598 l 595 568 q 600 539 599 554 q 602 506 602 523 q 595 449 602 474 q 578 402 588 424 q 556 361 568 381 q 534 323 544 342 q 517 281 524 303 q 510 233 510 259 q 522 180 510 204 q 548 131 534 156 q 574 78 562 106 q 585 12 585 49 q 561 -89 585 -41 q 493 -172 538 -136 q 385 -228 449 -208 q 241 -249 322 -249 q 123 -236 176 -249 q 33 -198 70 -222 q -24 -141 -3 -174 q -44 -68 -44 -108 q -23 17 -44 -19 q 33 77 -2 53 q 113 117 67 102 q 206 138 158 131 q 303 142 255 144 q 394 134 352 141 q 388 179 388 155 q 410 268 388 219 q 350 240 383 250 q 269 231 316 231 q 192 244 228 231 q 128 284 156 257 q 84 352 100 311 q 67 447 67 392 q 87 548 67 499 q 144 637 106 598 q 239 700 183 676 q 369 724 295 724 q 445 715 409 724 q 510 687 481 706 l 710 687 z "},"h":{"ha":751,"x_min":28,"x_max":689,"o":"m 271 592 q 384 691 323 658 q 508 724 444 724 q 589 706 553 724 q 647 653 624 688 q 680 568 670 619 q 681 453 689 518 l 626 0 l 456 0 l 509 453 q 502 553 518 523 q 442 584 485 584 q 388 569 416 584 q 333 527 359 554 q 283 460 306 499 q 244 374 260 422 l 199 0 l 28 0 l 153 1032 l 324 1032 l 271 592 z "},"ĥ":{"ha":751,"x_min":7,"x_max":689,"o":"m 174 1087 q 153 1078 165 1081 q 131 1076 142 1076 l 7 1076 l 180 1227 l 345 1227 l 481 1076 l 356 1076 q 335 1079 346 1076 q 317 1087 324 1083 l 262 1135 q 257 1140 259 1138 q 253 1144 255 1142 q 247 1139 249 1141 q 241 1135 244 1138 l 174 1087 m 271 592 q 384 691 323 658 q 508 724 444 724 q 589 706 553 724 q 647 653 624 688 q 680 568 670 619 q 681 453 689 518 l 626 0 l 456 0 l 509 453 q 502 553 518 523 q 442 584 485 584 q 388 569 416 584 q 333 527 359 554 q 283 460 306 499 q 244 374 260 422 l 199 0 l 28 0 l 153 1032 l 324 1032 l 271 592 z "},"ħ":{"ha":751,"x_min":24,"x_max":686,"o":"m 268 569 q 381 669 320 637 q 506 702 442 702 q 586 684 551 702 q 645 632 622 666 q 677 547 668 597 q 678 432 686 497 l 626 0 l 456 0 l 507 432 q 499 532 515 501 q 440 563 483 563 q 385 548 413 563 q 330 505 356 533 q 280 438 303 477 q 242 350 257 398 l 199 0 l 28 0 l 123 785 l 24 785 l 38 892 l 136 892 l 153 1032 l 324 1032 l 308 892 l 481 892 l 472 831 q 455 797 469 809 q 417 785 440 785 l 294 785 l 268 569 z "},"i":{"ha":340,"x_min":35,"x_max":333,"o":"m 289 713 l 203 0 l 35 0 l 120 713 l 289 713 m 333 920 q 323 878 333 898 q 299 844 314 859 q 264 821 283 830 q 224 813 244 813 q 185 821 203 813 q 151 844 166 830 q 128 878 137 859 q 119 920 119 898 q 128 963 119 942 q 152 998 138 983 q 186 1021 167 1013 q 225 1030 205 1030 q 265 1021 246 1030 q 300 998 285 1013 q 324 963 315 983 q 333 920 333 943 z "},"į":{"ha":340,"x_min":-33,"x_max":333,"o":"m 178 0 q 149 -18 163 -8 q 125 -42 135 -29 q 107 -70 114 -55 q 101 -101 101 -85 q 110 -129 101 -119 q 138 -140 119 -140 q 156 -138 149 -140 q 168 -135 163 -137 q 176 -131 173 -133 q 183 -130 179 -130 q 197 -141 195 -130 l 215 -204 q 158 -230 192 -219 q 89 -240 125 -240 q -2 -214 29 -240 q -33 -148 -33 -188 q -5 -69 -33 -107 q 76 0 22 -31 l 35 0 l 120 713 l 289 713 l 203 0 l 178 0 m 225 1030 q 265 1021 246 1030 q 300 998 285 1013 q 324 963 315 983 q 333 920 333 943 q 323 878 333 898 q 299 844 314 859 q 264 821 283 830 q 224 813 244 813 q 185 821 203 813 q 151 844 166 830 q 128 878 137 859 q 119 920 119 898 q 128 963 119 942 q 152 998 138 983 q 186 1021 167 1013 q 225 1030 205 1030 z "},"ı":{"ha":340,"x_min":35,"x_max":289,"o":"m 289 713 l 203 0 l 35 0 l 120 713 l 289 713 z "},"j":{"ha":339,"x_min":-126,"x_max":326,"o":"m 288 713 l 199 -24 q 175 -112 193 -71 q 128 -184 158 -153 q 56 -232 98 -215 q -40 -250 14 -250 q -87 -247 -68 -250 q -126 -237 -107 -244 l -110 -144 q -97 -127 -106 -131 q -64 -123 -87 -123 q -25 -118 -41 -123 q 3 -101 -8 -112 q 20 -71 14 -90 q 31 -24 27 -52 l 120 713 l 288 713 m 326 920 q 317 878 326 898 q 292 844 308 859 q 258 821 277 830 q 217 813 238 813 q 178 821 197 813 q 145 844 160 830 q 122 878 131 859 q 113 920 113 898 q 122 963 113 942 q 146 998 131 983 q 180 1021 160 1013 q 219 1030 199 1030 q 259 1021 240 1030 q 293 998 278 1013 q 317 963 308 983 q 326 920 326 943 z "},"ȷ":{"ha":339,"x_min":-126,"x_max":288,"o":"m 288 713 l 199 -24 q 175 -112 193 -71 q 128 -184 158 -153 q 56 -232 98 -215 q -40 -250 14 -250 q -87 -247 -68 -250 q -126 -237 -107 -244 l -110 -144 q -97 -127 -106 -131 q -64 -123 -87 -123 q -25 -118 -41 -123 q 3 -101 -8 -112 q 20 -71 14 -90 q 31 -24 27 -52 l 120 713 l 288 713 z "},"k":{"ha":695,"x_min":26,"x_max":715,"o":"m 322 1032 l 250 441 l 267 441 q 293 446 283 441 q 315 464 303 451 l 504 683 q 529 705 516 697 q 563 713 542 713 l 715 713 l 481 448 q 426 400 456 417 q 449 376 440 390 q 466 346 458 363 l 642 0 l 493 0 q 462 7 474 0 q 442 31 449 13 l 303 301 q 287 322 296 317 q 259 326 278 326 l 235 326 l 196 0 l 26 0 l 153 1032 l 322 1032 z "},"ĸ":{"ha":694,"x_min":27,"x_max":715,"o":"m 284 713 l 250 441 l 268 441 q 293 445 283 441 q 315 464 303 450 l 504 683 q 530 705 516 697 q 563 713 543 713 l 715 713 l 483 448 q 458 420 471 433 q 429 399 444 408 q 450 376 441 390 q 466 346 458 362 l 642 0 l 494 0 q 463 7 476 0 q 443 31 450 13 l 304 301 q 288 322 297 317 q 259 326 278 326 l 236 326 l 196 0 l 27 0 l 115 713 l 284 713 z "},"ł":{"ha":424,"x_min":31,"x_max":428,"o":"m 428 691 l 428 592 q 405 555 428 564 l 312 515 l 249 0 l 81 0 l 135 453 l 31 410 l 31 512 q 51 545 31 535 l 152 588 l 206 1032 l 375 1032 l 328 650 l 428 691 z "},"ľ":{"ha":331,"x_min":30,"x_max":523,"o":"m 499 1033 q 519 1026 515 1033 q 523 1012 523 1019 q 520 996 523 1006 q 509 967 518 987 q 484 913 501 947 q 438 824 467 879 q 413 799 426 804 q 376 794 399 794 l 335 794 l 404 1033 l 499 1033 m 30 0 l 155 1032 l 324 1032 l 199 0 l 30 0 z "},"m":{"ha":1101,"x_min":28,"x_max":1039,"o":"m 28 0 l 114 713 l 201 713 q 243 700 228 713 q 258 658 258 687 l 255 579 q 359 688 303 652 q 476 724 415 724 q 580 680 542 724 q 624 553 618 636 q 735 682 674 641 q 867 724 796 724 q 947 706 913 724 q 1002 653 981 688 q 1031 568 1024 619 q 1031 453 1039 518 l 977 0 l 808 0 l 861 453 q 857 553 870 523 q 806 583 844 583 q 754 569 779 583 q 707 529 729 556 q 665 465 684 503 q 631 378 646 426 l 587 0 l 417 0 l 472 453 q 468 553 480 523 q 417 583 456 583 q 364 569 389 583 q 316 527 338 554 q 274 460 293 499 q 240 372 255 421 l 196 0 l 28 0 z "},"n":{"ha":751,"x_min":28,"x_max":690,"o":"m 253 565 q 374 684 308 645 q 510 724 440 724 q 590 706 554 724 q 648 653 625 688 q 680 568 671 619 q 681 453 690 518 l 628 0 l 456 0 l 510 453 q 503 553 519 523 q 444 583 487 583 q 386 567 416 583 q 328 520 356 551 q 277 448 301 490 q 240 354 254 406 l 200 0 l 28 0 l 114 713 l 201 713 q 243 700 228 713 q 258 658 258 687 l 253 565 z "},"ŋ":{"ha":752,"x_min":28,"x_max":690,"o":"m 253 565 q 374 684 308 645 q 510 724 440 724 q 590 706 554 724 q 648 653 625 688 q 680 568 671 619 q 681 453 690 518 l 638 74 l 631 22 q 604 -89 624 -39 q 551 -175 584 -140 q 469 -231 517 -211 q 356 -251 422 -251 q 325 -250 339 -251 q 300 -248 312 -249 q 276 -244 288 -247 q 249 -237 264 -241 l 264 -156 q 275 -127 267 -135 q 303 -119 282 -119 q 324 -122 313 -119 q 354 -124 334 -124 q 425 -95 400 -124 q 457 2 449 -65 l 463 57 l 510 453 q 503 553 519 523 q 444 583 487 583 q 386 567 416 583 q 328 520 356 551 q 277 448 301 490 q 240 354 254 406 l 200 0 l 28 0 l 114 713 l 201 713 q 243 700 228 713 q 258 658 258 687 l 253 565 z "},"o":{"ha":727,"x_min":31,"x_max":680,"o":"m 321 122 q 399 146 364 122 q 458 212 433 171 q 495 308 482 253 q 508 424 508 363 q 479 551 508 510 q 390 592 450 592 q 312 567 347 592 q 253 502 277 543 q 215 406 228 460 q 202 290 202 351 q 231 162 202 203 q 321 122 260 122 m 305 -10 q 196 9 246 -10 q 109 67 146 29 q 51 161 72 106 q 31 288 31 217 q 60 460 31 381 q 141 599 90 540 q 260 690 192 657 q 406 724 328 724 q 515 704 465 724 q 602 646 565 684 q 659 552 638 608 q 680 425 680 497 q 650 254 680 333 q 569 116 620 174 q 450 23 518 57 q 305 -10 382 -10 z "},"ø":{"ha":726,"x_min":-10,"x_max":719,"o":"m 254 129 q 320 110 281 110 q 400 134 363 110 q 463 199 436 157 q 504 298 489 240 q 519 424 519 355 q 517 456 519 440 q 513 485 516 471 l 254 129 m 456 584 q 390 603 427 603 q 310 580 347 603 q 247 516 274 557 q 206 417 221 474 q 191 290 191 359 q 197 227 191 257 l 456 584 m 625 617 q 665 532 651 580 q 679 425 679 484 q 649 254 679 333 q 568 116 619 174 q 449 23 517 57 q 305 -10 381 -10 q 230 -1 265 -10 q 163 25 194 8 l 156 16 q 107 -23 135 -12 q 53 -34 79 -34 l -10 -34 l 85 95 q 44 181 58 133 q 30 288 30 228 q 60 460 30 381 q 141 599 90 540 q 260 690 192 657 q 405 724 328 724 q 548 688 485 724 l 557 700 q 574 721 566 713 q 590 735 581 730 q 609 743 598 741 q 635 746 619 746 l 719 746 l 625 617 z "},"œ":{"ha":1114,"x_min":29,"x_max":1064,"o":"m 504 419 q 484 549 510 501 q 397 597 458 597 q 313 572 350 597 q 250 503 276 548 q 210 397 224 459 q 196 258 196 334 q 201 205 196 231 q 220 160 207 179 q 255 128 233 140 q 306 117 276 117 q 388 139 353 117 q 447 200 423 160 q 485 295 472 240 q 504 419 499 351 m 828 605 q 712 553 760 605 q 647 404 663 501 q 783 431 730 415 q 867 463 837 446 q 909 500 898 481 q 921 538 921 519 q 899 585 921 565 q 828 605 876 605 m 1058 132 q 986 68 1022 95 q 914 24 951 41 q 836 -2 877 6 q 747 -10 795 -10 q 626 23 681 -10 q 540 124 571 56 q 419 25 489 60 q 265 -10 349 -10 q 164 11 208 -10 q 90 67 119 32 q 44 150 60 103 q 29 249 29 197 q 61 454 29 365 q 145 602 92 542 q 268 693 199 663 q 413 724 338 724 q 530 694 481 724 q 608 613 579 665 q 715 694 653 665 q 856 724 776 724 q 941 710 903 724 q 1007 674 980 697 q 1049 617 1034 650 q 1064 544 1064 584 q 1045 459 1064 499 q 978 389 1026 420 q 848 336 930 358 q 639 300 765 313 q 679 165 642 208 q 781 122 716 122 q 858 134 828 122 q 909 161 888 147 q 947 188 930 176 q 984 200 964 200 q 1001 196 993 200 q 1015 185 1009 192 l 1058 132 z "},"p":{"ha":749,"x_min":-1,"x_max":703,"o":"m 215 167 q 269 131 239 141 q 329 120 300 120 q 413 149 375 120 q 477 223 450 177 q 519 326 504 269 q 533 441 533 383 q 509 552 533 516 q 440 589 484 589 q 383 569 412 589 q 326 516 353 550 q 276 437 299 483 q 236 338 253 391 l 215 167 m 253 556 q 370 678 305 633 q 508 724 435 724 q 588 707 552 724 q 650 658 624 691 q 690 576 676 626 q 703 458 703 526 q 691 340 703 398 q 656 229 678 281 q 601 133 633 177 q 531 58 569 90 q 448 8 492 26 q 356 -10 403 -10 q 269 7 308 -10 q 201 54 231 24 l 166 -233 l -1 -233 l 115 713 l 201 713 q 243 700 228 713 q 258 658 258 687 l 253 556 z "},"þ":{"ha":749,"x_min":-1,"x_max":703,"o":"m 215 167 q 269 131 239 141 q 329 120 300 120 q 413 149 375 120 q 477 223 450 177 q 519 326 504 269 q 533 441 533 383 q 509 552 533 516 q 440 589 484 589 q 383 570 413 589 q 327 517 354 551 q 277 438 300 483 q 237 340 253 392 l 215 167 m 265 573 q 377 683 315 642 q 508 724 438 724 q 588 707 552 724 q 650 658 624 691 q 690 576 676 626 q 703 458 703 526 q 691 340 703 398 q 656 229 678 281 q 601 133 633 177 q 531 58 569 90 q 448 8 492 26 q 356 -10 403 -10 q 269 7 308 -10 q 201 54 231 24 l 173 -176 q 152 -215 170 -198 q 106 -233 135 -233 l -1 -233 l 153 1032 l 322 1032 l 265 573 z "},"q":{"ha":724,"x_min":24,"x_max":680,"o":"m 501 600 q 482 601 491 601 q 465 601 474 601 q 358 575 408 601 q 273 504 309 549 q 217 400 238 459 q 197 274 197 340 q 220 165 197 199 q 285 130 244 130 q 340 149 313 130 q 392 203 367 169 q 437 284 417 238 q 473 383 458 330 l 501 600 m 440 130 q 339 27 394 65 q 217 -10 283 -10 q 142 6 177 -10 q 80 53 106 22 q 39 132 54 85 q 24 244 24 180 q 40 368 24 308 q 86 482 56 428 q 157 579 115 535 q 250 656 199 624 q 362 705 302 688 q 489 723 422 723 q 585 716 538 723 q 680 691 633 709 l 565 -233 l 453 -233 q 427 -227 438 -233 q 410 -211 416 -221 q 402 -191 404 -202 q 402 -169 401 -180 l 440 130 z "},"r":{"ha":491,"x_min":28,"x_max":515,"o":"m 253 542 q 311 632 281 594 q 376 691 342 670 q 444 716 409 713 q 515 705 480 720 l 484 541 q 336 524 399 576 q 234 316 272 471 l 196 0 l 28 0 l 114 713 l 201 713 q 243 700 228 713 q 258 658 258 687 l 253 542 z "},"s":{"ha":563,"x_min":-12,"x_max":547,"o":"m 503 578 q 488 563 495 567 q 470 558 481 558 q 445 565 458 558 q 416 581 433 572 q 379 597 400 590 q 328 603 358 603 q 244 579 274 603 q 215 517 215 554 q 236 472 215 489 q 288 441 256 454 q 355 414 319 428 q 422 380 390 401 q 473 327 453 360 q 494 244 494 295 q 473 147 494 193 q 415 65 453 100 q 323 9 376 30 q 201 -11 269 -11 q 136 -5 168 -11 q 77 14 104 2 q 26 42 49 26 q -12 76 3 58 l 30 142 q 48 160 38 153 q 74 166 58 166 q 100 157 88 166 q 127 137 112 148 q 166 117 143 126 q 224 108 188 108 q 274 116 252 108 q 311 137 296 124 q 334 167 326 150 q 342 204 342 185 q 330 243 342 228 q 298 270 318 259 q 253 291 278 282 q 202 309 228 299 q 152 331 176 319 q 107 363 127 344 q 76 409 88 382 q 64 476 64 437 q 82 568 64 524 q 135 648 100 613 q 220 703 169 682 q 338 724 272 724 q 458 700 406 724 q 547 641 511 677 l 503 578 z "},"ş":{"ha":563,"x_min":-12,"x_max":547,"o":"m 30 142 q 48 160 38 153 q 74 166 58 166 q 100 157 88 166 q 127 137 112 148 q 166 117 143 126 q 224 108 188 108 q 274 116 252 108 q 311 137 296 124 q 334 167 326 150 q 342 204 342 185 q 330 243 342 228 q 298 270 318 259 q 253 291 278 282 q 202 309 228 299 q 152 331 176 319 q 107 363 127 344 q 76 409 88 382 q 64 476 64 437 q 82 568 64 524 q 135 648 100 613 q 220 703 169 682 q 338 724 272 724 q 458 700 406 724 q 547 641 511 677 l 503 578 q 488 563 495 567 q 470 558 481 558 q 445 565 458 558 q 416 581 433 572 q 379 597 400 590 q 328 603 358 603 q 244 579 274 603 q 215 517 215 554 q 236 472 215 489 q 288 441 256 454 q 355 414 319 428 q 422 380 390 401 q 473 327 453 360 q 494 244 494 295 q 477 156 494 198 q 429 80 460 113 q 353 23 398 46 q 253 -8 309 0 l 240 -43 q 314 -80 292 -57 q 335 -134 335 -103 q 322 -182 335 -160 q 286 -217 309 -203 q 231 -240 263 -232 q 161 -247 199 -247 q 113 -243 135 -247 q 69 -232 90 -240 l 91 -178 q 113 -162 97 -162 q 131 -168 122 -162 q 158 -173 140 -173 q 190 -163 180 -173 q 201 -140 201 -153 q 180 -113 201 -122 q 115 -98 159 -105 l 156 -8 q 58 23 101 0 q -12 76 14 45 l 30 142 z "},"ß":{"ha":844,"x_min":46,"x_max":798,"o":"m 172 704 q 226 824 191 767 q 308 925 260 881 q 416 995 356 969 q 544 1021 476 1021 q 663 1000 615 1021 q 741 947 711 978 q 785 877 772 915 q 798 806 798 840 q 783 728 798 760 q 746 672 768 696 q 698 632 724 649 q 650 599 672 615 q 614 566 628 583 q 599 526 599 549 q 613 489 599 505 q 647 459 626 474 q 693 428 668 444 q 738 389 717 412 q 773 334 759 366 q 787 258 787 303 q 763 142 787 192 q 700 58 740 92 q 609 6 660 24 q 502 -11 558 -11 q 445 -5 473 -11 q 391 14 417 2 q 344 42 366 26 q 305 76 322 58 l 351 140 q 370 156 359 150 q 397 163 381 163 q 424 153 412 163 q 451 133 437 144 q 484 113 465 122 q 531 104 503 104 q 569 113 551 104 q 600 136 587 121 q 621 171 613 151 q 628 214 628 191 q 613 262 628 242 q 575 298 598 282 q 525 329 551 314 q 475 364 498 344 q 436 410 451 383 q 421 477 421 437 q 437 556 421 524 q 477 612 453 588 q 529 656 501 636 q 581 695 557 675 q 622 741 606 716 q 638 801 638 765 q 631 839 638 820 q 610 870 624 857 q 575 892 597 884 q 522 901 553 901 q 446 877 480 901 q 386 814 412 853 q 344 724 361 775 q 322 619 328 674 l 250 29 l 215 -101 q 184 -153 204 -135 q 126 -172 164 -172 l 58 -172 l 150 584 l 86 595 q 57 609 67 599 q 49 636 46 618 l 56 704 l 172 704 z "},"ſ":{"ha":403,"x_min":46,"x_max":535,"o":"m 250 29 l 215 -101 q 184 -153 204 -135 q 126 -172 164 -172 l 58 -172 l 149 584 l 86 595 q 57 609 67 599 q 49 636 46 618 l 56 704 l 163 704 l 170 759 q 201 868 178 820 q 261 951 224 917 q 345 1003 297 985 q 451 1021 394 1021 q 495 1017 476 1021 q 535 1006 515 1013 l 519 922 q 501 903 516 906 q 465 901 485 901 q 416 893 438 901 q 379 868 394 885 q 353 822 363 850 q 338 753 342 794 l 250 29 z "},"t":{"ha":508,"x_min":43,"x_max":494,"o":"m 88 145 q 88 157 88 150 q 89 176 88 163 q 93 210 90 189 q 99 265 95 231 l 139 584 l 72 584 q 51 593 59 584 q 46 620 43 602 l 53 688 l 162 707 l 219 901 q 233 923 224 915 q 258 931 243 931 l 349 931 l 322 706 l 494 706 l 479 584 l 306 584 l 268 274 q 263 228 265 245 q 259 202 260 212 q 258 189 258 193 q 258 184 258 185 q 271 142 258 158 q 308 127 284 127 q 333 131 322 127 q 351 139 343 135 q 365 147 358 143 q 376 151 371 151 q 388 147 384 151 q 396 135 392 143 l 433 52 q 348 5 394 21 q 254 -11 302 -11 q 134 30 178 -11 q 88 145 90 71 z "},"ť":{"ha":508,"x_min":43,"x_max":585,"o":"m 560 1033 q 581 1026 576 1033 q 585 1012 585 1019 q 582 996 585 1006 q 571 967 580 987 q 545 913 563 947 q 499 824 528 879 q 474 799 488 804 q 438 794 460 794 l 397 794 l 465 1033 l 560 1033 m 88 145 q 88 157 88 150 q 89 176 88 163 q 93 210 90 189 q 99 265 95 231 l 139 584 l 72 584 q 51 593 59 584 q 46 620 43 602 l 53 688 l 162 707 l 219 901 q 233 923 224 915 q 258 931 243 931 l 349 931 l 322 706 l 494 706 l 479 584 l 306 584 l 268 274 q 263 228 265 245 q 259 202 260 212 q 258 189 258 193 q 258 184 258 185 q 271 142 258 158 q 308 127 284 127 q 333 131 322 127 q 351 139 343 135 q 365 147 358 143 q 376 151 371 151 q 388 147 384 151 q 396 135 392 143 l 433 52 q 348 5 394 21 q 254 -11 302 -11 q 134 30 178 -11 q 88 145 90 71 z "},"ŧ":{"ha":514,"x_min":17,"x_max":499,"o":"m 93 145 q 93 157 93 150 q 94 176 93 163 q 98 210 95 189 q 104 265 100 231 l 118 376 l 49 376 q 27 386 36 376 q 19 413 17 396 l 28 482 l 131 482 l 144 584 l 76 584 q 56 593 64 584 q 51 620 48 602 l 58 688 l 167 707 l 224 901 q 238 923 228 915 q 263 931 248 931 l 354 931 l 326 706 l 499 706 l 484 584 l 311 584 l 299 482 l 469 482 l 455 376 l 285 376 l 273 274 q 267 228 269 245 q 264 202 265 212 q 263 189 263 193 q 263 184 263 185 q 276 142 263 158 q 313 127 289 127 q 338 131 327 127 q 356 139 348 135 q 369 147 363 143 q 381 151 376 151 q 393 147 389 151 q 401 135 397 143 l 438 52 q 353 5 399 21 q 259 -11 307 -11 q 139 30 183 -11 q 93 145 95 71 z "},"u":{"ha":751,"x_min":45,"x_max":706,"o":"m 706 713 l 620 0 l 533 0 q 472 59 472 0 l 476 141 q 358 27 422 65 q 225 -10 294 -10 q 145 8 181 -10 q 87 60 110 26 q 55 145 64 94 q 53 260 45 196 l 107 713 l 278 713 l 225 260 q 232 160 216 190 q 290 130 248 130 q 347 145 318 130 q 403 189 376 160 q 453 257 430 217 q 491 347 476 297 l 535 713 l 706 713 z "},"ų":{"ha":751,"x_min":45,"x_max":706,"o":"m 597 0 q 568 -18 582 -8 q 543 -42 554 -29 q 526 -70 533 -55 q 519 -101 519 -85 q 529 -129 519 -119 q 556 -140 538 -140 q 575 -138 567 -140 q 587 -135 582 -137 q 595 -131 592 -133 q 601 -130 598 -130 q 616 -141 614 -130 l 634 -204 q 577 -230 610 -219 q 508 -240 544 -240 q 417 -214 448 -240 q 386 -148 386 -188 q 416 -66 386 -106 q 503 5 445 -27 q 472 59 472 17 l 476 141 q 358 27 422 65 q 225 -10 294 -10 q 145 8 181 -10 q 87 60 110 26 q 55 145 64 94 q 53 260 45 196 l 107 713 l 278 713 l 225 260 q 232 160 216 190 q 290 130 248 130 q 347 145 318 130 q 403 189 376 160 q 453 257 430 217 q 491 347 476 297 l 535 713 l 706 713 l 620 0 l 597 0 z "},"v":{"ha":683,"x_min":40,"x_max":714,"o":"m 714 713 l 363 0 l 219 0 l 40 713 l 181 713 q 210 703 199 713 q 224 681 221 694 l 298 300 q 307 232 303 265 q 313 165 310 199 q 361 300 333 232 l 531 681 q 550 703 538 694 q 579 713 563 713 l 714 713 z "},"w":{"ha":1025,"x_min":44,"x_max":1047,"o":"m 1047 713 l 752 0 l 619 0 q 593 31 598 0 l 525 442 q 519 496 521 469 q 509 468 514 482 q 499 441 504 455 l 330 31 q 292 0 317 0 l 165 0 l 44 713 l 175 713 q 203 703 192 713 q 217 681 215 694 l 259 300 q 263 240 261 269 q 265 183 264 212 q 287 240 276 212 q 310 300 299 269 l 465 682 q 483 705 471 696 q 512 714 496 714 l 585 714 q 614 705 603 714 q 626 682 625 696 l 685 300 q 693 240 690 269 q 700 182 697 211 q 717 240 708 210 q 737 300 726 269 l 875 681 q 892 703 880 694 q 921 713 905 713 l 1047 713 z "},"x":{"ha":677,"x_min":-56,"x_max":692,"o":"m 442 385 l 625 0 l 469 0 q 442 9 452 0 q 426 31 432 19 l 317 282 q 309 266 313 274 q 301 252 306 259 l 142 31 q 123 10 133 19 q 95 0 112 0 l -56 0 l 227 385 l 63 713 l 218 713 q 243 708 235 713 q 256 691 251 703 l 353 479 q 363 496 358 488 q 374 513 367 504 l 499 688 q 537 713 515 713 l 692 713 l 442 385 z "},"y":{"ha":683,"x_min":42,"x_max":717,"o":"m 717 713 l 246 -197 q 223 -224 236 -215 q 190 -233 210 -233 l 63 -233 l 222 55 l 42 713 l 185 713 q 214 703 204 713 q 226 681 223 694 l 314 311 q 324 240 321 276 q 340 276 332 258 q 356 312 348 294 l 532 681 q 552 704 539 695 q 579 713 565 713 l 717 713 z "},"z":{"ha":601,"x_min":-17,"x_max":596,"o":"m 596 713 l 587 642 q 577 607 585 624 q 559 578 569 590 l 203 132 l 517 132 l 501 0 l -17 0 l -8 72 q 0 100 -8 83 q 19 131 8 117 l 378 581 l 72 581 l 88 713 l 596 713 z "},"ª":{"ha":476,"x_min":85,"x_max":459,"o":"m 328 759 q 266 752 291 758 q 227 739 242 747 q 206 718 212 730 q 199 692 199 706 q 210 667 199 674 q 240 660 221 660 q 282 669 263 660 q 322 699 301 678 l 328 759 m 136 949 q 223 1001 177 985 q 318 1017 268 1017 q 380 1003 353 1017 q 425 967 407 990 q 451 914 443 944 q 455 851 459 884 l 422 584 l 367 584 q 343 589 351 584 q 330 608 335 594 l 325 634 q 293 610 308 620 q 262 592 278 599 q 229 582 247 585 q 191 578 212 578 q 113 604 142 578 q 85 678 85 630 q 96 731 85 704 q 136 779 108 757 q 213 815 165 801 q 337 832 262 830 l 339 851 q 338 878 340 865 q 332 901 337 892 q 317 916 326 910 q 292 922 307 922 q 256 916 270 922 q 230 905 242 911 q 208 894 219 899 q 185 889 198 889 q 164 895 172 889 q 153 910 157 902 l 136 949 z "},"º":{"ha":520,"x_min":92,"x_max":517,"o":"m 333 1016 q 409 1003 375 1016 q 468 965 444 990 q 505 906 492 940 q 517 828 517 871 q 499 724 517 770 q 450 644 481 677 q 374 593 418 611 q 279 576 331 576 q 201 589 236 576 q 142 627 167 602 q 105 686 118 651 q 92 765 92 722 q 110 869 92 823 q 160 948 128 915 q 236 998 192 981 q 333 1016 281 1016 m 291 672 q 366 714 343 672 q 389 828 389 755 q 372 896 389 872 q 322 919 355 919 q 272 908 292 919 q 241 876 252 897 q 225 827 229 856 q 220 763 220 798 q 238 695 220 719 q 291 672 255 672 z "},"ⁿ":{"ha":424,"x_min":72,"x_max":439,"o":"m 208 958 q 262 994 235 980 q 328 1009 290 1009 q 380 999 358 1009 q 416 969 402 988 q 434 925 429 951 q 435 869 439 899 l 406 638 l 292 638 l 320 869 q 281 919 326 919 q 249 912 265 919 q 219 894 234 906 l 188 638 l 72 638 l 117 1003 l 178 1003 q 196 998 190 1003 q 206 981 202 993 l 208 958 z "},"`":{"ha":511,"x_min":165,"x_max":442,"o":"m 314 1015 q 351 1006 339 1015 q 370 978 363 997 l 442 810 l 352 810 q 323 815 334 810 q 303 834 313 820 l 165 1015 l 314 1015 z "},"´":{"ha":511,"x_min":263,"x_max":591,"o":"m 591 1015 l 413 834 q 388 815 399 820 q 358 810 376 810 l 263 810 l 373 978 q 399 1006 385 997 q 438 1015 413 1015 l 591 1015 z "},"ˆ":{"ha":511,"x_min":126,"x_max":567,"o":"m 567 811 l 462 811 q 444 815 453 811 q 427 828 435 819 l 373 901 q 367 908 369 904 q 361 917 365 913 q 353 908 358 913 q 346 901 349 904 l 274 828 q 256 815 265 819 q 236 811 246 811 l 126 811 l 294 1004 l 443 1004 l 567 811 z "},"ˇ":{"ha":511,"x_min":149,"x_max":589,"o":"m 589 1004 l 421 811 l 273 811 l 149 1004 l 258 1004 q 276 1001 267 1004 q 288 992 284 997 l 347 915 q 358 898 353 908 q 367 907 363 903 q 374 915 371 912 l 450 992 q 465 1000 456 997 q 484 1004 474 1004 l 589 1004 z "},"̕":{"ha":0,"x_min":267,"x_max":478,"o":"m 452 1033 q 473 1027 468 1033 q 478 1013 478 1020 q 476 997 478 1006 q 465 969 474 988 q 438 915 456 949 q 391 824 421 881 q 364 799 379 804 q 327 793 349 793 l 267 793 l 337 1033 l 452 1033 z "},"˜":{"ha":511,"x_min":146,"x_max":574,"o":"m 431 944 q 461 955 449 944 q 477 997 474 967 l 574 997 q 555 926 569 958 q 522 872 542 894 q 477 837 502 849 q 423 825 451 825 q 381 834 400 825 q 346 853 362 843 q 316 873 330 864 q 289 882 301 882 q 258 870 270 882 q 243 828 247 858 l 146 828 q 164 899 150 867 q 198 953 178 931 q 243 988 218 976 q 297 1001 269 1001 q 339 992 320 1001 q 375 972 358 983 q 405 953 391 962 q 431 944 418 944 z "},"¯":{"ha":511,"x_min":160,"x_max":554,"o":"m 172 953 l 554 953 l 542 843 l 160 843 l 172 953 z "},"˘":{"ha":511,"x_min":172,"x_max":562,"o":"m 347 806 q 257 822 292 806 q 202 865 222 838 q 177 928 183 892 q 176 1004 172 964 l 287 1004 q 286 967 284 983 q 295 939 288 950 q 319 921 303 927 q 359 915 334 915 q 400 921 383 915 q 427 939 417 927 q 443 967 438 950 q 451 1004 449 983 l 562 1004 q 544 928 558 964 q 505 865 530 892 q 440 822 479 838 q 347 806 401 806 z "},"˚":{"ha":511,"x_min":213,"x_max":506,"o":"m 217 920 q 235 978 220 952 q 271 1024 249 1005 q 319 1053 292 1042 q 374 1063 346 1063 q 428 1053 403 1063 q 471 1024 453 1042 q 498 978 489 1005 q 503 920 506 952 q 485 863 499 889 q 448 819 470 838 q 399 791 426 801 q 342 781 372 781 q 290 791 314 781 q 248 819 265 801 q 222 863 231 838 q 217 920 213 889 m 303 920 q 312 876 299 894 q 353 858 325 858 q 396 876 379 858 q 417 920 413 894 q 406 966 420 949 q 367 983 392 983 q 323 966 339 983 q 303 920 306 949 z "},"˝":{"ha":511,"x_min":187,"x_max":677,"o":"m 454 1015 l 307 834 q 282 815 295 820 q 251 810 269 810 l 187 810 l 287 978 q 312 1006 298 997 q 352 1015 326 1015 l 454 1015 m 677 1015 l 496 834 q 470 815 482 820 q 441 810 459 810 l 366 810 l 499 978 q 525 1006 513 997 q 564 1015 538 1015 l 677 1015 z "},"˙":{"ha":511,"x_min":255,"x_max":468,"o":"m 468 920 q 459 878 468 898 q 434 844 449 859 q 400 821 419 830 q 360 813 381 813 q 320 821 340 813 q 287 844 301 830 q 264 878 272 859 q 255 920 255 898 q 264 963 255 942 q 288 998 273 983 q 321 1021 302 1013 q 360 1030 340 1030 q 401 1021 381 1030 q 435 998 420 1013 q 459 963 450 983 q 468 920 468 943 z "},"¸":{"ha":511,"x_min":115,"x_max":381,"o":"m 286 -43 q 360 -80 339 -57 q 381 -134 381 -103 q 368 -182 381 -160 q 333 -217 356 -203 q 278 -240 310 -232 q 208 -247 246 -247 q 159 -243 181 -247 q 115 -232 137 -240 l 138 -178 q 159 -162 144 -162 q 178 -168 169 -162 q 205 -173 187 -173 q 237 -163 226 -173 q 247 -140 247 -153 q 226 -113 247 -122 q 162 -98 206 -105 l 216 24 l 312 24 l 286 -43 z "},"˛":{"ha":511,"x_min":115,"x_max":363,"o":"m 330 -130 q 344 -141 342 -130 l 363 -204 q 306 -230 339 -219 q 236 -240 272 -240 q 145 -214 176 -240 q 115 -148 115 -188 q 145 -64 115 -104 q 238 8 176 -24 l 325 0 q 297 -18 310 -8 q 272 -42 283 -29 q 255 -70 261 -55 q 248 -101 248 -85 q 257 -129 248 -119 q 285 -140 267 -140 q 303 -138 296 -140 q 315 -135 310 -137 q 323 -131 320 -133 q 330 -130 326 -130 z "},"Γ":{"ha":718,"x_min":53,"x_max":761,"o":"m 744 865 l 340 865 l 233 0 l 53 0 l 176 1003 l 761 1003 l 744 865 z "},"Δ":{"ha":919,"x_min":-58,"x_max":872,"o":"m 194 142 l 656 142 l 528 722 q 517 765 522 741 q 508 819 513 790 q 486 765 497 790 q 465 721 475 740 l 194 142 m 872 0 l -58 0 l 449 1003 l 613 1003 l 872 0 z "},"Θ":{"ha":1046,"x_min":56,"x_max":1009,"o":"m 372 576 l 710 576 l 692 433 l 354 433 l 372 576 m 1009 569 q 991 411 1009 486 q 938 271 972 335 q 856 154 904 206 q 747 65 807 102 q 617 9 687 28 q 469 -11 547 -11 q 297 23 374 -11 q 167 117 221 57 q 85 258 113 176 q 56 434 56 339 q 75 593 56 517 q 127 733 93 668 q 210 849 162 797 q 318 939 258 901 q 449 995 378 976 q 597 1015 519 1015 q 769 981 692 1015 q 899 888 845 947 q 981 746 952 828 q 1009 569 1009 665 m 824 565 q 807 689 824 633 q 758 784 790 744 q 679 845 726 824 q 574 867 633 867 q 438 836 499 867 q 333 749 376 806 q 265 614 289 693 q 241 438 241 535 q 258 315 241 370 q 306 220 274 259 q 384 159 338 181 q 490 138 431 138 q 627 169 565 138 q 733 255 689 199 q 800 389 776 310 q 824 565 824 468 z "},"Λ":{"ha":901,"x_min":-56,"x_max":853,"o":"m 853 0 l 707 0 q 670 11 683 0 q 651 41 657 23 l 517 667 q 503 730 510 696 q 493 801 497 763 q 467 730 481 763 q 438 667 453 696 l 153 41 q 128 13 145 25 q 88 0 110 0 l -56 0 l 440 1003 l 603 1003 l 853 0 z "},"Ξ":{"ha":807,"x_min":0,"x_max":827,"o":"m 827 1003 l 809 855 l 105 855 l 123 1003 l 827 1003 m 722 149 l 703 0 l 0 0 l 18 149 l 722 149 m 231 581 l 615 581 l 596 428 l 211 428 l 231 581 z "},"Π":{"ha":995,"x_min":53,"x_max":961,"o":"m 838 0 l 657 0 l 763 865 l 340 865 l 233 0 l 53 0 l 176 1003 l 961 1003 l 838 0 z "},"Σ":{"ha":788,"x_min":-15,"x_max":812,"o":"m 408 865 q 342 867 371 865 q 284 876 313 870 q 340 836 316 858 q 379 788 364 815 l 487 602 q 505 572 497 584 q 516 550 512 559 q 522 533 520 540 q 522 517 523 525 q 518 499 521 508 q 508 480 515 490 q 490 456 501 469 q 464 424 479 442 l 273 194 q 237 157 254 172 q 199 131 219 142 q 253 136 228 135 q 298 138 277 138 l 706 138 l 689 0 l -15 0 l -7 67 q 8 107 -4 87 q 35 140 19 126 l 367 500 l 113 876 q 101 899 106 886 q 99 926 97 913 l 108 1003 l 812 1003 l 794 865 l 408 865 z "},"Φ":{"ha":1097,"x_min":42,"x_max":1074,"o":"m 606 194 q 723 223 669 195 q 816 299 776 251 q 877 410 855 347 q 899 545 899 473 q 884 648 899 599 q 842 732 869 696 q 773 790 814 769 q 681 813 733 812 l 606 194 m 510 813 q 394 784 447 812 q 301 708 340 756 q 240 597 262 660 q 218 463 218 534 q 233 360 218 408 q 275 275 247 311 q 343 217 303 238 q 435 194 383 195 l 510 813 m 699 952 q 857 919 787 951 q 975 833 926 887 q 1049 707 1023 778 q 1074 553 1074 635 q 1039 360 1074 451 q 939 203 1003 270 q 785 96 874 135 q 589 56 696 56 l 572 -78 l 401 -78 l 418 56 q 259 89 329 56 q 141 175 190 121 q 68 302 93 230 q 42 454 42 374 q 78 647 42 556 q 179 804 115 737 q 332 911 243 872 q 528 952 422 951 l 544 1083 l 715 1083 l 699 952 z "},"Ψ":{"ha":1074,"x_min":71,"x_max":1088,"o":"m 1088 1003 l 1043 644 q 998 484 1032 556 q 909 360 965 413 q 777 278 853 308 q 603 242 700 247 l 573 0 l 392 0 l 422 242 q 257 278 326 247 q 145 360 188 308 q 87 484 103 413 q 82 644 71 556 l 126 1003 l 247 1003 q 289 986 276 1003 q 300 943 303 968 l 263 644 q 260 539 256 585 q 286 461 265 493 q 344 410 306 428 q 440 387 381 392 l 515 1003 l 696 1003 l 620 386 q 723 409 680 391 q 794 460 765 428 q 838 538 822 492 q 862 644 854 584 l 899 943 q 919 986 902 968 q 966 1003 937 1003 l 1088 1003 z "},"Ω":{"ha":981,"x_min":15,"x_max":946,"o":"m 640 149 l 885 149 l 874 56 q 853 16 871 32 q 807 0 835 0 l 483 0 l 525 340 q 617 371 574 349 q 692 430 660 393 q 742 520 724 467 q 760 647 760 574 q 746 742 760 700 q 703 812 731 783 q 636 856 676 841 q 545 871 596 871 q 429 850 481 871 q 341 789 377 829 q 285 691 304 749 q 265 559 265 633 q 278 472 265 510 q 314 408 291 435 q 368 364 337 381 q 437 340 399 347 l 396 0 l 72 0 q 29 16 43 0 q 19 56 15 32 l 30 149 l 275 149 l 288 249 q 199 295 237 265 q 134 365 160 325 q 95 455 108 406 q 82 558 82 503 q 118 738 82 655 q 218 883 154 822 q 371 980 283 944 q 563 1015 459 1015 q 723 986 652 1015 q 843 910 794 958 q 919 795 893 861 q 946 655 946 730 q 926 516 946 582 q 868 398 906 451 q 776 306 831 344 q 652 248 722 267 l 640 149 z "},"α":{"ha":783,"x_min":28,"x_max":772,"o":"m 290 124 q 394 178 344 124 q 488 329 444 232 q 497 428 494 381 q 491 512 499 476 q 463 570 483 549 q 403 592 442 592 q 325 568 363 592 q 259 500 288 543 q 215 400 231 458 q 198 277 198 343 q 290 124 198 124 m 772 713 q 691 479 738 588 q 590 283 644 371 q 591 228 589 253 q 602 184 594 203 q 625 156 610 166 q 664 146 640 146 l 717 146 l 701 51 q 693 31 699 41 q 677 12 688 20 q 649 -2 667 3 q 605 -7 632 -7 q 555 2 576 -7 q 521 29 535 10 q 500 77 508 48 q 489 146 492 106 q 352 30 422 71 q 214 -10 283 -10 q 139 5 173 -10 q 80 53 104 21 q 41 134 55 85 q 28 250 28 183 q 41 374 28 314 q 77 487 53 434 q 133 583 100 540 q 205 658 165 626 q 290 706 244 689 q 383 724 335 724 q 453 713 423 724 q 506 681 483 701 q 544 634 529 661 q 569 574 560 606 q 592 646 582 619 q 611 689 601 674 q 631 708 621 703 q 654 713 641 713 l 772 713 z "},"β":{"ha":737,"x_min":-1,"x_max":681,"o":"m 213 166 q 267 132 235 144 q 334 121 300 121 q 413 138 379 121 q 470 184 447 155 q 505 253 493 214 q 516 337 516 292 q 504 407 516 378 q 472 452 492 435 q 426 476 452 469 q 374 483 401 483 l 334 483 l 350 613 l 369 613 q 482 656 442 613 q 523 783 523 698 q 495 866 523 838 q 422 894 468 894 q 365 881 390 894 q 322 836 340 867 q 292 756 304 805 q 271 635 279 706 l 220 223 l 213 166 m 106 641 q 140 797 116 728 q 204 914 165 866 q 300 988 244 963 q 433 1014 357 1014 q 539 997 492 1014 q 616 950 585 979 q 664 880 648 920 q 681 795 681 840 q 640 645 681 708 q 522 553 600 583 q 640 475 599 531 q 681 338 681 418 q 657 201 681 265 q 592 91 634 138 q 493 17 551 44 q 365 -10 435 -10 q 276 7 319 -10 q 200 58 232 23 l 189 -32 l 153 -163 q 123 -215 142 -197 q 65 -234 103 -234 l -1 -234 l 54 227 l 106 641 z "},"γ":{"ha":724,"x_min":44,"x_max":749,"o":"m 749 713 q 686 551 724 634 q 602 386 648 468 q 504 226 556 304 q 401 77 453 147 l 363 -233 l 197 -233 l 235 68 q 229 202 233 136 q 216 326 224 267 q 195 434 208 385 q 164 520 183 484 q 120 576 145 556 q 64 597 96 597 l 44 597 l 51 657 q 58 682 53 670 q 71 701 62 693 q 96 714 81 709 q 137 718 112 718 q 245 683 201 718 q 317 583 290 647 q 356 427 344 518 q 367 225 367 336 q 423 330 397 275 q 473 441 450 385 q 515 553 496 497 q 548 660 533 609 q 571 701 556 690 q 608 713 586 713 l 749 713 z "},"δ":{"ha":724,"x_min":26,"x_max":676,"o":"m 325 115 q 395 132 363 115 q 453 179 428 148 q 491 253 477 210 q 505 352 505 297 q 495 426 505 392 q 468 486 485 459 q 429 536 451 514 q 381 579 406 559 q 312 540 345 563 q 253 481 278 516 q 213 398 228 446 q 197 288 197 351 q 205 222 197 253 q 228 167 213 190 q 268 129 244 143 q 325 115 292 115 m 651 882 q 635 853 645 860 q 605 847 625 847 q 573 852 594 847 q 526 866 553 858 q 470 879 500 873 q 410 885 440 885 q 349 868 368 885 q 331 828 331 851 q 345 791 331 809 q 384 755 360 774 q 438 716 408 737 q 501 670 469 695 q 564 616 533 646 q 618 548 594 585 q 657 463 642 510 q 672 358 672 416 q 646 211 672 278 q 573 95 620 144 q 460 19 526 47 q 312 -9 394 -9 q 191 13 244 -9 q 101 74 138 35 q 45 165 65 113 q 26 280 26 218 q 308 633 26 549 q 258 673 282 653 q 215 715 233 692 q 185 765 197 738 q 174 825 174 792 q 192 902 174 867 q 242 961 210 937 q 322 1000 275 986 q 428 1013 369 1013 q 489 1011 456 1013 q 555 1004 522 1008 q 619 994 588 999 q 676 982 651 988 l 651 882 z "},"ε":{"ha":592,"x_min":19,"x_max":577,"o":"m 533 575 q 513 556 522 560 q 492 551 504 551 q 471 559 482 551 q 445 575 460 567 q 407 592 429 584 q 352 599 385 599 q 262 573 293 599 q 231 506 231 547 q 259 447 231 471 q 344 424 288 424 l 450 424 l 437 316 l 331 316 q 222 287 255 316 q 189 207 189 258 q 215 141 189 167 q 290 115 240 115 q 353 125 328 115 q 397 148 378 135 q 431 170 416 160 q 460 181 445 181 q 489 166 480 181 l 529 105 q 464 50 498 72 q 394 15 429 28 q 327 -3 360 2 q 265 -9 294 -9 q 170 5 215 -9 q 92 44 126 18 q 39 106 58 69 q 19 188 19 142 q 59 301 19 251 q 181 372 100 350 q 128 400 149 383 q 94 435 107 416 q 76 476 81 455 q 70 518 70 497 q 90 594 70 558 q 145 660 109 631 q 235 706 182 688 q 354 723 288 723 q 487 699 430 723 q 577 635 544 674 l 533 575 z "},"ζ":{"ha":517,"x_min":26,"x_max":599,"o":"m 597 949 q 595 923 599 935 q 583 895 592 910 q 555 861 573 881 q 506 815 536 842 q 442 755 477 788 q 372 684 407 722 q 304 604 337 647 q 246 516 272 562 q 206 419 221 469 q 190 317 190 369 q 199 261 190 285 q 224 218 207 237 q 266 185 241 199 q 325 159 292 171 q 405 121 373 141 q 455 80 436 101 q 482 34 474 58 q 490 -15 490 10 q 468 -118 490 -67 q 406 -226 447 -169 l 284 -176 q 299 -151 291 -165 q 315 -123 308 -137 q 327 -93 322 -108 q 331 -64 331 -78 q 327 -42 331 -53 q 310 -19 322 -31 q 277 4 298 -8 q 222 28 256 16 q 138 67 174 44 q 76 118 101 89 q 39 185 51 148 q 26 271 26 223 q 57 434 26 356 q 141 586 88 511 q 267 736 194 661 q 424 889 340 810 q 345 876 388 881 q 248 870 302 870 l 199 870 q 167 875 180 870 q 148 888 155 880 q 138 905 141 896 q 137 924 135 915 l 147 1003 l 592 1003 l 597 949 z "},"η":{"ha":764,"x_min":33,"x_max":703,"o":"m 40 663 q 64 702 43 685 q 131 719 85 719 q 187 710 161 719 q 233 685 213 702 q 264 642 252 668 q 277 580 275 616 q 393 688 330 653 q 522 724 456 724 q 602 706 567 724 q 661 653 638 688 q 693 568 684 619 q 694 453 703 518 l 610 -233 l 444 -233 l 529 453 q 521 553 538 523 q 458 583 503 583 q 411 572 435 583 q 363 541 387 561 q 318 492 340 521 q 279 426 297 463 l 227 0 l 63 0 l 124 505 q 115 575 130 553 q 65 598 99 598 l 33 598 l 40 663 z "},"θ":{"ha":785,"x_min":63,"x_max":737,"o":"m 224 456 q 222 374 222 416 q 257 181 222 244 q 356 118 291 118 q 497 205 443 118 q 569 456 551 292 l 224 456 m 576 568 q 577 600 577 584 q 578 633 578 616 q 544 825 578 762 q 449 888 511 888 q 307 805 360 888 q 233 568 253 722 l 576 568 m 459 1015 q 574 989 522 1015 q 661 910 625 962 q 717 784 697 859 q 737 615 737 710 q 708 348 737 464 q 627 152 679 231 q 503 31 575 72 q 345 -10 431 -10 q 228 17 281 -10 q 139 95 176 44 q 83 222 103 147 q 63 392 63 297 q 92 659 63 542 q 174 854 122 775 q 299 974 226 933 q 459 1015 372 1015 z "},"ι":{"ha":365,"x_min":42,"x_max":335,"o":"m 110 712 l 276 712 l 213 208 q 222 138 208 162 q 274 114 235 114 l 335 114 l 328 63 q 314 33 326 46 q 282 10 301 19 q 239 -3 263 1 q 193 -8 216 -8 q 121 8 151 -8 q 73 51 91 23 q 48 116 54 78 q 47 199 42 154 l 110 712 z "},"λ":{"ha":709,"x_min":-36,"x_max":670,"o":"m 670 113 l 662 48 q 636 2 658 13 q 581 -8 615 -8 q 516 -1 544 -8 q 465 26 487 6 q 426 84 442 47 q 400 183 410 122 l 366 344 q 357 418 359 388 q 353 473 354 449 q 333 420 344 448 q 308 360 322 392 l 157 31 q 139 9 151 18 q 103 0 126 0 l -36 0 l 297 642 l 263 820 q 252 854 258 840 q 236 876 247 868 q 211 888 226 885 q 173 892 196 892 l 129 892 l 137 952 q 144 976 138 965 q 161 995 149 987 q 192 1008 173 1003 q 238 1013 210 1013 q 291 1007 264 1013 q 341 987 318 1001 q 383 947 365 972 q 409 881 401 921 l 554 183 q 578 130 561 147 q 632 113 594 113 l 670 113 z "},"μ":{"ha":783,"x_min":3,"x_max":744,"o":"m 744 119 l 736 51 q 726 29 735 40 q 703 11 717 19 q 668 -2 688 3 q 624 -7 648 -7 q 572 1 597 -7 q 529 26 548 9 q 498 68 510 42 q 480 128 485 93 q 393 41 439 72 q 292 10 347 10 q 184 47 223 10 q 185 -11 186 19 q 180 -66 183 -40 l 160 -233 l 74 -233 q 21 -214 38 -233 q 8 -161 3 -196 l 115 713 l 286 713 l 235 292 q 248 188 227 227 q 320 149 269 149 q 406 178 369 149 q 469 259 442 207 l 525 713 l 697 713 l 635 210 q 645 141 629 163 q 695 119 662 119 l 744 119 z "},"ν":{"ha":674,"x_min":40,"x_max":699,"o":"m 699 712 q 628 525 670 620 q 537 338 587 430 q 430 160 487 246 q 315 0 374 74 l 213 0 l 40 712 l 176 712 q 206 703 194 712 q 220 681 217 694 l 292 290 q 302 235 298 263 q 308 181 306 208 q 370 293 342 233 q 423 415 399 352 q 467 541 447 477 q 503 664 487 604 q 526 701 511 690 q 557 712 540 712 l 699 712 z "},"ξ":{"ha":519,"x_min":26,"x_max":590,"o":"m 581 935 q 573 909 580 920 q 556 889 566 897 q 534 877 546 881 q 509 873 522 873 l 449 873 q 374 859 408 873 q 317 822 340 846 q 281 766 294 798 q 268 696 268 733 q 305 618 268 644 q 411 591 342 591 l 476 591 l 461 463 l 360 463 q 284 450 316 463 q 232 415 253 437 q 202 362 212 392 q 193 295 193 331 q 202 247 193 268 q 232 208 212 226 q 282 174 251 190 q 356 139 313 157 q 447 75 419 113 q 474 -10 474 38 q 452 -116 474 -64 q 389 -226 431 -168 l 267 -176 q 283 -152 274 -165 q 298 -123 291 -138 q 309 -93 305 -108 q 314 -64 314 -78 q 300 -20 314 -40 q 247 11 285 -1 q 156 51 197 28 q 86 107 115 75 q 41 178 57 138 q 26 267 26 217 q 35 341 26 302 q 67 416 45 379 q 126 483 90 452 q 217 533 163 514 q 138 590 163 553 q 114 676 114 626 q 127 746 114 715 q 163 802 140 777 q 214 847 185 827 q 276 880 243 866 l 178 880 q 127 897 140 880 q 117 943 114 914 l 125 1003 l 590 1003 l 581 935 z "},"π":{"ha":817,"x_min":1,"x_max":817,"o":"m 807 629 q 789 592 804 607 q 747 576 773 576 l 663 576 q 653 526 658 553 q 646 464 649 499 q 641 382 643 428 q 640 276 640 336 q 643 195 640 226 q 654 147 647 164 q 672 125 661 131 q 694 119 682 119 l 725 119 l 717 51 q 705 27 715 38 q 680 9 695 17 q 646 -2 665 2 q 606 -6 626 -6 q 495 43 531 -6 q 460 178 460 92 q 466 260 460 220 q 483 345 473 299 q 507 446 494 390 q 533 576 520 502 l 343 576 q 307 367 326 457 q 269 213 289 277 q 227 106 249 148 q 180 38 205 63 q 127 3 155 13 q 67 -6 99 -6 q 45 -5 57 -6 q 24 1 33 -3 q 8 12 14 6 q 3 26 1 18 l 17 141 l 31 141 q 73 164 51 141 q 115 239 94 188 q 156 374 136 291 q 194 576 176 457 l 63 576 l 72 649 q 79 669 74 658 q 94 689 85 680 q 116 704 103 698 q 144 710 128 710 l 817 710 l 807 629 z "},"ρ":{"ha":737,"x_min":-11,"x_max":688,"o":"m 207 194 q 265 134 231 153 q 332 115 299 115 q 403 135 369 115 q 462 193 437 154 q 502 289 488 231 q 517 421 517 346 q 484 553 517 512 q 397 594 451 594 q 341 582 368 594 q 291 543 313 569 q 253 476 269 517 q 230 381 237 436 l 207 194 m 64 375 q 175 634 85 544 q 413 724 265 724 q 522 702 472 724 q 609 641 572 681 q 667 543 646 601 q 688 415 688 486 q 661 249 688 326 q 590 114 635 172 q 483 23 544 56 q 352 -10 422 -10 q 263 10 304 -10 q 191 65 222 30 l 154 -233 l -11 -233 l 64 375 z "},"σ":{"ha":797,"x_min":31,"x_max":835,"o":"m 441 585 q 332 565 377 585 q 257 508 286 546 q 214 416 228 471 q 201 290 201 361 q 234 161 201 206 q 333 117 267 117 q 477 198 429 117 q 524 428 524 278 q 521 478 524 453 q 511 523 518 502 q 494 560 504 544 q 469 585 483 576 l 441 585 m 835 711 l 826 639 q 807 600 823 616 q 757 585 791 585 l 610 585 q 668 503 647 551 q 690 394 690 456 q 663 233 690 308 q 586 105 635 159 q 468 20 536 51 q 319 -10 400 -10 q 199 11 253 -10 q 108 72 146 32 q 51 167 71 111 q 31 293 31 223 q 62 464 31 387 q 150 596 94 541 q 286 681 207 651 q 461 711 365 711 l 835 711 z "},"ς":{"ha":611,"x_min":35,"x_max":621,"o":"m 569 565 q 553 550 561 555 q 533 544 546 544 q 509 553 520 544 q 484 571 499 561 q 449 589 469 581 q 397 597 428 597 q 318 578 353 597 q 258 524 283 558 q 220 444 233 490 q 207 344 207 398 q 219 267 207 297 q 253 215 231 236 q 310 178 276 194 q 386 145 343 163 q 448 114 423 131 q 489 79 474 98 q 511 39 504 60 q 517 -10 517 17 q 496 -115 517 -63 q 433 -226 475 -167 l 310 -176 q 326 -151 318 -165 q 342 -122 335 -137 q 353 -91 349 -107 q 358 -60 358 -75 q 355 -39 358 -49 q 344 -20 352 -29 q 321 -2 335 -11 q 283 15 306 6 q 190 56 235 33 q 111 114 145 78 q 56 201 76 149 q 35 328 35 252 q 59 483 35 410 q 131 608 84 555 q 246 692 178 662 q 400 723 314 723 q 528 698 474 723 q 621 624 581 672 l 569 565 z "},"τ":{"ha":615,"x_min":28,"x_max":633,"o":"m 626 643 q 606 600 622 615 q 562 585 589 585 l 384 585 l 338 210 q 347 139 333 163 q 399 115 360 115 l 460 115 l 453 65 q 439 34 451 47 q 407 12 426 21 q 364 -2 388 3 q 318 -6 341 -6 q 246 9 276 -6 q 198 52 216 25 q 173 118 179 80 q 172 201 167 156 l 219 585 l 28 585 l 38 656 q 56 692 40 676 q 99 708 72 708 l 633 708 l 626 643 z "},"υ":{"ha":722,"x_min":44,"x_max":667,"o":"m 665 712 q 666 671 665 694 q 666 625 666 648 q 667 581 667 601 q 667 546 667 560 q 634 282 667 389 q 548 110 601 176 q 427 17 494 45 q 292 -11 360 -11 q 178 8 227 -11 q 99 61 130 26 q 57 147 69 97 q 52 259 44 197 l 108 712 l 274 712 l 218 259 q 238 155 210 192 q 319 118 267 118 q 382 134 350 118 q 441 190 415 150 q 484 296 467 229 q 501 464 501 363 q 501 509 501 485 q 499 559 500 533 q 498 610 499 585 q 498 658 498 635 q 504 683 499 672 q 517 700 509 693 q 533 709 524 706 q 550 712 542 712 l 665 712 z "},"φ":{"ha":1003,"x_min":32,"x_max":957,"o":"m 538 112 q 644 136 597 113 q 724 202 691 160 q 774 300 756 244 q 791 422 791 356 q 784 497 791 463 q 762 553 776 530 q 726 589 747 576 q 678 601 706 601 q 616 574 642 601 q 583 483 590 546 l 538 112 m 428 483 q 512 665 443 607 q 688 723 581 723 q 800 700 750 723 q 884 638 849 678 q 938 543 919 597 q 957 425 957 488 q 924 247 957 327 q 832 110 890 167 q 694 22 774 53 q 522 -10 615 -10 l 495 -233 l 340 -233 l 367 -10 q 228 15 290 -9 q 123 82 167 40 q 56 183 79 124 q 32 312 32 242 q 53 448 32 385 q 112 562 74 510 q 202 653 150 614 q 317 719 255 693 l 356 652 q 360 633 360 643 q 357 614 360 623 q 346 597 353 605 q 331 585 339 590 q 233 480 269 548 q 197 319 197 411 q 209 236 197 274 q 245 172 222 199 q 303 129 269 144 q 382 112 338 113 l 428 483 z "},"χ":{"ha":635,"x_min":-70,"x_max":666,"o":"m 472 -55 q 482 -85 476 -72 q 497 -107 488 -99 q 519 -120 506 -116 q 551 -124 532 -124 l 576 -124 l 567 -190 q 561 -218 565 -207 q 549 -235 557 -229 q 529 -244 542 -242 q 499 -246 517 -246 q 440 -240 467 -246 q 390 -219 413 -235 q 350 -175 367 -203 q 320 -102 332 -147 l 258 126 q 247 89 253 107 q 234 56 241 71 l 99 -201 q 81 -223 93 -213 q 49 -232 69 -232 l -70 -232 l 205 265 l 135 528 q 121 563 128 549 q 104 585 114 576 q 80 597 94 593 q 44 600 65 600 l 20 600 l 28 660 q 32 683 30 672 q 40 703 33 694 q 60 716 46 711 q 99 721 74 721 q 164 714 135 721 q 216 692 193 708 q 255 651 238 676 q 281 590 271 626 l 343 360 q 355 399 349 381 q 367 432 360 417 l 497 681 q 515 703 503 694 q 547 713 527 713 l 666 713 l 397 226 l 472 -55 z "},"ψ":{"ha":1020,"x_min":50,"x_max":967,"o":"m 963 713 q 964 672 963 694 q 965 625 965 649 q 966 581 966 601 q 967 546 967 560 q 951 363 967 442 q 907 224 935 283 q 840 123 879 164 q 754 55 801 81 q 653 14 707 28 q 542 -6 599 -1 l 514 -233 l 349 -233 l 376 -8 q 218 27 283 0 q 115 100 153 55 q 63 207 76 145 q 60 345 50 269 l 105 713 l 219 713 q 238 707 230 713 q 252 693 247 701 q 261 673 258 684 q 262 649 263 661 l 225 345 q 257 195 213 249 q 392 125 301 140 l 501 1003 l 665 1003 l 558 123 q 660 149 615 129 q 735 210 705 169 q 781 315 765 251 q 797 474 797 379 q 795 526 797 502 q 792 573 793 551 q 790 616 790 595 q 790 658 789 637 q 810 700 794 688 q 843 713 826 713 l 963 713 z "},"ω":{"ha":1030,"x_min":35,"x_max":978,"o":"m 934 713 q 952 647 944 682 q 966 575 960 612 q 975 503 972 539 q 978 435 978 467 q 955 255 978 337 q 889 114 931 173 q 789 22 847 55 q 662 -11 731 -11 q 590 -1 621 -11 q 536 26 559 8 q 499 67 514 43 q 476 118 484 90 q 439 67 460 90 q 392 26 418 43 q 333 -1 365 8 q 260 -11 300 -11 q 165 12 207 -11 q 94 76 123 35 q 50 173 65 117 q 35 296 35 229 q 45 406 35 352 q 72 513 55 460 q 113 615 90 565 q 165 713 137 665 l 272 713 q 295 708 283 713 q 313 695 306 704 q 317 671 319 686 q 301 635 316 656 q 267 576 284 609 q 235 504 249 544 q 212 415 221 464 q 203 308 203 367 q 211 217 203 253 q 232 159 219 181 q 261 127 244 137 q 294 118 277 118 q 341 132 321 118 q 377 171 362 146 q 401 231 392 197 q 417 308 411 266 l 438 479 l 603 479 l 582 308 l 583 308 q 579 231 578 266 q 588 171 580 197 q 613 132 597 146 q 656 118 630 118 q 709 132 682 118 q 758 178 736 145 q 795 265 781 210 q 810 401 810 319 q 805 473 810 436 q 793 542 800 509 q 780 600 787 574 q 767 640 772 626 q 765 674 761 660 q 776 697 768 688 q 796 709 785 705 q 815 713 807 713 l 934 713 z "},"΄":{"ha":511,"x_min":297,"x_max":495,"o":"m 297 794 l 363 1049 l 460 1049 q 489 1034 483 1049 q 484 994 495 1019 l 389 794 l 297 794 z "},"΅":{"ha":511,"x_min":135,"x_max":631,"o":"m 297 799 l 362 1055 l 459 1055 q 487 1040 481 1055 q 483 999 493 1025 l 388 799 l 297 799 m 629 899 q 620 870 628 883 q 602 846 613 856 q 577 830 591 835 q 549 824 563 824 q 522 830 534 824 q 501 846 509 835 q 488 870 492 856 q 485 899 484 883 q 494 930 488 916 q 513 955 501 944 q 538 972 524 966 q 566 978 551 978 q 593 972 581 978 q 614 955 606 966 q 627 930 623 944 q 629 899 631 916 m 281 899 q 273 870 280 883 q 254 846 265 856 q 229 830 243 835 q 200 824 215 824 q 173 830 185 824 q 152 846 161 835 q 140 870 144 856 q 138 899 135 883 q 147 930 140 916 q 165 955 154 944 q 189 972 176 966 q 217 978 203 978 q 244 972 232 978 q 266 955 257 966 q 279 930 275 944 q 281 899 283 916 z "},"ʹ":{"ha":290,"x_min":97,"x_max":336,"o":"m 324 1051 q 294 832 336 938 q 158 636 251 726 l 110 668 q 97 691 97 678 q 105 713 97 703 q 144 765 126 740 q 171 816 162 790 q 180 868 181 841 q 163 927 178 896 l 173 1008 q 187 1039 176 1027 q 222 1051 199 1051 l 324 1051 z "},"͵":{"ha":293,"x_min":7,"x_max":247,"o":"m 235 255 q 204 35 247 141 q 69 -160 162 -70 l 21 -128 q 7 -106 7 -119 q 15 -83 8 -93 q 55 -31 37 -56 q 82 19 72 -6 q 90 72 91 44 q 74 131 89 99 l 83 212 q 98 243 86 231 q 132 255 109 255 l 235 255 z "},"Б":{"ha":820,"x_min":53,"x_max":809,"o":"m 287 446 l 250 140 l 396 140 q 479 153 444 140 q 536 190 514 166 q 569 247 558 213 q 580 323 580 281 q 572 374 580 351 q 547 413 565 397 q 502 437 530 428 q 433 446 474 446 l 287 446 m 338 864 l 304 586 l 451 586 q 592 567 533 586 q 688 516 651 549 q 743 440 726 484 q 760 347 760 397 q 734 206 760 269 q 658 96 708 142 q 538 25 608 50 q 378 0 467 0 l 53 0 l 176 1003 l 809 1003 l 792 864 l 338 864 z "},"Г":{"ha":704,"x_min":53,"x_max":749,"o":"m 731 865 l 340 865 l 233 0 l 53 0 l 176 1003 l 749 1003 l 731 865 z "},"Ґ":{"ha":704,"x_min":53,"x_max":776,"o":"m 731 865 l 340 865 l 233 0 l 53 0 l 176 1003 l 610 1003 l 637 1227 l 776 1227 l 731 865 z "},"Д":{"ha":1042,"x_min":-67,"x_max":978,"o":"m 655 138 l 744 865 l 501 865 q 447 597 474 714 q 390 393 419 481 q 332 243 362 305 q 272 138 302 181 l 655 138 m 939 -187 q 918 -225 935 -210 q 876 -240 901 -240 l 767 -240 l 797 0 l 128 0 l 105 -187 q 84 -225 102 -210 q 42 -240 67 -240 l -67 -240 l -20 138 l 77 138 q 117 171 96 149 q 160 235 138 193 q 205 340 182 276 q 251 497 228 404 q 299 715 275 590 q 348 1003 324 840 l 942 1003 l 836 138 l 978 138 l 939 -187 z "},"Ж":{"ha":1378,"x_min":-49,"x_max":1419,"o":"m 1138 615 q 1092 563 1115 583 q 1038 530 1069 542 q 1096 493 1072 517 q 1139 426 1121 468 l 1322 0 l 1203 0 q 1138 17 1163 0 q 1099 63 1112 33 l 956 389 q 924 432 943 419 q 873 444 904 444 l 776 444 l 721 0 l 551 0 l 606 444 l 510 444 q 456 432 479 444 q 413 389 433 419 l 191 63 q 141 17 171 33 q 72 0 110 0 l -49 0 l 240 426 q 298 493 268 468 q 365 530 328 517 q 320 563 338 542 q 286 615 302 583 l 101 1004 l 243 1004 q 292 991 270 1004 q 324 953 314 977 l 467 631 q 499 590 480 600 q 544 581 517 581 l 623 581 l 675 1004 l 844 1004 l 792 581 l 873 581 q 920 590 899 581 q 962 631 941 600 l 1183 953 q 1225 991 1200 977 q 1276 1004 1250 1004 l 1419 1004 l 1138 615 z "},"З":{"ha":756,"x_min":-19,"x_max":717,"o":"m 111 909 q 256 986 176 958 q 427 1014 337 1014 q 550 997 497 1014 q 641 948 604 979 q 697 874 678 917 q 717 780 717 831 q 674 631 717 696 q 547 531 631 565 q 649 447 613 500 q 686 324 686 394 q 660 194 686 256 q 585 88 633 133 q 467 17 536 43 q 313 -10 398 -10 q 212 0 260 -10 q 120 27 163 10 q 42 69 78 45 q -19 124 6 94 l 44 208 q 63 224 51 217 q 87 231 74 231 q 110 224 99 231 q 136 207 122 217 q 167 184 150 197 q 206 162 184 172 q 256 145 228 152 q 319 138 284 138 q 465 186 413 138 q 516 322 516 233 q 474 419 516 383 q 352 456 432 456 l 224 456 l 242 601 l 360 601 q 497 640 448 601 q 546 753 546 680 q 511 836 546 805 q 404 868 476 868 q 323 857 358 868 q 261 832 288 846 q 215 808 235 819 q 182 797 196 797 q 160 803 168 797 q 145 824 151 810 l 111 909 z "},"И":{"ha":995,"x_min":53,"x_max":961,"o":"m 961 1004 l 838 0 l 657 0 l 733 623 q 744 697 738 658 q 763 778 751 735 q 725 707 744 740 q 687 649 705 674 l 274 56 q 257 36 267 46 q 237 18 248 26 q 213 5 226 10 q 188 0 201 0 l 53 0 l 176 1004 l 357 1004 l 281 381 q 269 309 276 347 q 252 228 263 271 q 289 298 270 266 q 326 355 308 331 l 739 949 q 756 969 747 959 q 777 986 766 978 q 800 999 788 994 q 825 1004 813 1004 l 961 1004 z "},"К":{"ha":902,"x_min":53,"x_max":946,"o":"m 650 600 q 607 557 631 574 q 556 530 583 540 q 618 493 594 518 q 662 425 642 469 l 846 0 l 682 0 q 642 14 657 0 q 615 53 626 27 l 468 395 q 438 434 456 424 q 389 444 421 444 l 287 444 l 233 0 l 53 0 l 176 1004 l 356 1004 l 303 581 l 390 581 q 435 590 415 581 q 475 626 455 600 l 711 956 q 747 991 727 977 q 792 1004 767 1004 l 946 1004 l 650 600 z "},"Л":{"ha":965,"x_min":-48,"x_max":931,"o":"m 808 0 l 626 0 l 733 865 l 490 865 q 424 537 458 676 q 356 301 391 399 q 284 143 321 204 q 208 48 247 83 q 127 2 169 14 q 41 -10 85 -10 q -27 -2 -7 -10 q -46 24 -48 7 l -32 136 l 19 136 q 52 141 35 136 q 87 159 69 145 q 125 199 106 173 q 165 269 144 225 q 206 376 185 313 q 249 530 227 440 q 292 736 270 619 q 337 1003 315 853 l 931 1003 l 808 0 z "},"Љ":{"ha":1375,"x_min":-48,"x_max":1333,"o":"m 968 140 q 1051 153 1017 140 q 1108 190 1086 166 q 1141 247 1131 213 q 1152 323 1152 281 q 1144 374 1152 351 q 1119 413 1137 397 q 1074 437 1102 428 q 1005 446 1046 446 l 863 446 l 825 140 l 968 140 m 1023 586 q 1164 567 1106 586 q 1260 516 1223 549 q 1315 440 1298 484 q 1333 347 1333 397 q 1306 206 1333 269 q 1230 96 1280 142 q 1110 25 1181 50 q 950 0 1039 0 l 626 0 l 733 865 l 490 865 q 424 537 458 676 q 356 301 391 399 q 284 143 321 204 q 208 48 247 83 q 127 2 169 14 q 41 -10 85 -10 q -27 -2 -7 -10 q -46 24 -48 7 l -32 136 l 19 136 q 52 141 35 136 q 87 159 69 145 q 125 199 106 173 q 165 269 144 225 q 206 376 185 313 q 249 530 227 440 q 292 736 270 619 q 337 1003 315 853 l 931 1003 l 879 586 l 1023 586 z "},"Њ":{"ha":1406,"x_min":53,"x_max":1363,"o":"m 999 140 q 1082 153 1047 140 q 1139 190 1117 166 q 1172 247 1161 213 q 1183 323 1183 281 q 1175 374 1183 351 q 1150 413 1167 397 q 1104 437 1132 428 q 1035 446 1076 446 l 894 446 l 856 140 l 999 140 m 1053 586 q 1195 567 1136 586 q 1291 516 1253 549 q 1345 440 1328 484 q 1363 347 1363 397 q 1336 206 1363 269 q 1260 96 1310 142 q 1140 25 1211 50 q 981 0 1069 0 l 657 0 l 712 441 l 289 441 l 235 0 l 53 0 l 177 1004 l 358 1004 l 305 569 l 727 569 l 781 1004 l 963 1004 l 911 586 l 1053 586 z "},"Ѳ":{"ha":1046,"x_min":56,"x_max":1009,"o":"m 241 438 q 258 315 241 370 q 306 220 274 259 q 384 159 338 181 q 490 138 431 138 q 606 159 553 138 q 701 220 660 181 q 772 316 743 260 q 813 443 800 372 l 241 443 l 241 438 m 824 576 q 805 696 823 642 q 755 788 788 749 q 677 846 723 826 q 574 867 631 867 q 461 847 513 867 q 369 789 410 826 q 299 698 328 751 q 255 576 269 644 l 824 576 m 597 1015 q 769 981 692 1015 q 899 888 845 947 q 981 746 952 828 q 1009 569 1009 665 q 991 411 1009 486 q 938 271 972 335 q 856 154 904 206 q 747 65 807 102 q 617 9 687 28 q 469 -11 547 -11 q 297 23 374 -11 q 167 117 221 57 q 85 258 113 176 q 56 434 56 339 q 75 593 56 517 q 127 733 93 668 q 210 849 162 797 q 318 939 258 901 q 449 995 378 976 q 597 1015 519 1015 z "},"П":{"ha":963,"x_min":53,"x_max":929,"o":"m 806 0 l 625 0 l 731 865 l 340 865 l 233 0 l 53 0 l 176 1003 l 929 1003 l 806 0 z "},"У":{"ha":843,"x_min":63,"x_max":915,"o":"m 915 1003 l 436 138 q 384 65 410 94 q 331 19 358 36 q 276 -4 303 3 q 219 -10 248 -10 q 141 0 166 -10 q 120 38 117 11 l 132 136 l 182 136 q 216 139 201 136 q 246 151 232 142 q 274 175 260 160 q 301 215 287 190 l 348 298 l 63 1003 l 227 1003 q 263 992 251 1003 q 283 963 275 981 l 409 583 q 427 517 419 550 q 440 451 435 485 q 469 517 453 485 q 501 583 484 550 l 698 963 q 724 991 707 978 q 763 1003 740 1003 l 915 1003 z "},"Ѵ":{"ha":926,"x_min":65,"x_max":978,"o":"m 685 860 q 771 973 718 935 q 907 1010 824 1010 q 945 1008 931 1010 q 967 1001 960 1006 q 977 987 975 996 q 976 965 978 978 l 964 864 l 928 864 q 839 792 872 864 l 478 0 l 315 0 l 65 1003 l 206 1003 q 244 992 230 1003 q 262 963 258 981 l 396 338 q 410 274 403 308 q 420 202 416 240 q 447 274 433 240 q 475 338 460 308 l 685 860 z "},"Ф":{"ha":1040,"x_min":50,"x_max":1015,"o":"m 585 259 q 684 285 638 260 q 763 350 729 309 q 816 444 797 390 q 835 560 835 499 q 822 648 835 607 q 785 720 809 690 q 727 770 762 751 q 651 790 693 788 l 585 259 m 480 790 q 382 764 427 788 q 302 699 336 740 q 250 604 269 658 q 231 489 231 550 q 243 401 231 442 q 280 328 256 360 q 338 279 304 297 q 415 259 372 260 l 480 790 m 667 929 q 809 896 745 926 q 919 818 874 867 q 990 704 965 769 q 1015 567 1015 640 q 999 451 1015 507 q 954 345 983 394 q 884 256 925 297 q 794 186 844 215 q 687 139 744 156 q 568 119 630 122 l 553 0 l 383 0 l 398 119 q 255 152 319 122 q 145 231 191 182 q 75 345 100 281 q 50 483 50 410 q 66 599 50 543 q 111 704 82 655 q 181 793 140 753 q 271 864 222 834 q 378 910 321 893 q 497 929 435 927 l 511 1047 l 682 1047 l 667 929 z "},"Ц":{"ha":1024,"x_min":53,"x_max":954,"o":"m 954 138 l 915 -187 q 893 -225 911 -210 q 851 -240 876 -240 l 743 -240 l 772 0 l 53 0 l 176 1003 l 357 1003 l 251 138 l 642 138 l 748 1003 l 929 1003 l 823 138 l 954 138 z "},"Џ":{"ha":963,"x_min":53,"x_max":929,"o":"m 929 1003 l 806 0 l 512 0 l 489 -187 q 468 -225 485 -210 q 426 -240 450 -240 l 317 -240 l 347 0 l 53 0 l 176 1003 l 357 1003 l 251 138 l 642 138 l 748 1003 l 929 1003 z "},"Ч":{"ha":877,"x_min":74,"x_max":842,"o":"m 842 1003 l 719 0 l 538 0 l 588 406 q 440 376 510 386 q 311 369 370 366 q 205 390 251 372 q 128 444 158 408 q 86 537 98 481 q 84 673 74 593 l 124 1003 l 306 1003 l 265 673 q 269 574 257 613 q 321 517 282 535 q 429 503 360 499 q 603 534 498 507 l 661 1003 l 842 1003 z "},"Ш":{"ha":1397,"x_min":53,"x_max":1363,"o":"m 1363 1003 l 1240 0 l 53 0 l 176 1003 l 357 1003 l 251 138 l 572 138 l 678 1003 l 860 1003 l 753 138 l 1076 138 l 1182 1003 l 1363 1003 z "},"Щ":{"ha":1458,"x_min":53,"x_max":1388,"o":"m 1388 138 l 1348 -187 q 1327 -225 1344 -210 q 1285 -240 1310 -240 l 1176 -240 l 1206 0 l 53 0 l 176 1003 l 357 1003 l 251 138 l 572 138 l 678 1003 l 860 1003 l 753 138 l 1076 138 l 1182 1003 l 1363 1003 l 1257 138 l 1388 138 z "},"Ъ":{"ha":976,"x_min":70,"x_max":936,"o":"m 572 140 q 655 153 620 140 q 712 190 690 166 q 745 247 734 213 q 756 323 756 281 q 748 374 756 351 q 723 413 740 397 q 677 437 706 428 q 608 446 649 446 l 463 446 l 426 140 l 572 140 m 626 586 q 768 567 709 586 q 864 516 826 549 q 919 440 901 484 q 936 347 936 397 q 910 206 936 269 q 834 96 883 142 q 713 25 784 50 q 553 0 642 0 l 228 0 l 334 860 l 70 860 l 88 1003 l 531 1003 l 480 586 l 626 586 z "},"Ы":{"ha":1165,"x_min":53,"x_max":1131,"o":"m 396 140 q 479 153 444 140 q 536 190 514 166 q 569 247 558 213 q 580 323 580 281 q 572 374 580 351 q 547 413 565 397 q 502 437 530 428 q 433 446 474 446 l 288 446 l 250 140 l 396 140 m 451 586 q 592 567 533 586 q 688 516 651 549 q 743 440 726 484 q 760 347 760 397 q 734 206 760 269 q 658 96 708 142 q 538 25 608 50 q 378 0 467 0 l 53 0 l 176 1003 l 356 1003 l 304 586 l 451 586 m 1008 0 l 827 0 l 949 1004 l 1131 1004 l 1008 0 z "},"Ь":{"ha":803,"x_min":53,"x_max":760,"o":"m 396 140 q 479 153 444 140 q 536 190 514 166 q 569 247 558 213 q 580 323 580 281 q 572 374 580 351 q 547 413 565 397 q 502 437 530 428 q 433 446 474 446 l 288 446 l 250 140 l 396 140 m 451 586 q 592 567 533 586 q 688 516 651 549 q 743 440 726 484 q 760 347 760 397 q 734 206 760 269 q 658 96 708 142 q 538 25 608 50 q 378 0 467 0 l 53 0 l 176 1003 l 356 1003 l 304 586 l 451 586 z "},"Э":{"ha":864,"x_min":-8,"x_max":825,"o":"m 96 887 q 244 980 161 946 q 429 1015 326 1015 q 594 982 521 1015 q 719 890 668 949 q 798 750 770 831 q 825 573 825 669 q 788 340 825 447 q 685 155 751 233 q 524 33 618 77 q 317 -11 431 -11 q 123 30 202 -11 q -8 143 43 70 l 72 220 q 99 231 85 231 q 128 218 116 231 q 166 182 147 197 q 208 158 186 167 q 258 145 231 149 q 318 141 285 141 q 422 161 372 141 q 513 220 472 181 q 584 315 553 258 q 628 443 614 371 l 203 443 l 219 576 l 640 576 q 622 695 639 642 q 576 786 606 749 q 503 843 546 823 q 409 863 461 863 q 319 851 356 863 q 256 824 282 839 q 211 798 229 810 q 178 785 193 785 q 156 792 164 785 q 144 806 149 798 l 96 887 z "},"Є":{"ha":863,"x_min":57,"x_max":881,"o":"m 802 144 q 649 29 737 69 q 447 -11 561 -11 q 281 22 353 -11 q 159 113 209 54 q 83 251 109 171 q 57 426 57 331 q 75 590 57 513 q 127 732 93 667 q 208 850 160 798 q 313 939 255 902 q 440 995 372 976 q 582 1015 508 1015 q 758 979 683 1015 q 881 885 833 943 l 810 801 q 794 787 803 793 q 771 781 785 781 q 741 793 756 781 q 705 820 727 806 q 650 848 683 835 q 563 860 616 860 q 458 841 507 860 q 368 786 408 822 q 299 697 328 749 q 256 576 270 644 l 681 576 l 664 443 l 242 443 l 242 442 q 259 316 242 372 q 308 221 277 260 q 383 162 340 183 q 476 142 426 142 q 538 146 510 142 q 590 159 565 150 q 638 183 615 169 q 685 219 661 198 q 713 232 697 229 q 740 222 728 235 l 802 144 l 802 144 z "},"Ю":{"ha":1401,"x_min":53,"x_max":1361,"o":"m 871 138 q 998 169 941 138 q 1094 257 1054 200 q 1156 394 1134 314 q 1177 574 1177 475 q 1163 693 1177 640 q 1121 786 1149 747 q 1052 845 1093 824 q 960 866 1012 866 q 833 835 890 866 q 736 746 776 803 q 675 608 697 689 q 653 430 653 528 q 668 309 653 363 q 710 218 682 256 q 778 159 738 180 q 871 138 819 138 m 483 569 q 545 749 501 667 q 654 890 590 831 q 800 982 718 949 q 978 1015 883 1015 q 1141 981 1069 1015 q 1261 889 1212 948 q 1335 751 1310 831 q 1361 577 1361 671 q 1324 343 1361 451 q 1219 157 1286 236 q 1059 34 1152 78 q 853 -10 965 -10 q 691 23 762 -10 q 570 114 619 56 q 495 253 521 173 q 469 427 469 333 l 469 431 l 288 431 l 235 0 l 53 0 l 176 1004 l 357 1004 l 304 569 l 483 569 z "},"Я":{"ha":878,"x_min":-60,"x_max":844,"o":"m 609 558 l 647 863 l 496 863 q 413 851 447 863 q 355 815 378 838 q 322 758 333 792 q 312 683 312 724 q 319 631 312 654 q 344 592 327 608 q 390 567 362 576 q 458 558 417 558 l 609 558 m 721 0 l 541 0 l 592 417 l 503 417 q 473 414 487 417 q 444 403 458 411 q 416 381 430 395 q 388 346 402 367 l 195 63 q 145 17 175 33 q 76 0 116 0 l -60 0 l 192 355 q 306 451 240 422 q 229 486 262 464 q 175 537 197 508 q 143 601 153 566 q 133 676 133 636 q 159 807 133 747 q 235 911 185 867 q 355 979 284 955 q 513 1003 425 1003 l 844 1003 l 721 0 z "},"Ђ":{"ha":981,"x_min":74,"x_max":941,"o":"m 631 586 q 773 567 715 586 q 869 516 832 549 q 924 440 906 484 q 941 347 941 397 q 915 206 941 269 q 839 96 888 142 q 719 25 790 50 q 559 0 648 0 l 504 0 l 522 140 l 576 140 q 659 153 624 140 q 717 190 694 166 q 750 247 740 213 q 761 323 761 281 q 753 374 761 351 q 728 413 746 397 q 682 437 710 428 q 614 446 654 446 l 444 446 l 390 0 l 210 0 l 316 861 l 74 861 l 92 1003 l 777 1003 l 759 861 l 496 861 l 462 586 l 631 586 z "},"Ћ":{"ha":979,"x_min":74,"x_max":927,"o":"m 462 583 q 603 612 538 602 q 723 618 669 622 q 818 596 777 614 q 884 541 858 578 q 918 449 909 505 q 917 313 927 392 l 879 -1 l 698 -1 l 737 313 q 741 383 742 353 q 730 435 740 414 q 700 469 720 457 q 645 484 679 481 q 562 479 611 486 q 446 454 513 472 l 390 0 l 210 0 l 316 861 l 74 861 l 92 1003 l 777 1003 l 759 861 l 496 861 l 462 583 z "},"Ѣ":{"ha":951,"x_min":69,"x_max":908,"o":"m 544 140 q 627 153 592 140 q 684 190 662 166 q 717 247 706 213 q 728 323 728 281 q 720 374 728 351 q 695 413 713 397 q 650 437 678 428 q 581 446 622 446 l 435 446 l 398 140 l 544 140 m 599 586 q 740 567 681 586 q 836 516 799 549 q 891 440 874 484 q 908 347 908 397 q 882 206 908 269 q 806 96 856 142 q 685 25 756 50 q 526 0 615 0 l 201 0 l 290 730 l 69 730 l 86 862 l 306 862 l 324 1003 l 503 1003 l 486 862 l 756 862 l 740 730 l 469 730 l 452 586 l 599 586 z "},"б":{"ha":758,"x_min":60,"x_max":756,"o":"m 443 572 q 356 545 395 572 q 287 476 316 519 q 242 381 258 434 q 226 276 226 328 q 257 157 226 197 q 341 116 287 116 q 423 143 385 116 q 486 214 460 170 q 526 315 512 258 q 541 432 541 372 q 517 537 541 502 q 443 572 493 572 m 756 1058 l 756 971 q 742 924 756 944 q 701 898 728 904 l 503 866 q 368 819 422 853 q 281 740 315 786 q 230 638 247 693 q 205 527 213 583 q 259 594 228 564 q 328 646 290 624 q 410 680 366 668 q 503 692 454 692 q 587 678 549 692 q 653 633 625 663 q 696 556 681 603 q 712 445 712 509 q 699 332 712 388 q 664 226 687 276 q 607 132 640 175 q 531 57 573 89 q 438 8 488 26 q 331 -10 388 -10 q 223 10 273 -10 q 137 73 174 30 q 80 183 101 116 q 60 344 60 251 q 63 432 60 385 q 73 529 65 479 q 95 630 81 579 q 130 730 108 681 q 181 823 151 778 q 252 903 211 867 q 345 965 292 939 q 463 1003 397 991 l 756 1058 z "},"в":{"ha":670,"x_min":28,"x_max":610,"o":"m 197 298 q 203 221 196 255 q 225 163 210 187 q 263 127 240 140 q 319 117 287 115 q 371 128 347 117 q 412 157 394 139 q 439 197 429 174 q 448 245 448 220 q 441 284 448 266 q 418 313 434 301 q 378 328 403 324 q 317 325 353 332 l 197 298 m 315 426 q 391 448 362 435 q 435 477 419 461 q 457 509 451 492 q 463 542 463 526 q 448 589 463 569 q 397 608 433 608 q 336 593 365 608 q 283 551 307 578 q 240 485 258 524 q 210 401 221 447 l 315 426 m 445 392 q 509 380 480 390 q 560 351 539 369 q 594 307 582 333 q 606 247 606 281 q 585 153 606 199 q 524 70 564 107 q 428 12 485 34 q 300 -10 372 -10 q 183 10 234 -10 q 98 67 133 30 q 46 158 64 105 q 28 276 28 210 q 58 446 28 365 q 139 589 87 527 q 262 686 191 650 q 417 722 333 722 q 501 710 465 722 q 561 678 538 699 q 598 631 585 658 q 610 574 610 604 q 570 471 610 519 q 445 392 530 422 z "},"г":{"ha":566,"x_min":6,"x_max":526,"o":"m 310 722 q 392 711 353 722 q 461 680 431 701 q 508 628 490 659 q 526 555 526 597 q 511 486 526 517 q 471 428 496 454 q 415 378 447 401 q 351 335 383 356 q 286 296 318 315 q 230 258 255 277 q 191 219 206 239 q 176 176 176 199 q 197 138 176 154 q 260 122 219 122 q 316 130 291 122 q 361 149 341 139 q 398 168 382 160 q 426 177 414 177 q 446 173 438 177 q 461 158 453 169 l 501 97 q 441 50 473 70 q 374 17 409 31 q 303 -3 340 3 q 232 -10 267 -10 q 137 3 179 -10 q 66 40 95 17 q 21 94 37 63 q 6 164 6 126 q 32 256 6 215 q 98 330 58 297 q 183 391 138 363 q 269 444 229 419 q 335 493 308 469 q 361 543 361 517 q 343 576 361 561 q 290 590 326 590 q 242 583 265 590 q 201 568 219 576 q 166 552 182 560 q 139 545 151 545 q 124 549 132 545 q 109 566 116 552 l 72 636 q 182 699 120 676 q 310 722 244 722 z "},"ґ":{"ha":547,"x_min":-29,"x_max":610,"o":"m 610 883 l 549 594 l 403 594 q 341 569 365 594 q 307 487 317 543 l 259 213 q 184 52 241 110 q 31 -7 128 -7 q -16 -1 -2 -7 q -28 23 -29 6 l -15 120 l -4 120 q 60 145 34 120 q 96 221 87 170 l 142 480 q 175 586 153 542 q 227 658 197 630 q 298 699 258 686 q 386 712 338 712 l 429 712 l 456 815 q 488 866 465 849 q 545 883 510 883 l 610 883 z "},"д":{"ha":744,"x_min":32,"x_max":694,"o":"m 322 122 q 402 147 365 122 q 466 223 439 172 q 510 356 494 275 q 526 548 526 436 q 476 578 504 566 q 414 590 447 590 q 328 566 367 590 q 261 503 289 543 q 218 409 233 463 q 203 293 203 355 q 212 215 203 247 q 236 162 220 183 q 273 132 251 142 q 322 122 295 122 m 170 1007 q 318 1013 249 1016 q 446 991 388 1010 q 550 937 504 972 q 628 848 597 902 q 677 719 660 794 q 694 547 694 644 q 664 313 694 416 q 580 137 633 209 q 455 27 526 65 q 301 -10 383 -10 q 194 9 243 -10 q 108 66 144 28 q 52 161 72 104 q 32 294 32 218 q 57 450 32 374 q 127 583 82 525 q 235 677 172 642 q 375 712 298 712 q 464 696 425 712 q 535 651 503 681 q 499 770 525 724 q 431 845 473 817 q 330 883 389 872 q 195 892 271 893 q 166 901 173 892 q 162 930 159 910 l 170 1007 z "},"ж":{"ha":1217,"x_min":-18,"x_max":1218,"o":"m 670 336 q 780 504 722 432 q 893 625 838 576 q 1000 698 949 673 q 1088 722 1051 722 q 1155 710 1122 722 q 1218 670 1187 699 l 1176 599 q 1158 578 1167 583 q 1140 573 1149 573 q 1126 575 1133 573 q 1113 579 1120 576 q 1098 583 1106 581 q 1080 585 1090 585 q 1028 564 1054 585 q 980 501 1001 542 q 945 402 959 460 q 932 270 932 344 q 936 200 932 228 q 949 154 941 172 q 970 130 958 137 q 1000 122 983 122 q 1022 126 1012 122 q 1041 135 1032 131 q 1058 144 1050 140 q 1074 148 1066 148 q 1091 145 1083 149 q 1106 133 1100 142 l 1143 59 q 1098 27 1122 40 q 1050 6 1074 14 q 1003 -7 1026 -3 q 960 -10 981 -10 q 889 3 921 -10 q 834 43 857 17 q 799 110 812 70 q 787 205 787 151 q 823 412 787 315 q 766 331 794 375 q 713 238 738 288 q 669 135 688 188 q 638 25 649 81 l 635 0 l 492 0 l 531 378 q 422 209 479 282 q 308 88 364 137 q 201 14 251 39 q 112 -10 150 -10 q 46 2 78 -10 q -18 42 13 14 l 24 113 q 42 134 33 129 q 60 140 51 140 q 74 138 67 140 q 88 134 81 136 q 102 129 94 131 q 120 127 110 127 q 172 149 146 127 q 219 211 198 171 q 255 310 241 252 q 268 442 268 369 q 264 513 268 484 q 251 558 260 541 q 230 583 242 576 q 200 590 217 590 q 178 586 188 590 q 159 577 168 582 q 142 568 150 572 q 126 564 133 564 q 109 567 117 564 q 94 579 100 569 l 57 653 q 102 685 78 672 q 150 707 126 699 q 197 718 174 715 q 240 722 219 722 q 311 709 279 722 q 366 668 343 695 q 401 601 389 642 q 414 508 414 561 q 405 400 414 451 q 378 300 395 348 q 434 381 406 337 q 488 475 463 425 q 532 579 513 525 q 563 690 552 633 l 565 713 l 710 713 l 670 336 z "},"з":{"ha":613,"x_min":-21,"x_max":567,"o":"m 65 622 q 117 662 87 644 q 183 694 147 681 q 258 715 218 708 q 339 723 297 723 q 441 709 398 723 q 512 672 484 695 q 554 618 540 648 q 567 556 567 588 q 559 506 567 531 q 533 458 551 481 q 486 417 515 435 q 415 387 457 398 q 509 334 476 373 q 542 237 542 296 q 523 149 542 193 q 464 69 503 105 q 365 12 425 34 q 224 -10 306 -10 q 95 10 156 -10 q -21 81 35 31 l 23 151 q 37 166 28 159 q 57 173 46 173 q 86 164 72 173 q 119 144 101 155 q 165 124 138 133 q 233 115 192 115 q 299 125 270 115 q 347 151 327 135 q 376 191 366 168 q 385 240 385 214 q 378 280 385 264 q 356 306 370 296 q 322 320 342 315 q 276 324 301 324 q 225 320 255 324 q 170 312 196 316 q 173 374 170 344 q 188 435 176 404 q 225 430 207 433 q 262 428 243 428 q 331 436 302 428 q 378 459 360 445 q 405 490 396 473 q 413 524 413 507 q 389 576 413 556 q 306 597 364 597 q 240 589 267 597 q 194 572 213 581 q 161 553 174 562 q 137 544 148 544 q 118 546 126 542 q 101 563 110 549 l 65 622 z "},"и":{"ha":751,"x_min":45,"x_max":706,"o":"m 706 713 l 620 0 l 533 0 q 472 59 472 0 l 476 141 q 358 27 422 65 q 225 -10 294 -10 q 145 8 181 -10 q 87 60 110 26 q 55 145 64 94 q 53 260 45 196 l 107 713 l 278 713 l 225 260 q 232 160 216 190 q 290 130 248 130 q 347 145 318 130 q 403 189 376 160 q 453 257 430 217 q 491 347 476 297 l 535 713 l 706 713 z "},"к":{"ha":703,"x_min":27,"x_max":692,"o":"m 431 574 q 477 639 458 612 q 516 682 497 665 q 559 706 535 699 q 620 713 583 713 l 692 713 l 674 625 q 662 600 671 606 q 642 591 653 594 q 616 582 630 588 q 588 557 602 576 l 510 450 q 469 403 489 420 q 418 380 449 387 q 488 348 462 372 q 531 281 515 325 l 642 0 l 544 0 q 506 4 522 0 q 478 15 490 8 q 458 32 467 22 q 444 56 450 42 l 366 257 q 337 299 358 283 q 291 315 317 315 l 229 303 l 192 0 l 27 0 l 114 713 l 279 713 l 242 413 l 283 422 q 306 428 296 425 q 323 436 315 431 q 337 447 331 440 q 351 464 344 453 l 431 574 z "},"л":{"ha":766,"x_min":-25,"x_max":722,"o":"m 168 385 q 219 535 189 473 q 294 636 249 597 q 402 694 339 676 q 555 712 466 712 l 722 712 l 635 0 l 469 0 l 541 585 l 520 585 q 450 575 480 585 q 398 541 420 565 q 359 477 376 517 q 329 376 342 437 q 277 192 306 266 q 213 73 248 117 q 136 9 178 28 q 44 -10 94 -10 q -10 -4 5 -10 q -23 20 -25 3 l -11 117 l 11 117 q 64 131 42 117 q 102 175 85 144 q 134 258 119 206 q 168 385 149 309 z "},"љ":{"ha":1092,"x_min":-25,"x_max":1051,"o":"m 662 172 q 679 126 658 145 q 741 108 699 108 q 800 125 773 108 q 848 170 828 143 q 880 232 868 198 q 892 298 892 265 q 889 329 892 314 q 878 355 885 344 q 858 373 871 367 q 825 380 844 380 q 771 364 798 380 q 721 322 744 348 q 683 264 699 296 q 665 199 668 231 l 662 172 m 688 396 q 784 470 732 444 q 884 497 837 497 q 952 485 922 497 q 1005 450 983 473 q 1039 394 1026 427 q 1051 322 1051 362 q 1022 194 1051 254 q 943 88 993 133 q 828 16 894 43 q 688 -10 762 -10 q 533 41 581 -10 q 497 185 485 93 l 544 585 l 534 585 q 462 575 494 585 q 405 541 430 565 q 361 477 380 517 q 329 376 342 437 q 277 192 306 266 q 213 73 248 117 q 136 9 178 28 q 44 -10 94 -10 q -10 -4 5 -10 q -23 20 -25 3 l -11 117 l 11 117 q 64 131 42 117 q 102 175 85 144 q 134 258 119 206 q 168 385 149 309 q 220 533 189 472 q 298 634 251 595 q 409 692 345 674 q 560 712 473 711 l 560 713 l 727 713 l 688 396 z "},"м":{"ha":990,"x_min":-11,"x_max":945,"o":"m 945 714 l 858 0 l 703 0 l 756 428 q 762 465 758 445 q 772 506 766 485 l 507 44 q 485 23 498 31 q 457 15 473 15 l 433 15 q 390 44 401 15 l 260 501 q 253 453 257 478 q 244 409 249 428 q 228 324 235 365 q 211 239 220 282 q 190 150 201 196 q 160 51 178 104 q 135 14 152 27 q 93 0 119 0 l -11 0 q 39 167 14 81 q 88 344 65 253 q 132 527 112 434 q 169 714 153 620 l 306 714 q 340 707 323 714 q 364 677 357 699 l 476 327 q 497 247 490 281 q 524 303 508 276 l 730 677 q 763 707 744 699 q 797 714 781 714 l 945 714 z "},"н":{"ha":751,"x_min":28,"x_max":705,"o":"m 705 713 l 619 0 l 449 0 l 485 310 l 236 310 l 199 0 l 28 0 l 114 713 l 285 713 l 251 433 l 501 433 l 534 713 l 705 713 z "},"њ":{"ha":1065,"x_min":28,"x_max":1024,"o":"m 635 172 q 652 126 632 145 q 715 108 673 108 q 774 125 747 108 q 822 170 801 143 q 853 232 842 198 q 865 298 865 265 q 862 329 865 314 q 852 355 859 344 q 831 373 844 367 q 799 380 818 380 q 744 364 772 380 q 695 322 717 348 q 657 264 672 296 q 638 199 642 231 l 635 172 m 662 396 q 758 470 706 444 q 858 497 810 497 q 926 485 895 497 q 978 450 956 473 q 1012 394 1000 427 q 1024 322 1024 362 q 995 194 1024 254 q 917 88 967 133 q 801 16 867 43 q 662 -10 735 -10 q 507 41 555 -10 q 470 185 458 93 l 485 312 l 236 312 l 199 0 l 28 0 l 113 713 l 284 713 l 251 435 l 500 435 l 533 713 l 701 713 l 662 396 z "},"ѳ":{"ha":727,"x_min":31,"x_max":680,"o":"m 197 307 q 196 297 196 301 q 196 286 196 292 q 226 153 196 196 q 319 110 256 110 q 382 125 353 110 q 434 166 410 140 q 474 228 457 192 q 501 307 491 265 l 197 307 m 515 427 q 484 560 515 518 q 392 603 454 603 q 330 589 358 603 q 279 550 302 575 q 239 491 256 525 q 211 415 222 456 l 515 415 l 515 427 m 406 724 q 515 704 465 724 q 602 646 565 684 q 659 552 638 608 q 680 425 680 497 q 650 254 680 333 q 569 116 620 174 q 450 23 518 57 q 305 -10 382 -10 q 196 9 246 -10 q 109 67 146 29 q 51 161 72 106 q 31 288 31 217 q 60 460 31 381 q 141 599 90 540 q 260 690 192 657 q 406 724 328 724 z "},"п":{"ha":751,"x_min":28,"x_max":690,"o":"m 253 565 q 374 684 308 645 q 510 724 440 724 q 590 706 554 724 q 648 653 625 688 q 680 568 671 619 q 681 453 690 518 l 628 0 l 456 0 l 510 453 q 503 553 519 523 q 444 583 487 583 q 386 567 416 583 q 328 520 356 551 q 277 448 301 490 q 240 354 254 406 l 200 0 l 28 0 l 114 713 l 201 713 q 243 700 228 713 q 258 658 258 687 l 253 565 z "},"т":{"ha":1101,"x_min":28,"x_max":1039,"o":"m 28 0 l 114 713 l 201 713 q 243 700 228 713 q 258 658 258 687 l 255 579 q 359 688 303 652 q 476 724 415 724 q 580 680 542 724 q 624 553 618 636 q 735 682 674 641 q 867 724 796 724 q 947 706 913 724 q 1002 653 981 688 q 1031 568 1024 619 q 1031 453 1039 518 l 977 0 l 808 0 l 861 453 q 857 553 870 523 q 806 583 844 583 q 754 569 779 583 q 707 529 729 556 q 665 465 684 503 q 631 378 646 426 l 587 0 l 417 0 l 472 453 q 468 553 480 523 q 417 583 456 583 q 364 569 389 583 q 316 527 338 554 q 274 460 293 499 q 240 372 255 421 l 196 0 l 28 0 z "},"ѵ":{"ha":708,"x_min":39,"x_max":722,"o":"m 467 583 q 504 653 483 626 q 548 695 524 680 q 598 716 572 710 q 653 721 624 721 q 689 718 675 721 q 710 712 703 716 q 720 704 717 708 q 722 697 722 700 l 710 606 l 691 606 q 645 594 665 606 q 613 554 625 582 l 363 0 l 213 0 l 39 712 l 176 712 q 206 703 194 712 q 220 681 217 694 l 298 290 q 307 238 303 264 q 313 187 311 213 q 332 238 322 212 q 351 290 341 263 l 467 583 z "},"ф":{"ha":1035,"x_min":30,"x_max":988,"o":"m 567 136 q 599 124 583 127 q 633 120 615 120 q 711 148 677 120 q 769 221 746 176 q 805 324 792 266 q 817 441 817 381 q 793 555 817 520 q 722 589 769 589 q 664 576 692 589 q 615 538 635 563 l 567 136 m 451 576 q 419 589 435 585 q 384 593 402 593 q 306 565 340 593 q 248 492 272 538 q 213 390 225 447 q 200 272 200 332 q 224 159 200 193 q 297 124 249 124 q 355 138 326 124 q 403 175 383 151 l 451 576 m 631 667 q 699 710 662 696 q 785 724 736 724 q 868 708 831 724 q 932 661 906 693 q 973 578 959 628 q 988 456 988 527 q 963 280 988 365 q 896 131 939 196 q 794 28 853 67 q 665 -10 735 -10 q 603 2 631 -10 q 555 34 575 15 l 531 -162 q 522 -192 529 -178 q 502 -217 514 -206 q 474 -233 490 -227 q 438 -240 458 -240 l 353 -240 l 388 46 q 319 3 356 17 q 233 -10 282 -10 q 150 5 188 -10 q 85 52 112 20 q 44 135 59 85 q 30 257 30 186 q 54 433 30 349 q 122 582 78 517 q 224 685 165 647 q 352 724 283 724 q 415 711 387 724 q 463 679 443 698 l 497 956 q 506 985 499 971 q 526 1009 514 999 q 554 1026 538 1019 q 590 1032 570 1032 l 674 1032 l 631 667 z "},"ц":{"ha":806,"x_min":45,"x_max":756,"o":"m 756 123 l 678 -190 q 660 -226 675 -212 q 625 -240 645 -240 l 522 -240 l 590 0 l 533 0 q 472 59 472 0 l 476 141 q 358 27 422 65 q 225 -10 294 -10 q 145 8 181 -10 q 87 60 110 26 q 55 145 64 94 q 53 260 45 196 l 107 713 l 278 713 l 225 260 q 232 160 216 190 q 290 130 248 130 q 347 145 318 130 q 403 189 376 160 q 453 257 430 217 q 491 347 476 297 l 535 713 l 706 713 l 635 123 l 756 123 z "},"џ":{"ha":751,"x_min":46,"x_max":706,"o":"m 706 713 l 620 0 l 533 0 q 472 59 472 0 l 476 141 q 422 76 450 103 q 362 30 393 49 l 335 -190 q 316 -226 331 -212 q 281 -240 301 -240 l 178 -240 l 206 -10 q 134 14 166 -6 q 82 68 102 33 q 54 150 62 102 q 53 260 46 199 l 107 713 l 278 713 l 225 260 q 232 160 216 190 q 290 130 248 130 q 347 145 318 130 q 403 189 376 160 q 453 257 430 217 q 491 347 476 297 l 535 713 l 706 713 z "},"ч":{"ha":687,"x_min":38,"x_max":642,"o":"m 642 713 l 556 0 l 385 0 l 421 301 q 324 230 376 254 q 208 206 271 206 q 127 223 161 206 q 73 272 94 240 q 45 348 52 304 q 44 446 38 392 l 78 713 l 249 713 l 216 446 q 226 374 210 402 q 283 346 241 346 q 331 354 307 346 q 375 379 354 363 q 413 419 396 395 q 442 474 430 443 l 470 713 l 642 713 z "},"ш":{"ha":1101,"x_min":45,"x_max":1056,"o":"m 1056 713 l 970 0 l 883 0 q 840 13 856 0 q 826 56 825 26 l 829 134 q 725 25 781 61 q 608 -10 669 -10 q 504 33 542 -10 q 460 159 466 77 q 349 31 410 72 q 217 -10 288 -10 q 138 8 172 -10 q 82 60 103 26 q 53 145 60 94 q 53 260 45 196 l 107 713 l 276 713 l 223 260 q 227 160 214 190 q 278 130 240 130 q 330 144 304 130 q 377 184 355 158 q 419 248 400 210 q 452 334 438 286 l 497 713 l 667 713 l 613 260 q 616 160 604 190 q 667 130 628 130 q 720 144 694 130 q 768 187 746 159 q 810 253 791 215 q 843 342 828 292 l 888 713 l 1056 713 z "},"щ":{"ha":1154,"x_min":45,"x_max":1103,"o":"m 1103 123 l 1026 -190 q 1008 -226 1023 -212 q 973 -240 993 -240 l 869 -240 l 938 0 l 883 0 q 840 13 856 0 q 826 56 825 26 l 829 134 q 725 25 781 61 q 608 -10 669 -10 q 504 33 542 -10 q 460 159 466 77 q 349 31 410 72 q 217 -10 288 -10 q 138 8 172 -10 q 82 60 103 26 q 53 145 60 94 q 53 260 45 196 l 107 713 l 276 713 l 223 260 q 227 160 214 190 q 278 130 240 130 q 330 144 304 130 q 377 184 355 158 q 419 248 400 210 q 452 334 438 286 l 497 713 l 667 713 l 613 260 q 616 160 604 190 q 667 130 628 130 q 720 144 694 130 q 768 187 746 159 q 810 253 791 215 q 843 342 828 292 l 888 713 l 1056 713 l 985 123 l 1103 123 z "},"ъ":{"ha":740,"x_min":32,"x_max":699,"o":"m 389 108 q 449 125 422 108 q 497 170 477 142 q 529 232 517 197 q 540 300 540 266 q 537 330 540 315 q 527 356 534 344 q 507 373 519 367 q 476 380 494 380 q 417 364 447 380 q 364 323 388 349 q 325 262 340 297 q 310 191 310 228 q 333 128 310 149 q 389 108 355 108 m 424 626 q 392 569 406 597 q 367 514 378 542 q 349 457 357 486 q 336 398 342 428 q 383 440 358 422 q 435 472 408 459 q 488 491 461 484 q 540 497 515 497 q 603 485 574 497 q 654 450 633 473 q 688 395 676 427 q 699 322 699 363 q 689 246 699 285 q 660 170 679 207 q 612 100 640 133 q 546 43 583 67 q 464 4 509 18 q 365 -10 418 -10 q 274 4 315 -10 q 205 47 233 18 q 160 120 176 76 q 144 224 144 165 q 150 311 144 268 q 169 400 156 355 q 206 491 183 444 q 263 588 228 538 l 32 588 l 40 649 q 63 695 44 677 q 116 713 83 713 l 438 713 l 424 626 z "},"ы":{"ha":933,"x_min":35,"x_max":888,"o":"m 888 713 l 803 0 l 632 0 l 717 713 l 888 713 m 212 172 q 229 126 208 145 q 291 108 249 108 q 350 125 323 108 q 398 170 378 143 q 430 232 418 198 q 442 298 442 265 q 439 329 442 314 q 428 355 435 344 q 408 373 421 367 q 375 380 394 380 q 321 364 348 380 q 271 322 294 348 q 233 264 249 296 q 215 199 218 231 l 212 172 m 238 396 q 334 470 282 444 q 434 497 387 497 q 502 485 472 497 q 555 450 533 473 q 589 394 576 427 q 601 322 601 362 q 572 194 601 254 q 493 88 543 133 q 378 16 444 43 q 238 -10 312 -10 q 83 41 131 -10 q 47 185 35 93 l 110 713 l 277 713 l 238 396 z "},"ь":{"ha":642,"x_min":35,"x_max":601,"o":"m 212 172 q 229 126 208 145 q 291 108 249 108 q 350 125 323 108 q 398 170 378 143 q 430 232 418 198 q 442 298 442 265 q 439 329 442 314 q 428 355 435 344 q 408 373 421 367 q 375 380 394 380 q 321 364 348 380 q 271 322 294 348 q 233 264 249 296 q 215 199 218 231 l 212 172 m 238 396 q 334 470 282 444 q 434 497 387 497 q 502 485 472 497 q 555 450 533 473 q 589 394 576 427 q 601 322 601 362 q 572 194 601 254 q 493 88 543 133 q 378 16 444 43 q 238 -10 312 -10 q 83 41 131 -10 q 47 185 35 93 l 110 713 l 277 713 l 238 396 z "},"э":{"ha":636,"x_min":-7,"x_max":587,"o":"m 51 635 q 165 700 105 676 q 303 723 226 723 q 424 701 372 723 q 513 637 477 678 q 568 537 549 596 q 587 405 587 478 q 558 239 587 315 q 478 108 529 163 q 358 21 428 52 q 206 -10 288 -10 q 83 15 135 -10 q -7 90 31 40 l 42 149 q 56 161 48 156 q 74 166 65 166 q 96 159 85 166 q 121 143 107 151 q 155 127 135 134 q 206 119 175 119 q 280 133 246 119 q 340 170 313 146 q 384 229 366 194 q 412 307 402 264 l 132 307 l 146 420 l 420 420 q 378 552 416 508 q 272 595 340 595 q 221 588 243 595 q 181 571 199 580 q 148 555 163 563 q 120 548 133 548 q 93 555 101 548 q 81 570 85 562 l 51 635 z "},"є":{"ha":634,"x_min":30,"x_max":613,"o":"m 577 126 q 509 61 542 88 q 444 19 477 35 q 374 -4 410 3 q 294 -10 338 -10 q 183 11 232 -10 q 100 71 134 32 q 48 165 66 110 q 30 287 30 219 q 42 399 30 344 q 78 503 55 454 q 135 592 102 551 q 210 661 169 632 q 301 707 252 690 q 405 723 350 723 q 525 698 476 723 q 613 623 575 673 l 564 563 q 550 551 558 556 q 532 547 542 547 q 511 554 520 547 q 489 569 501 561 q 457 585 476 578 q 407 592 438 592 q 345 580 374 592 q 290 546 315 568 q 246 492 265 524 q 215 420 227 460 l 483 420 l 469 307 l 197 307 l 197 291 q 206 220 197 252 q 233 165 215 188 q 277 130 251 142 q 336 117 303 117 q 401 128 376 117 q 445 153 427 140 q 478 178 464 167 q 508 190 492 190 q 539 174 526 190 l 577 126 l 577 126 z "},"ю":{"ha":998,"x_min":27,"x_max":951,"o":"m 615 122 q 683 147 653 122 q 735 214 714 172 q 768 312 756 256 q 779 430 779 368 q 754 552 778 513 q 680 592 730 592 q 611 567 642 592 q 560 500 581 542 q 527 402 538 458 q 516 284 516 347 q 541 161 517 201 q 615 122 565 122 m 370 420 q 418 543 387 488 q 492 639 449 599 q 587 701 535 679 q 697 724 639 724 q 798 704 751 724 q 878 647 844 684 q 931 554 912 609 q 951 429 951 499 q 923 257 951 337 q 846 117 894 176 q 733 24 797 58 q 597 -10 669 -10 q 499 9 543 -10 q 422 66 454 28 q 373 158 390 103 q 355 284 355 213 l 355 301 l 229 301 l 192 0 l 27 0 l 115 712 l 280 712 l 244 420 l 370 420 z "},"я":{"ha":711,"x_min":-26,"x_max":667,"o":"m 497 604 l 383 604 q 323 592 347 604 q 284 561 299 580 q 264 520 270 542 q 258 478 258 498 q 284 413 258 435 q 353 390 309 390 l 471 390 l 497 604 m 667 712 l 580 0 l 423 0 l 458 288 l 392 288 q 357 283 372 288 q 332 272 342 279 q 314 253 322 264 q 299 230 306 243 l 217 88 q 180 38 199 57 q 138 9 160 19 q 92 -4 115 -1 q 44 -7 68 -7 q -11 -1 4 -7 q -25 23 -26 6 l -12 119 l 10 119 q 57 131 37 119 q 94 167 78 142 l 146 247 q 186 293 164 275 q 239 320 209 310 q 171 345 199 328 q 126 383 143 361 q 101 431 108 406 q 93 484 93 457 q 110 564 93 524 q 161 638 126 605 q 251 691 197 671 q 382 712 306 712 l 667 712 z "},"ђ":{"ha":729,"x_min":17,"x_max":665,"o":"m 258 541 q 364 629 308 598 q 483 660 419 660 q 563 643 528 660 q 619 594 597 626 q 653 515 642 562 q 665 410 665 469 q 649 249 665 329 q 603 88 633 168 q 533 -71 574 8 q 441 -227 492 -150 l 314 -176 q 400 -12 365 -89 q 457 134 435 65 q 488 265 478 203 q 497 384 497 326 q 476 495 497 460 q 413 531 455 531 q 325 491 370 531 q 238 376 279 450 l 192 0 l 27 0 l 119 752 l 17 752 l 33 877 l 135 877 l 153 1031 l 319 1031 l 300 877 l 499 877 l 483 752 l 285 752 l 258 541 z "},"ѣ":{"ha":750,"x_min":33,"x_max":699,"o":"m 310 172 q 327 126 306 145 q 389 108 347 108 q 448 125 421 108 q 496 170 476 143 q 528 232 516 198 q 540 298 540 265 q 536 329 540 314 q 526 355 533 344 q 506 373 519 367 q 473 380 492 380 q 419 364 446 380 q 369 322 392 348 q 331 264 347 296 q 313 199 316 231 l 310 172 m 336 396 q 432 470 380 444 q 532 497 485 497 q 600 485 569 497 q 652 450 631 473 q 686 394 674 427 q 699 322 699 362 q 670 194 699 254 q 591 88 641 133 q 476 16 542 43 q 336 -10 410 -10 q 181 41 229 -10 q 144 185 133 93 l 183 506 l 192 588 l 33 588 l 49 713 l 208 713 l 231 899 l 398 899 l 375 713 l 563 713 l 547 588 l 360 588 l 336 396 z "},"!":{"ha":368,"x_min":44,"x_max":328,"o":"m 328 1004 l 280 606 q 258 482 272 543 q 226 353 244 422 l 115 353 q 115 482 113 422 q 125 606 117 543 l 174 1004 l 328 1004 m 44 94 q 52 135 44 116 q 74 169 60 155 q 107 191 88 183 q 149 199 126 199 q 190 191 170 199 q 223 169 209 183 q 246 135 238 155 q 254 94 254 116 q 246 53 254 72 q 223 20 238 34 q 190 -2 209 6 q 149 -10 170 -10 q 107 -2 126 -10 q 74 20 88 6 q 52 53 60 34 q 44 94 44 72 z "},"?":{"ha":598,"x_min":103,"x_max":588,"o":"m 103 913 q 157 952 128 933 q 218 984 185 970 q 286 1007 250 999 q 364 1015 323 1015 q 460 999 418 1015 q 531 956 502 983 q 574 893 559 929 q 588 815 588 856 q 573 715 588 756 q 533 645 557 674 q 480 594 509 615 q 424 552 451 572 q 376 509 397 531 q 345 456 354 487 l 317 353 l 203 353 l 206 467 q 224 528 207 501 q 267 578 242 556 q 322 623 292 601 q 376 667 351 644 q 418 719 401 691 q 435 783 435 747 q 409 855 435 828 q 333 881 384 881 q 272 872 297 881 q 227 852 246 863 q 195 832 208 841 q 171 823 181 823 q 152 827 158 823 q 139 844 145 832 l 103 913 m 139 94 q 147 135 139 116 q 169 169 155 155 q 202 191 183 183 q 244 199 222 199 q 285 191 266 199 q 318 169 304 183 q 341 135 333 155 q 349 94 349 116 q 341 53 349 72 q 318 20 333 34 q 285 -2 304 6 q 244 -10 266 -10 q 202 -2 222 -10 q 169 20 183 6 q 147 53 155 34 q 139 94 139 72 z "},"‽":{"ha":665,"x_min":121,"x_max":663,"o":"m 241 199 q 282 191 263 199 q 316 169 301 183 q 338 135 330 155 q 347 94 347 116 q 338 53 347 72 q 316 20 330 34 q 282 -2 301 6 q 241 -10 263 -10 q 199 -2 219 -10 q 166 20 180 6 q 143 53 151 34 q 135 94 135 72 q 143 135 135 116 q 166 169 151 155 q 199 191 180 183 q 241 199 219 199 m 338 987 q 364 994 349 991 q 395 1000 378 998 q 428 1005 412 1003 q 461 1006 445 1006 q 544 994 507 1006 q 608 959 582 982 q 648 901 634 935 q 663 821 663 866 q 643 712 663 756 q 594 638 624 669 q 528 586 565 608 q 459 542 492 564 q 399 495 426 521 q 363 432 373 469 l 335 347 l 233 347 q 209 450 220 394 q 190 560 199 506 l 121 984 l 278 1022 l 315 708 q 317 684 315 699 q 319 651 318 669 q 322 612 321 633 q 324 569 323 591 q 363 611 342 593 q 405 645 384 629 q 444 675 425 660 q 477 708 463 690 q 500 746 492 725 q 509 795 509 767 q 488 852 509 832 q 433 872 467 872 q 402 869 417 872 q 383 867 388 867 q 357 873 365 867 q 349 894 349 880 l 338 987 z "},",":{"ha":326,"x_min":22,"x_max":226,"o":"m 43 -170 q 31 -145 31 -160 q 42 -122 31 -135 q 69 -90 54 -108 q 99 -49 84 -72 q 119 2 113 -26 q 80 10 97 2 q 49 32 62 18 q 28 65 35 46 q 22 106 22 83 q 29 142 22 125 q 49 172 36 159 q 81 192 63 185 q 122 199 99 199 q 168 190 148 199 q 200 164 188 181 q 220 127 213 148 q 226 82 226 106 q 216 12 226 49 q 187 -62 206 -25 q 139 -133 167 -99 q 73 -197 110 -168 l 43 -170 z "},";":{"ha":376,"x_min":48,"x_max":310,"o":"m 69 -170 q 57 -145 57 -160 q 69 -122 57 -135 q 95 -90 81 -108 q 125 -49 110 -72 q 146 2 140 -26 q 106 10 124 2 q 75 32 88 18 q 55 65 62 46 q 48 106 48 83 q 55 142 48 125 q 76 172 63 159 q 107 192 89 185 q 148 199 126 199 q 194 190 174 199 q 227 164 214 181 q 246 127 240 148 q 253 82 253 106 q 243 12 253 49 q 213 -62 233 -25 q 165 -133 194 -99 q 99 -197 137 -168 l 69 -170 m 99 590 q 107 631 99 611 q 130 664 115 650 q 163 686 144 678 q 205 694 183 694 q 246 686 226 694 q 280 664 265 678 q 302 631 294 650 q 310 590 310 611 q 302 548 310 567 q 280 515 294 529 q 246 493 265 501 q 205 485 226 485 q 163 493 183 485 q 130 515 144 501 q 107 548 115 529 q 99 590 99 567 z "},".":{"ha":331,"x_min":22,"x_max":233,"o":"m 22 94 q 30 135 22 116 q 52 169 38 155 q 85 191 66 183 q 127 199 105 199 q 168 191 149 199 q 202 169 188 183 q 224 135 216 155 q 233 94 233 116 q 224 53 233 72 q 202 20 216 34 q 168 -2 188 6 q 127 -10 149 -10 q 85 -2 105 -10 q 52 20 66 6 q 30 53 38 34 q 22 94 22 72 z "},"…":{"ha":1072,"x_min":22,"x_max":974,"o":"m 22 94 q 30 135 22 116 q 52 169 38 155 q 85 191 66 183 q 127 199 105 199 q 168 191 149 199 q 202 169 188 183 q 224 135 216 155 q 233 94 233 116 q 224 53 233 72 q 202 20 216 34 q 168 -2 188 6 q 127 -10 149 -10 q 85 -2 105 -10 q 52 20 66 6 q 30 53 38 34 q 22 94 22 72 m 392 94 q 400 135 392 116 q 423 169 408 155 q 456 191 437 183 q 498 199 476 199 q 539 191 519 199 q 573 169 558 183 q 595 135 587 155 q 603 94 603 116 q 595 53 603 72 q 573 20 587 34 q 539 -2 558 6 q 498 -10 519 -10 q 456 -2 476 -10 q 423 20 437 6 q 400 53 408 34 q 392 94 392 72 m 763 94 q 771 135 763 116 q 793 169 779 155 q 827 191 808 183 q 869 199 847 199 q 910 191 890 199 q 943 169 929 183 q 966 135 958 155 q 974 94 974 116 q 966 53 974 72 q 943 20 958 34 q 910 -2 929 6 q 869 -10 890 -10 q 827 -2 847 -10 q 793 20 808 6 q 771 53 779 34 q 763 94 763 72 z "},"‘":{"ha":294,"x_min":99,"x_max":319,"o":"m 129 682 q 102 789 104 735 q 117 894 99 843 q 172 993 135 945 q 262 1081 208 1040 l 308 1051 q 319 1031 319 1044 q 315 1017 319 1024 q 302 1001 311 1010 q 275 964 290 987 q 250 910 260 941 q 242 843 241 880 q 261 765 242 806 q 259 739 267 751 q 234 721 251 727 l 129 682 z "},"’":{"ha":294,"x_min":88,"x_max":307,"o":"m 277 1060 q 305 952 302 1006 q 289 847 307 899 q 235 749 272 796 q 144 660 198 701 l 98 691 q 88 710 88 698 q 91 724 88 718 q 104 740 95 731 q 132 777 117 754 q 156 831 147 801 q 165 898 166 862 q 146 976 165 935 q 147 1002 140 990 q 172 1021 155 1015 l 277 1060 z "},"“":{"ha":506,"x_min":99,"x_max":531,"o":"m 129 682 q 102 789 104 735 q 117 894 99 843 q 172 993 135 945 q 262 1081 208 1040 l 308 1051 q 319 1031 319 1044 q 315 1017 319 1024 q 302 1001 311 1010 q 275 964 290 987 q 250 910 260 941 q 242 843 241 880 q 261 765 242 806 q 259 739 267 751 q 234 721 251 727 l 129 682 m 341 682 q 314 789 316 735 q 329 894 311 843 q 383 993 347 945 q 474 1081 420 1040 l 520 1051 q 531 1031 531 1044 q 527 1017 531 1024 q 514 1001 523 1010 q 487 964 502 987 q 462 910 472 941 q 453 843 453 880 q 473 765 454 806 q 471 739 478 751 q 446 721 463 727 l 341 682 z "},"”":{"ha":506,"x_min":88,"x_max":519,"o":"m 277 1060 q 305 952 302 1006 q 289 847 307 899 q 235 749 272 796 q 144 660 198 701 l 98 691 q 88 710 88 698 q 91 724 88 718 q 104 740 95 731 q 132 777 117 754 q 156 831 147 801 q 165 898 166 862 q 146 976 165 935 q 147 1002 140 990 q 172 1021 155 1015 l 277 1060 m 489 1060 q 516 952 514 1006 q 501 847 519 899 q 447 749 483 796 q 356 660 410 701 l 310 691 q 299 710 299 698 q 303 724 299 718 q 316 740 307 731 q 343 777 328 754 q 368 831 358 801 q 377 898 378 862 q 358 976 376 935 q 359 1002 351 990 q 384 1021 367 1015 l 489 1060 z "},"‚":{"ha":290,"x_min":-32,"x_max":188,"o":"m 158 198 q 185 91 183 144 q 170 -15 188 37 q 115 -113 152 -66 q 25 -201 78 -160 l -22 -171 q -32 -151 -32 -164 q -28 -137 -32 -144 q -15 -122 -24 -131 q 12 -84 -3 -108 q 37 -31 27 -61 q 46 36 47 0 q 26 114 45 73 q 28 140 20 128 q 53 159 35 153 l 158 198 z "},"„":{"ha":501,"x_min":-32,"x_max":399,"o":"m 158 198 q 185 91 183 144 q 170 -15 188 37 q 115 -113 152 -66 q 25 -201 78 -160 l -22 -171 q -32 -151 -32 -164 q -28 -137 -32 -144 q -15 -122 -24 -131 q 12 -84 -3 -108 q 37 -31 27 -61 q 46 36 47 0 q 26 114 45 73 q 28 140 20 128 q 53 159 35 153 l 158 198 m 369 198 q 397 91 394 144 q 382 -15 399 37 q 327 -113 364 -66 q 237 -201 290 -160 l 190 -171 q 180 -151 180 -164 q 184 -137 180 -144 q 197 -122 188 -131 q 224 -84 209 -108 q 249 -31 239 -61 q 258 36 258 0 q 238 114 257 73 q 240 140 232 128 q 265 159 247 153 l 369 198 z "},"‹":{"ha":370,"x_min":48,"x_max":322,"o":"m 202 401 q 177 373 189 382 q 195 344 186 364 l 260 178 q 264 140 269 158 q 236 113 258 122 l 178 88 l 48 363 l 51 383 l 249 658 l 300 632 q 321 605 320 623 q 308 567 322 588 l 202 401 z "},"›":{"ha":369,"x_min":34,"x_max":308,"o":"m 308 383 l 306 363 l 108 88 l 57 113 q 35 140 37 122 q 47 178 34 158 l 155 344 q 179 372 167 363 q 162 401 169 382 l 94 567 q 93 605 87 588 q 121 632 99 623 l 178 658 l 308 383 z "},"«":{"ha":580,"x_min":48,"x_max":532,"o":"m 202 401 q 177 373 189 382 q 195 344 186 364 l 260 178 q 264 140 269 158 q 236 113 258 122 l 178 88 l 48 363 l 51 383 l 249 658 l 300 632 q 321 605 320 623 q 308 567 322 588 l 202 401 m 412 401 q 387 373 399 382 q 405 344 396 364 l 470 178 q 474 140 479 158 q 446 113 468 122 l 388 88 l 258 363 l 260 383 l 459 658 l 510 632 q 531 605 530 623 q 518 567 532 588 l 412 401 z "},"»":{"ha":579,"x_min":34,"x_max":518,"o":"m 308 383 l 306 363 l 108 88 l 57 113 q 35 140 37 122 q 47 178 34 158 l 155 344 q 179 372 167 363 q 162 401 169 382 l 94 567 q 93 605 87 588 q 121 632 99 623 l 178 658 l 308 383 m 518 383 l 516 363 l 318 88 l 267 113 q 246 140 247 122 q 258 178 244 158 l 365 344 q 390 372 377 363 q 372 401 380 382 l 305 567 q 303 605 297 588 q 331 632 309 623 l 388 658 l 518 383 z "},"/":{"ha":597,"x_min":-21,"x_max":628,"o":"m 144 -5 q 102 -51 128 -35 q 49 -67 75 -67 l -21 -67 l 467 952 q 505 995 481 980 q 558 1010 529 1010 l 628 1010 l 144 -5 z "},"|":{"ha":374,"x_min":120,"x_max":253,"o":"m 120 1074 l 253 1074 l 253 -233 l 120 -233 l 120 1074 z "},"¦":{"ha":373,"x_min":119,"x_max":252,"o":"m 119 1074 l 252 1074 l 252 513 l 119 513 l 119 1074 m 119 328 l 252 328 l 252 -233 l 119 -233 l 119 328 z "},"\\":{"ha":592,"x_min":109,"x_max":494,"o":"m 109 1010 l 179 1010 q 229 995 209 1010 q 256 952 249 980 l 494 -67 l 424 -67 q 375 -51 398 -67 q 344 -5 352 -35 l 109 1010 z "},"-":{"ha":482,"x_min":65,"x_max":415,"o":"m 81 488 l 415 488 l 397 350 l 65 350 l 81 488 z "},"–":{"ha":806,"x_min":135,"x_max":667,"o":"m 149 474 l 667 474 l 653 356 l 135 356 l 149 474 z "},"—":{"ha":1022,"x_min":67,"x_max":951,"o":"m 81 474 l 951 474 l 936 356 l 67 356 l 81 474 z "},"_":{"ha":617,"x_min":-19,"x_max":498,"o":"m 498 -96 l 484 -203 l -19 -203 l -6 -96 l 498 -96 z "},"•":{"ha":806,"x_min":98,"x_max":703,"o":"m 98 412 q 122 529 98 474 q 187 625 146 584 q 283 690 228 667 q 400 714 338 714 q 518 690 463 714 q 615 625 574 667 q 680 529 656 584 q 703 412 703 474 q 680 295 703 350 q 615 200 656 241 q 518 135 574 159 q 400 112 463 112 q 283 135 338 112 q 187 200 228 159 q 122 295 146 241 q 98 412 98 350 z "},"·":{"ha":381,"x_min":57,"x_max":319,"o":"m 57 413 q 67 464 57 440 q 95 506 77 488 q 136 534 113 524 q 187 544 160 544 q 239 534 215 544 q 280 506 263 524 q 308 464 298 488 q 319 413 319 440 q 308 363 319 386 q 280 322 298 340 q 239 294 263 304 q 187 284 215 284 q 136 294 160 284 q 95 322 113 304 q 67 363 77 340 q 57 413 57 386 z "},"(":{"ha":370,"x_min":47,"x_max":402,"o":"m 192 301 q 196 199 192 253 q 208 92 200 146 q 228 -12 216 39 q 256 -108 240 -64 q 257 -149 266 -135 q 233 -173 248 -164 l 154 -217 q 106 -94 126 -158 q 73 35 85 -30 q 53 164 60 100 q 47 288 47 228 q 60 489 47 392 q 103 684 73 587 q 185 881 134 781 q 314 1088 237 981 l 383 1044 q 394 1034 389 1040 q 400 1021 399 1028 q 400 1003 402 1013 q 388 979 397 992 q 307 824 343 903 q 244 663 270 746 q 205 489 219 579 q 192 301 192 399 z "},")":{"ha":369,"x_min":-30,"x_max":325,"o":"m 181 570 q 176 672 181 618 q 164 779 172 725 q 144 884 156 833 q 117 979 132 935 q 115 1021 106 1006 q 140 1044 124 1035 l 218 1088 q 266 966 246 1029 q 300 837 287 902 q 319 707 313 772 q 325 583 325 643 q 312 382 325 480 q 269 188 299 285 q 186 -9 238 90 q 58 -217 135 -109 l -10 -173 q -21 -163 -16 -169 q -28 -149 -26 -157 q -27 -132 -30 -142 q -16 -108 -25 -122 q 66 48 30 -31 q 128 212 102 128 q 167 385 153 296 q 181 570 181 474 z "},"[":{"ha":415,"x_min":34,"x_max":458,"o":"m 450 1008 q 434 978 448 991 q 401 966 420 966 l 317 966 l 185 -106 l 270 -106 q 300 -118 290 -106 q 308 -148 310 -130 l 300 -212 l 34 -212 l 192 1073 l 458 1073 l 450 1008 z "},"]":{"ha":415,"x_min":-43,"x_max":381,"o":"m 223 -212 l -43 -212 l -35 -148 q -19 -118 -33 -130 q 13 -106 -6 -106 l 99 -106 l 231 966 l 145 966 q 115 978 126 966 q 106 1008 105 991 l 115 1073 l 381 1073 l 223 -212 z "},"{":{"ha":403,"x_min":37,"x_max":443,"o":"m 443 1073 l 434 999 q 429 984 433 990 q 418 974 424 978 q 406 968 413 969 q 395 966 399 966 l 390 966 q 318 933 344 966 q 286 839 291 900 q 282 771 283 803 q 281 707 281 738 q 280 647 281 676 q 277 588 280 617 q 240 487 272 529 q 158 430 208 444 q 219 382 198 416 q 241 303 241 347 q 232 225 241 263 q 212 148 223 186 q 192 70 201 109 q 183 -12 183 31 q 202 -80 183 -53 q 258 -106 221 -106 l 264 -106 q 275 -107 269 -106 q 285 -113 281 -109 q 293 -124 290 -117 q 294 -139 296 -130 l 285 -212 l 251 -212 q 156 -197 197 -212 q 90 -157 116 -183 q 51 -94 64 -131 q 38 -15 38 -58 q 48 72 38 31 q 70 151 58 113 q 92 228 82 190 q 102 306 102 267 q 86 361 102 340 q 37 383 70 383 l 49 478 q 120 521 100 478 q 140 652 140 564 q 140 678 140 663 q 139 708 139 692 q 138 739 138 724 q 137 765 137 753 q 153 896 137 839 q 204 993 170 953 q 289 1052 238 1032 q 410 1073 340 1073 l 443 1073 z "},"}":{"ha":403,"x_min":-40,"x_max":367,"o":"m 153 1073 q 248 1058 208 1073 q 314 1018 288 1044 q 352 955 340 992 q 365 874 365 918 q 356 789 365 829 q 334 709 346 748 q 313 632 322 670 q 303 555 303 594 q 318 500 303 522 q 367 478 333 478 l 356 383 q 284 340 305 383 q 264 208 264 297 q 264 183 264 197 q 265 153 265 168 q 266 122 266 138 q 267 96 267 107 q 200 -132 267 -51 q -6 -212 133 -212 l -40 -212 l -29 -139 q -24 -124 -28 -130 q -14 -113 -20 -117 q -2 -107 -8 -109 q 9 -106 4 -106 l 15 -106 q 87 -72 60 -106 q 118 22 113 -39 q 123 90 122 58 q 124 153 124 122 q 124 214 124 184 q 128 272 125 243 q 164 373 133 331 q 246 430 196 415 q 184 479 206 444 q 163 558 163 514 q 172 636 163 597 q 192 713 181 674 q 213 791 203 751 q 222 873 222 831 q 203 940 222 915 q 146 966 184 966 l 141 966 q 130 968 136 966 q 119 974 124 969 q 112 984 115 978 q 110 999 109 990 l 119 1073 l 153 1073 z "},"*":{"ha":550,"x_min":102,"x_max":540,"o":"m 433 837 q 381 817 405 822 q 428 798 405 815 l 519 733 l 473 666 l 381 731 q 346 761 358 746 q 348 713 351 739 l 332 583 l 253 583 l 269 711 q 273 738 270 725 q 282 761 276 750 q 263 745 274 753 q 240 731 252 738 l 133 666 l 102 733 l 210 798 q 236 811 223 806 q 263 817 249 816 q 215 837 237 822 l 122 902 l 170 969 l 263 903 q 297 872 284 890 q 294 922 291 894 l 311 1051 l 390 1051 l 374 924 q 369 897 372 910 q 359 872 365 884 q 402 903 376 891 l 510 969 l 540 901 l 433 837 z "},"†":{"ha":806,"x_min":102,"x_max":756,"o":"m 501 698 q 549 706 524 701 q 597 715 574 711 q 643 723 621 719 q 685 726 665 726 q 719 720 706 726 q 741 705 733 715 q 752 682 749 694 q 753 656 756 669 l 747 601 l 489 601 l 456 328 l 409 -226 q 367 -241 390 -236 q 320 -247 344 -247 q 275 -241 296 -247 q 238 -226 254 -236 l 327 328 l 360 601 l 102 601 l 109 656 q 117 682 110 669 q 134 705 123 694 q 160 720 144 715 q 195 726 175 726 q 281 715 235 726 q 372 697 326 705 l 390 1017 q 432 1032 409 1026 q 478 1038 454 1038 q 560 1017 528 1038 l 501 698 z "},"‡":{"ha":806,"x_min":45,"x_max":757,"o":"m 502 697 q 550 706 526 701 q 599 715 575 710 q 644 723 622 719 q 687 726 667 726 q 721 720 707 726 q 743 705 735 715 q 754 682 751 694 q 755 656 757 669 l 749 601 l 490 601 l 463 381 l 440 190 l 698 190 l 691 135 q 683 108 690 122 q 666 85 677 95 q 640 69 656 75 q 606 63 625 63 q 565 67 586 64 q 520 75 543 70 q 474 84 497 79 q 428 92 451 89 l 411 -226 q 369 -241 392 -236 q 322 -247 347 -247 q 240 -226 272 -247 l 299 92 q 251 84 276 89 q 203 75 227 79 q 157 67 179 70 q 115 63 134 63 q 81 69 94 63 q 59 85 67 75 q 48 108 51 95 q 47 135 45 122 l 53 190 l 312 190 l 335 381 l 363 601 l 104 601 l 110 656 q 118 682 113 669 q 135 705 124 694 q 161 720 146 715 q 197 726 176 726 q 282 715 236 726 q 374 698 328 705 l 392 1017 q 433 1032 410 1026 q 480 1038 456 1038 q 525 1032 504 1038 q 563 1017 547 1026 l 502 697 z "},"§":{"ha":653,"x_min":15,"x_max":628,"o":"m 215 495 q 231 448 215 468 q 274 412 248 428 q 333 381 301 396 q 399 348 366 365 q 441 388 428 365 q 453 440 453 411 q 438 488 453 467 q 396 524 422 508 q 338 554 370 540 q 275 586 306 569 q 228 546 242 568 q 215 495 215 524 m 585 867 q 569 851 577 856 q 549 847 560 847 q 524 854 537 847 q 496 869 512 861 q 459 885 480 878 q 409 892 438 892 q 359 885 381 892 q 322 864 338 877 q 299 834 307 851 q 292 798 292 817 q 305 762 292 778 q 341 732 319 746 q 390 704 363 717 q 448 676 418 691 q 505 644 477 662 q 555 604 533 626 q 590 553 576 582 q 603 488 603 524 q 574 374 603 426 q 478 292 544 323 q 515 241 501 270 q 528 173 528 212 q 509 72 528 119 q 451 -10 489 25 q 359 -64 414 -44 q 233 -84 303 -84 q 167 -77 199 -84 q 107 -59 135 -71 q 55 -32 78 -48 q 15 3 31 -16 l 61 65 q 80 83 69 77 q 106 89 90 89 q 134 80 122 89 q 162 60 146 71 q 201 41 178 50 q 261 32 224 32 q 349 60 317 32 q 380 134 380 88 q 357 190 380 168 q 298 230 333 212 q 222 265 263 248 q 146 307 181 283 q 87 366 110 331 q 64 453 64 401 q 96 566 64 517 q 194 643 128 615 q 157 698 172 667 q 143 772 143 728 q 161 864 143 820 q 215 941 180 908 q 303 994 251 974 q 422 1013 355 1013 q 543 989 490 1013 q 628 926 597 965 l 585 867 z "},"¶":{"ha":1018,"x_min":75,"x_max":1042,"o":"m 1024 860 l 875 860 l 751 -145 l 601 -145 l 725 860 l 562 860 l 438 -145 l 288 -145 l 360 438 q 242 456 294 438 q 152 508 190 475 q 95 587 115 541 q 75 688 75 633 q 101 810 75 752 q 173 911 126 867 q 285 979 220 954 q 430 1004 351 1004 l 1042 1004 l 1024 860 z "},"^":{"ha":806,"x_min":122,"x_max":751,"o":"m 751 540 l 626 540 q 600 548 610 540 q 583 568 590 556 l 473 769 q 453 806 462 788 q 439 841 445 823 q 408 769 429 807 l 300 568 q 283 548 294 556 q 254 540 272 540 l 122 540 l 381 1004 l 492 1004 l 751 540 z "},"~":{"ha":806,"x_min":67,"x_max":737,"o":"m 516 450 q 577 475 556 450 q 599 545 598 500 l 737 545 q 723 448 737 492 q 682 374 708 405 q 616 326 655 343 q 527 310 577 310 q 457 319 490 310 q 393 341 423 329 q 336 362 363 352 q 288 372 309 372 q 227 347 249 372 q 206 276 206 322 l 67 276 q 81 373 67 330 q 122 448 95 417 q 188 495 149 478 q 277 512 227 512 q 347 502 313 512 q 411 481 381 492 q 467 460 441 469 q 516 450 494 450 z "},"'":{"ha":281,"x_min":113,"x_max":282,"o":"m 282 1003 l 257 803 l 229 694 q 207 649 222 665 q 164 633 193 633 q 129 649 140 633 q 115 694 118 665 l 113 803 l 139 1003 l 282 1003 z "},"\"":{"ha":516,"x_min":113,"x_max":517,"o":"m 282 1003 l 257 803 l 229 694 q 207 649 222 665 q 164 633 193 633 q 129 649 140 633 q 115 694 118 665 l 113 803 l 139 1003 l 282 1003 m 517 1003 l 492 803 l 465 694 q 443 649 457 665 q 399 633 428 633 q 364 649 375 633 q 351 694 353 665 l 349 803 l 374 1003 l 517 1003 z "},"&":{"ha":928,"x_min":29,"x_max":878,"o":"m 315 467 q 226 375 253 427 q 200 265 200 324 q 235 159 200 197 q 338 121 271 121 q 434 141 388 121 q 521 197 481 161 l 315 467 m 878 0 l 735 0 q 700 2 715 0 q 674 11 685 5 q 654 26 663 17 q 634 48 644 35 l 598 96 q 459 17 533 45 q 303 -11 385 -11 q 188 7 239 -11 q 102 57 138 24 q 48 137 67 90 q 29 242 29 184 q 46 343 29 296 q 93 431 63 391 q 165 503 124 471 q 254 557 206 535 q 222 644 232 601 q 211 726 211 687 q 232 838 211 785 q 291 930 253 890 q 384 992 329 969 q 506 1015 438 1015 q 607 997 563 1015 q 681 948 651 978 q 725 876 710 917 q 740 792 740 836 l 640 772 q 608 774 619 768 q 592 798 597 779 q 579 833 588 817 q 558 862 571 849 q 529 881 546 874 q 491 888 513 888 q 439 876 462 888 q 399 844 415 865 q 374 796 383 824 q 365 738 365 769 q 378 669 365 704 q 419 594 391 633 l 625 328 q 664 415 648 369 q 690 507 681 460 q 701 533 693 523 q 726 542 710 542 l 842 542 q 797 367 831 450 q 713 215 763 284 l 878 0 z "},"@":{"ha":1072,"x_min":53,"x_max":1031,"o":"m 667 560 q 627 564 647 564 q 547 542 585 564 q 478 485 508 521 q 431 405 449 450 q 413 311 413 359 q 427 256 413 276 q 469 235 442 235 q 502 241 485 235 q 536 262 519 247 q 568 301 552 276 q 596 363 583 325 l 667 560 m 724 379 q 706 305 709 334 q 708 260 702 276 q 726 237 713 243 q 756 231 739 231 q 816 254 788 231 q 866 319 844 278 q 901 418 888 361 q 915 542 915 475 q 893 675 915 617 q 833 772 872 733 q 738 831 794 811 q 613 851 682 851 q 441 812 521 851 q 301 702 360 772 q 208 536 242 632 q 174 328 174 440 q 200 161 174 233 q 273 40 226 89 q 385 -34 319 -9 q 531 -60 451 -60 q 624 -54 581 -60 q 702 -39 667 -49 q 765 -18 737 -30 q 812 6 792 -6 q 839 15 827 14 q 858 13 850 17 q 871 2 866 9 q 878 -13 876 -5 l 890 -60 q 726 -137 818 -108 q 519 -167 634 -167 q 328 -133 414 -167 q 181 -35 242 -99 q 87 119 120 28 q 53 322 53 209 q 74 489 53 408 q 133 641 95 570 q 223 770 170 712 q 339 869 276 828 q 476 934 403 911 q 626 957 549 957 q 784 928 710 957 q 913 845 858 899 q 999 715 967 792 q 1031 542 1031 638 q 1007 379 1031 454 q 940 248 982 303 q 841 160 898 192 q 719 128 784 128 q 645 150 676 128 q 606 220 614 172 q 517 150 563 171 q 423 128 472 128 q 361 141 388 128 q 318 176 335 153 q 292 228 301 198 q 284 293 284 258 q 295 380 284 335 q 328 465 306 424 q 382 543 350 507 q 457 607 415 580 q 552 651 499 635 q 666 667 604 667 q 713 665 692 667 q 752 659 734 663 q 786 649 770 655 q 818 636 802 644 l 724 379 z "},"©":{"ha":1145,"x_min":69,"x_max":1095,"o":"m 740 356 q 753 352 747 356 q 763 344 759 349 l 820 283 q 723 208 782 234 q 583 182 663 182 q 458 207 514 182 q 361 275 401 231 q 300 377 322 318 q 278 504 278 435 q 303 634 278 575 q 370 736 327 693 q 471 802 413 778 q 597 826 529 826 q 730 800 675 826 q 823 733 785 774 l 778 672 q 767 660 774 666 q 749 655 760 655 q 726 662 737 655 q 701 677 716 669 q 664 692 686 685 q 606 699 642 699 q 532 686 565 699 q 477 647 499 672 q 442 585 454 622 q 431 504 431 549 q 443 421 431 457 q 476 360 455 385 q 527 323 498 335 q 592 310 557 310 q 648 315 626 310 q 685 328 669 321 q 712 344 700 336 q 740 356 724 351 m 69 502 q 88 639 69 573 q 140 761 106 704 q 220 865 173 818 q 324 945 267 912 q 446 997 381 978 q 582 1015 511 1015 q 718 997 653 1015 q 841 945 784 978 q 945 865 898 912 q 1025 761 992 818 q 1077 639 1058 704 q 1095 502 1095 573 q 1077 366 1095 432 q 1025 244 1058 301 q 945 141 992 188 q 841 60 898 94 q 718 9 784 27 q 582 -10 653 -10 q 446 9 511 -10 q 324 60 381 27 q 220 141 267 94 q 140 244 173 188 q 88 366 106 301 q 69 502 69 431 m 163 502 q 195 333 163 412 q 284 197 228 255 q 417 106 341 139 q 582 72 494 72 q 747 106 670 72 q 881 197 824 139 q 971 333 938 255 q 1003 502 1003 412 q 989 618 1003 563 q 947 722 974 674 q 881 809 919 770 q 796 877 843 849 q 695 920 749 905 q 582 935 641 935 q 469 920 523 935 q 369 877 415 905 q 284 809 322 849 q 219 722 247 770 q 178 618 192 674 q 163 502 163 563 z "},"℗":{"ha":1145,"x_min":69,"x_max":1095,"o":"m 587 502 q 648 510 624 502 q 684 531 672 517 q 702 564 697 545 q 706 605 706 583 q 702 644 706 626 q 686 675 698 663 q 653 695 674 688 q 599 703 633 703 l 525 703 l 525 502 l 587 502 m 599 815 q 713 799 665 815 q 792 753 761 782 q 838 687 823 725 q 853 605 853 649 q 838 526 853 564 q 792 459 823 488 q 712 413 760 431 q 597 396 664 396 l 525 396 l 525 192 l 376 192 l 376 815 l 599 815 m 582 72 q 747 106 670 72 q 881 197 824 139 q 971 333 938 255 q 1003 502 1003 412 q 989 618 1003 563 q 947 722 974 674 q 881 809 919 770 q 796 877 843 849 q 695 920 749 905 q 582 935 641 935 q 469 920 523 935 q 369 877 415 905 q 284 809 322 849 q 219 722 247 770 q 178 618 192 674 q 163 502 163 563 q 195 333 163 412 q 284 197 228 255 q 417 106 341 139 q 582 72 494 72 m 582 1015 q 718 997 653 1015 q 841 945 784 978 q 945 865 898 912 q 1025 761 992 818 q 1077 639 1058 704 q 1095 502 1095 573 q 1077 366 1095 432 q 1025 244 1058 301 q 945 141 992 188 q 841 60 898 94 q 718 9 784 27 q 582 -10 653 -10 q 446 9 511 -10 q 324 60 381 27 q 220 141 267 94 q 140 244 173 188 q 88 366 106 301 q 69 502 69 431 q 88 639 69 573 q 140 761 106 704 q 220 865 173 818 q 324 945 267 912 q 446 997 381 978 q 582 1015 511 1015 z "},"®":{"ha":1146,"x_min":69,"x_max":1095,"o":"m 566 524 q 625 530 602 524 q 660 548 647 536 q 678 577 673 560 q 683 617 683 594 q 678 655 683 638 q 663 682 674 671 q 631 698 651 692 q 578 703 610 703 l 504 703 l 504 524 l 566 524 m 578 815 q 769 769 708 815 q 829 635 829 722 q 797 527 829 574 q 698 460 765 481 q 725 437 714 451 q 745 406 735 424 l 871 192 l 728 192 q 684 215 697 192 l 584 398 q 569 414 578 409 q 542 418 560 418 l 504 418 l 504 192 l 356 192 l 356 815 l 578 815 m 582 72 q 747 106 670 72 q 881 197 824 139 q 971 333 938 255 q 1003 502 1003 412 q 989 618 1003 563 q 947 722 974 674 q 881 809 919 770 q 796 877 843 849 q 695 920 749 905 q 582 935 641 935 q 469 920 523 935 q 369 877 415 905 q 284 809 322 849 q 219 722 247 770 q 178 618 192 674 q 163 502 163 563 q 195 333 163 412 q 284 197 228 255 q 417 106 341 139 q 582 72 494 72 m 582 1015 q 718 997 653 1015 q 841 945 784 978 q 945 865 898 912 q 1025 761 992 818 q 1077 639 1058 704 q 1095 502 1095 573 q 1077 366 1095 432 q 1025 244 1058 301 q 945 141 992 188 q 841 60 898 94 q 718 9 784 27 q 582 -10 653 -10 q 446 9 511 -10 q 324 60 381 27 q 220 141 267 94 q 140 244 173 188 q 88 366 106 301 q 69 502 69 431 q 88 639 69 573 q 140 761 106 704 q 220 865 173 818 q 324 945 267 912 q 446 997 381 978 q 582 1015 511 1015 z "},"™":{"ha":972,"x_min":110,"x_max":951,"o":"m 430 909 l 326 909 l 286 585 l 173 585 l 212 909 l 110 909 l 122 1003 l 442 1003 l 430 909 m 951 1003 l 901 585 l 800 585 l 827 801 l 842 865 l 722 654 q 679 630 706 630 l 664 630 q 628 654 637 630 l 561 862 l 560 801 l 533 585 l 434 585 l 485 1003 l 583 1003 q 604 1000 598 1003 q 618 985 610 997 l 675 803 q 687 757 683 779 q 698 780 692 769 q 711 803 703 792 l 815 985 q 832 1000 824 997 q 854 1003 840 1003 l 951 1003 z "},"℠":{"ha":977,"x_min":97,"x_max":958,"o":"m 390 917 q 364 902 379 902 q 350 906 357 902 q 335 915 344 910 q 315 924 326 919 q 288 928 303 928 q 254 917 268 928 q 240 888 240 906 q 251 869 240 876 q 280 856 263 862 q 316 842 297 849 q 352 823 335 835 q 381 791 369 810 q 392 740 392 771 q 380 678 392 707 q 348 627 369 649 q 296 592 326 605 q 228 580 266 580 q 192 584 210 580 q 155 596 173 588 q 122 614 138 603 q 97 636 107 624 l 130 688 q 141 697 135 693 q 156 701 148 701 q 172 696 165 701 q 190 684 180 691 q 212 673 199 678 q 242 667 224 667 q 278 681 266 667 q 290 714 290 694 q 278 736 290 728 q 251 750 267 744 q 215 763 234 756 q 178 782 195 769 q 151 814 162 794 q 140 867 140 833 q 151 923 140 896 q 182 970 162 949 q 231 1002 202 990 q 297 1014 260 1014 q 366 1002 334 1014 q 417 969 398 990 l 390 917 m 958 1003 l 907 585 l 808 585 l 833 801 l 848 863 l 728 655 q 687 631 715 631 l 670 631 q 648 637 658 631 q 635 655 639 643 l 567 863 l 567 801 l 540 585 l 440 585 l 492 1003 l 590 1003 q 611 1001 605 1003 q 625 986 617 998 l 681 804 q 688 781 685 792 q 694 757 691 769 q 705 781 699 769 q 718 804 710 792 l 822 986 q 839 1001 831 998 q 860 1003 847 1003 l 958 1003 z "},"°":{"ha":573,"x_min":88,"x_max":569,"o":"m 88 780 q 107 873 88 829 q 157 948 125 916 q 233 998 190 980 q 328 1017 277 1017 q 423 998 378 1017 q 499 948 467 980 q 550 873 531 916 q 569 780 569 829 q 550 689 569 732 q 499 614 531 646 q 423 563 467 581 q 328 544 378 544 q 233 563 277 544 q 157 614 190 581 q 107 689 125 646 q 88 780 88 732 m 207 778 q 216 731 207 753 q 241 692 225 708 q 280 666 258 676 q 328 657 301 657 q 376 666 353 657 q 414 692 398 676 q 439 731 430 708 q 448 778 448 753 q 439 827 448 805 q 414 867 430 850 q 376 893 398 883 q 328 903 353 903 q 280 893 301 903 q 241 867 258 883 q 216 827 225 850 q 207 778 207 805 z "},"¤":{"ha":806,"x_min":80,"x_max":732,"o":"m 276 467 q 286 417 276 441 q 314 375 297 393 q 356 347 332 358 q 406 337 379 337 q 457 347 433 337 q 499 375 481 358 q 527 417 517 393 q 537 467 537 441 q 527 519 537 495 q 499 561 517 543 q 457 589 481 578 q 406 599 433 599 q 356 589 379 599 q 314 561 332 578 q 286 519 297 543 q 276 467 276 495 m 646 145 l 541 249 q 478 222 512 231 q 406 212 444 212 q 337 221 370 212 q 275 247 304 230 l 169 142 l 83 228 l 188 332 q 160 395 170 361 q 150 467 150 430 q 159 537 150 504 q 186 599 169 570 l 80 705 l 167 790 l 271 686 q 334 714 300 704 q 406 724 369 724 q 476 714 442 724 q 538 688 509 705 l 644 793 l 729 708 l 624 603 q 652 539 642 574 q 663 467 663 505 q 653 398 663 431 q 626 336 644 365 l 732 231 l 646 145 z "},"€":{"ha":806,"x_min":11,"x_max":831,"o":"m 44 642 l 133 642 q 201 797 158 728 q 300 914 244 866 q 425 988 357 962 q 569 1013 493 1013 q 657 1003 617 1013 q 729 976 697 994 q 786 933 761 958 q 831 877 812 908 l 765 814 q 750 801 758 806 q 728 795 742 795 q 704 807 715 795 q 676 833 693 819 q 632 859 659 847 q 558 871 604 871 q 403 813 469 871 q 302 642 336 754 l 660 642 l 655 590 q 639 563 652 576 q 603 550 625 550 l 281 550 q 273 467 275 510 l 574 467 l 568 417 q 552 389 566 401 q 517 376 538 376 l 272 376 q 329 194 280 256 q 460 133 378 133 q 519 139 494 133 q 564 156 545 146 q 598 177 583 165 q 623 198 612 188 q 644 214 634 208 q 663 221 653 221 q 676 219 671 221 q 686 210 681 217 l 750 144 q 613 30 692 70 q 434 -10 533 -10 q 294 18 355 -10 q 192 98 233 47 q 128 219 151 149 q 102 376 106 290 l 11 376 l 22 467 l 103 467 q 107 509 105 489 q 113 550 109 530 l 33 550 l 44 642 z "},"$":{"ha":806,"x_min":11,"x_max":785,"o":"m 449 872 q 374 854 406 867 q 323 822 343 841 q 294 779 303 803 q 285 728 285 755 q 293 687 285 706 q 316 655 301 669 q 351 629 331 640 q 395 608 371 617 l 449 872 m 399 128 q 530 184 485 138 q 574 301 574 231 q 566 343 574 325 q 541 376 557 362 q 505 400 526 390 q 458 419 483 410 l 399 128 m 738 838 q 717 817 727 824 q 693 810 707 810 q 669 817 683 810 q 639 834 656 824 q 600 854 622 844 q 551 869 578 864 l 491 576 q 579 544 535 561 q 658 501 623 527 q 715 436 693 474 q 736 342 736 398 q 711 213 736 274 q 638 104 685 151 q 523 26 591 56 q 371 -10 456 -4 l 349 -115 q 332 -143 347 -131 q 299 -156 318 -156 l 238 -156 l 269 -7 q 122 38 189 4 q 11 121 55 71 l 72 197 q 91 213 79 206 q 116 219 103 219 q 147 208 131 219 q 183 182 163 197 q 231 152 203 167 q 297 131 258 138 l 363 449 q 276 480 319 463 q 200 524 233 497 q 146 592 167 551 q 125 692 125 632 q 149 808 125 752 q 219 909 174 865 q 331 981 265 953 q 478 1013 396 1009 l 496 1101 q 513 1130 499 1117 q 546 1143 527 1143 l 607 1143 l 579 1008 q 701 966 651 996 q 785 898 751 937 l 738 838 z "},"¢":{"ha":806,"x_min":72,"x_max":742,"o":"m 444 595 q 351 567 391 590 q 286 508 312 544 q 247 422 260 472 q 234 313 234 373 q 264 191 234 239 q 347 124 293 142 l 444 595 m 692 567 q 677 552 685 557 q 656 547 669 547 q 637 552 647 547 q 614 564 627 557 q 585 578 601 571 q 545 590 568 585 l 447 115 q 512 129 485 119 q 558 149 539 139 q 591 168 577 160 q 619 176 606 176 q 648 163 640 176 l 687 104 q 628 56 660 76 q 563 23 597 36 q 493 1 529 9 q 422 -9 458 -6 l 400 -113 q 383 -142 397 -129 q 351 -155 369 -155 l 290 -155 l 320 -6 q 219 27 265 2 q 141 92 174 53 q 90 185 108 132 q 72 305 72 239 q 99 466 72 391 q 177 596 126 540 q 302 684 228 651 q 469 721 376 717 l 492 832 q 510 861 496 848 q 542 874 524 874 l 603 874 l 571 715 q 667 682 625 705 q 742 624 709 659 l 692 567 z "},"£":{"ha":806,"x_min":-10,"x_max":807,"o":"m 622 460 q 605 431 619 444 q 570 418 591 418 l 306 418 l 288 275 q 266 192 283 227 q 220 127 249 157 q 275 137 247 133 q 329 140 302 140 l 744 140 l 736 72 q 728 46 735 59 q 711 23 722 33 q 687 7 701 13 q 657 0 673 0 l -10 0 l 3 104 q 78 144 51 115 q 113 231 105 173 l 135 418 l 28 418 l 37 485 q 53 513 39 500 q 88 526 67 526 l 149 526 l 169 693 q 206 817 178 758 q 282 919 235 876 q 393 989 329 963 q 538 1015 458 1015 q 641 1001 597 1015 q 718 964 685 988 q 772 907 750 940 q 807 835 793 874 l 735 792 q 690 781 711 780 q 653 803 669 783 q 630 833 642 820 q 604 856 619 847 q 569 870 589 865 q 521 875 549 875 q 453 863 484 875 q 398 827 422 850 q 359 770 374 803 q 339 694 344 737 l 318 526 l 629 526 l 622 460 l 622 460 z "},"¥":{"ha":806,"x_min":63,"x_max":861,"o":"m 513 438 l 708 438 l 697 347 l 473 347 l 465 280 l 688 280 l 676 188 l 453 188 l 431 0 l 265 0 l 288 188 l 63 188 l 76 280 l 299 280 l 308 347 l 83 347 l 94 438 l 290 438 l 81 1003 l 219 1003 q 255 992 242 1003 q 274 963 269 981 l 390 616 q 412 510 407 558 q 432 560 420 535 q 459 616 443 586 l 657 963 q 682 991 666 978 q 722 1003 699 1003 l 861 1003 l 513 438 z "},"℅":{"ha":1104,"x_min":44,"x_max":1061,"o":"m 853 977 q 875 995 863 988 q 910 1003 888 1003 l 1030 1003 l 221 25 q 198 7 211 14 q 167 0 185 0 l 44 0 l 853 977 m 397 638 q 413 631 406 638 l 457 576 q 272 494 389 494 q 184 511 222 494 q 120 559 147 528 q 81 630 94 589 q 68 718 68 671 q 89 839 68 783 q 147 934 110 894 q 234 997 184 974 q 341 1019 283 1019 q 435 999 396 1019 q 497 949 475 980 l 447 890 q 436 880 442 885 q 420 876 431 876 q 404 881 410 876 q 388 893 397 887 q 365 905 379 899 q 328 910 351 910 q 276 898 300 910 q 235 862 252 885 q 207 805 217 839 q 197 728 197 771 q 205 675 197 699 q 225 634 212 651 q 255 609 238 617 q 293 600 273 600 q 338 606 319 600 q 375 630 356 612 q 397 638 387 638 m 1061 284 q 1040 169 1061 222 q 980 75 1018 115 q 889 12 942 35 q 776 -11 837 -11 q 683 7 724 -11 q 614 56 642 25 q 570 129 585 87 q 555 219 555 171 q 576 334 555 281 q 636 428 598 388 q 726 492 674 469 q 840 515 778 515 q 932 497 891 515 q 1002 447 973 478 q 1046 374 1031 416 q 1061 284 1061 332 m 931 280 q 905 372 931 338 q 826 406 878 406 q 766 393 792 406 q 721 356 740 380 q 693 298 703 332 q 683 223 683 265 q 710 131 683 165 q 789 97 737 97 q 849 109 822 97 q 894 146 876 122 q 922 204 912 170 q 931 280 931 238 z "},"№":{"ha":1516,"x_min":72,"x_max":1504,"o":"m 1294 907 q 1247 897 1267 907 q 1212 867 1226 886 q 1190 822 1197 849 q 1182 762 1182 795 q 1203 689 1182 716 q 1264 662 1224 662 q 1310 672 1290 662 q 1346 701 1331 683 q 1368 747 1360 720 q 1376 807 1376 774 q 1355 880 1376 853 q 1294 907 1333 907 m 1251 551 q 1169 567 1206 551 q 1107 610 1133 583 q 1068 675 1082 638 q 1055 754 1055 712 q 1074 856 1055 808 q 1127 939 1093 903 q 1207 995 1160 974 q 1308 1015 1253 1015 q 1390 999 1354 1015 q 1452 956 1426 983 q 1491 891 1477 928 q 1504 811 1504 853 q 1485 709 1504 757 q 1432 627 1466 662 q 1352 571 1399 592 q 1251 551 1306 551 m 822 1003 l 980 1003 l 857 0 l 763 0 q 729 7 742 0 q 705 31 716 14 l 313 708 q 310 667 312 688 q 307 629 309 647 l 230 0 l 72 0 l 195 1003 l 289 1003 q 309 1002 301 1003 q 323 998 317 1001 q 334 989 329 995 q 346 974 340 983 l 739 295 q 742 339 740 317 q 745 380 743 361 l 822 1003 m 1023 479 l 1458 479 l 1444 362 l 1009 362 l 1023 479 z "},"#":{"ha":806,"x_min":10,"x_max":821,"o":"m 511 601 l 365 601 l 303 403 l 450 403 l 511 601 m 821 719 l 799 651 q 773 613 791 624 q 719 601 755 601 l 647 601 l 585 403 l 688 403 q 722 389 713 403 q 722 337 732 374 l 706 284 l 554 284 l 466 0 l 389 0 q 368 6 377 0 q 353 20 359 11 q 347 42 348 30 q 351 69 346 55 l 419 284 l 272 284 l 203 60 q 171 14 194 27 q 122 0 148 0 l 47 0 l 137 284 l 54 284 q 19 299 28 284 q 19 351 10 315 l 35 403 l 168 403 l 229 601 l 79 601 l 99 669 q 126 707 108 695 q 180 719 144 719 l 261 719 l 332 947 q 362 989 341 974 q 410 1003 383 1003 l 486 1003 l 397 719 l 542 719 l 631 1003 l 706 1003 q 744 987 731 1003 q 749 945 758 970 l 679 719 l 821 719 z "},"₀":{"ha":464,"x_min":-8,"x_max":392,"o":"m 392 149 q 373 11 392 70 q 322 -86 353 -47 q 247 -143 290 -124 q 158 -162 205 -162 q 92 -149 122 -162 q 39 -110 61 -136 q 4 -44 17 -83 q -8 49 -8 -4 q 10 188 -8 128 q 60 285 28 247 q 134 343 92 324 q 223 362 176 362 q 290 349 259 362 q 344 309 322 335 q 379 243 366 283 q 392 149 392 203 m 273 163 q 268 214 273 194 q 256 246 264 234 q 236 262 247 258 q 210 267 224 267 q 174 259 192 267 q 142 226 156 251 q 119 157 128 202 q 110 39 110 113 q 114 -13 110 8 q 127 -46 119 -34 q 146 -62 135 -58 q 169 -67 157 -67 q 210 -57 191 -67 q 243 -22 229 -47 q 265 49 257 4 q 273 163 273 94 z "},"₁":{"ha":464,"x_min":34,"x_max":331,"o":"m 331 -71 l 322 -157 l 34 -157 l 45 -71 l 142 -71 l 172 177 l 179 211 l 118 167 q 101 159 110 160 q 86 159 93 158 q 74 164 79 160 q 66 172 69 167 l 36 223 l 213 357 l 313 357 l 260 -71 l 331 -71 z "},"₂":{"ha":464,"x_min":-28,"x_max":380,"o":"m 319 -50 q 347 -60 338 -50 q 353 -87 356 -69 l 346 -157 l -28 -157 l -23 -118 q -16 -94 -22 -107 q 2 -72 -10 -81 l 166 73 q 202 108 185 90 q 231 144 219 126 q 251 181 244 163 q 258 217 258 199 q 246 253 258 239 q 211 267 233 267 q 171 255 187 267 q 143 220 155 242 q 120 199 132 205 q 84 197 108 193 l 20 207 q 50 275 31 247 q 97 324 70 304 q 158 352 124 343 q 229 362 191 362 q 294 352 266 362 q 341 324 322 342 q 370 282 360 306 q 380 229 380 258 q 369 171 380 197 q 341 121 359 144 q 301 76 324 98 q 253 33 278 55 l 149 -62 q 188 -53 169 -56 q 223 -50 207 -50 l 319 -50 z "},"₃":{"ha":464,"x_min":-15,"x_max":378,"o":"m 26 207 q 57 275 37 247 q 103 324 76 304 q 162 352 130 343 q 229 362 194 362 q 293 352 265 362 q 340 325 321 342 q 369 286 359 308 q 378 240 378 264 q 358 162 378 193 q 291 114 338 131 q 343 79 326 101 q 360 20 360 56 q 342 -61 360 -26 q 295 -118 324 -95 q 230 -151 266 -140 q 158 -162 194 -162 q 91 -155 120 -162 q 41 -132 63 -148 q 6 -89 20 -115 q -15 -24 -8 -62 l 39 -2 q 77 2 60 6 q 99 -16 94 -2 q 106 -32 102 -24 q 118 -48 110 -41 q 136 -60 125 -56 q 163 -65 147 -65 q 219 -43 199 -65 q 240 10 240 -22 q 219 52 240 40 q 144 64 197 64 l 154 147 q 237 164 213 147 q 261 217 261 180 q 249 252 261 239 q 211 265 236 265 q 169 253 185 265 q 143 222 153 242 q 120 198 132 203 q 87 197 109 193 l 26 207 z "},"₄":{"ha":464,"x_min":-31,"x_max":385,"o":"m 219 48 l 233 161 q 239 197 235 178 q 248 238 242 217 l 88 48 l 219 48 m 385 48 l 377 -22 q 369 -37 376 -30 q 351 -44 363 -44 l 308 -44 l 294 -157 l 194 -157 l 208 -44 l 6 -44 q -18 -36 -10 -44 q -27 -19 -26 -29 l -31 40 l 242 356 l 357 356 l 319 48 l 385 48 z "},"₅":{"ha":464,"x_min":-18,"x_max":375,"o":"m 178 251 l 155 172 q 242 174 204 181 q 305 150 279 168 q 343 105 330 132 q 356 44 356 77 q 339 -39 356 -1 q 292 -104 322 -76 q 221 -147 262 -132 q 133 -162 181 -162 q 45 -142 83 -162 q -18 -94 7 -122 l 24 -45 q 39 -33 30 -37 q 55 -28 47 -28 q 75 -34 66 -28 q 93 -47 83 -40 q 117 -60 103 -54 q 152 -66 131 -66 q 213 -43 190 -66 q 235 23 235 -19 q 202 77 235 63 q 101 69 168 90 l 33 88 l 110 356 l 375 356 l 369 308 q 349 267 366 283 q 294 251 332 251 l 178 251 z "},"₆":{"ha":464,"x_min":-4,"x_max":375,"o":"m 175 -73 q 208 -66 192 -73 q 234 -48 223 -60 q 253 -21 246 -37 q 260 15 260 -5 q 244 62 260 45 q 197 79 228 79 q 135 55 158 79 q 112 -7 112 31 q 128 -55 112 -36 q 175 -73 144 -73 m 228 203 q 192 172 212 188 q 155 139 173 156 q 197 159 174 151 q 244 167 219 167 q 290 159 267 167 q 331 136 313 152 q 361 96 349 121 q 372 37 372 72 q 356 -40 372 -4 q 312 -103 340 -76 q 245 -147 284 -131 q 161 -162 207 -162 q 91 -150 122 -162 q 39 -117 60 -138 q 7 -66 17 -95 q -4 -1 -4 -36 q 16 91 -4 49 q 75 178 35 133 l 207 330 q 233 349 216 341 q 272 356 251 356 l 375 356 l 228 203 z "},"₇":{"ha":464,"x_min":10,"x_max":407,"o":"m 407 356 l 397 276 l 139 -157 l 10 -157 l 233 197 q 252 225 242 212 q 273 249 261 238 l 58 249 q 41 257 48 249 q 35 275 33 265 l 45 356 l 407 356 z "},"₈":{"ha":464,"x_min":-7,"x_max":375,"o":"m 171 -73 q 227 -51 208 -73 q 246 10 246 -29 q 230 50 246 38 q 188 63 214 63 q 134 45 155 63 q 113 -17 113 27 q 127 -57 113 -40 q 171 -73 141 -73 m 213 276 q 184 270 197 276 q 164 254 172 264 q 152 232 156 244 q 148 205 148 219 q 160 166 148 180 q 199 153 172 153 q 250 172 234 153 q 267 225 267 192 q 254 260 267 244 q 213 276 241 276 m 296 110 q 349 68 333 94 q 365 9 365 42 q 349 -61 365 -30 q 307 -115 334 -93 q 242 -150 280 -137 q 160 -162 205 -162 q 91 -153 122 -162 q 39 -125 60 -143 q 5 -82 17 -107 q -7 -26 -7 -56 q 15 57 -7 21 q 92 112 38 93 q 38 204 38 140 q 53 267 38 238 q 93 317 67 296 q 152 350 118 338 q 225 362 186 362 q 286 352 258 362 q 334 325 314 342 q 364 285 353 308 q 375 235 375 263 q 356 160 375 192 q 296 110 336 128 z "},"₉":{"ha":464,"x_min":7,"x_max":381,"o":"m 134 192 q 195 133 134 133 q 252 154 231 133 q 274 213 274 175 q 257 257 274 240 q 214 273 240 273 q 155 251 176 273 q 134 192 134 229 m 169 11 q 199 40 184 26 q 226 68 213 53 q 189 55 209 59 q 149 51 169 51 q 102 59 125 51 q 60 85 78 68 q 31 125 42 101 q 19 181 19 149 q 35 247 19 215 q 77 305 50 280 q 141 346 103 331 q 222 362 178 362 q 289 351 260 362 q 339 319 319 340 q 370 272 360 299 q 381 211 381 244 q 359 108 381 153 q 303 21 338 63 l 176 -131 q 150 -149 167 -140 q 113 -157 133 -157 l 7 -157 l 169 11 z "},"₊":{"ha":464,"x_min":10,"x_max":370,"o":"m 360 46 l 231 46 l 215 -91 l 121 -91 l 138 46 l 10 46 l 21 132 l 149 132 l 165 267 l 259 267 l 242 132 l 370 132 l 360 46 z "},"₋":{"ha":464,"x_min":23,"x_max":356,"o":"m 34 132 l 356 132 l 346 46 l 23 46 l 34 132 z "},"₌":{"ha":464,"x_min":16,"x_max":365,"o":"m 26 66 l 349 66 l 338 -19 l 16 -19 l 26 66 m 43 197 l 365 197 l 355 110 l 32 110 l 43 197 z "},"₍":{"ha":232,"x_min":-11,"x_max":197,"o":"m 91 25 q 93 -25 91 1 q 98 -77 94 -51 q 107 -128 101 -103 q 121 -174 113 -153 q 121 -203 128 -192 q 105 -219 115 -213 l 49 -251 q 3 -119 18 -190 q -11 17 -11 -48 q -3 126 -11 73 q 22 230 5 178 q 67 330 40 281 q 133 431 94 380 l 181 400 q 193 384 189 394 q 185 355 197 374 q 117 200 143 283 q 91 25 91 118 z "},"₎":{"ha":232,"x_min":-48,"x_max":160,"o":"m 58 154 q 56 203 58 177 q 50 255 54 229 q 41 306 47 281 q 28 352 35 331 q 27 381 20 371 q 44 396 33 390 l 101 426 q 127 364 116 397 q 145 296 138 331 q 156 227 153 262 q 160 160 160 192 q 152 52 160 104 q 127 -51 144 -1 q 82 -152 110 -102 q 16 -253 55 -202 l -31 -222 q -44 -206 -41 -216 q -36 -178 -48 -197 q 32 -23 6 -106 q 58 154 58 60 z "},"⁄":{"ha":194,"x_min":-301,"x_max":514,"o":"m -144 49 q -186 10 -165 20 q -234 0 -207 0 l -301 0 l 350 947 q 393 989 370 974 q 446 1003 415 1003 l 514 1003 l -144 49 z "},"⅔":{"ha":992,"x_min":63,"x_max":930,"o":"m 272 49 q 230 10 251 20 q 182 0 209 0 l 115 0 l 766 947 q 809 989 786 974 q 862 1003 831 1003 l 930 1003 l 272 49 m 410 597 q 439 588 429 597 q 445 560 448 578 l 438 490 l 63 490 l 69 529 q 76 553 70 540 q 94 576 82 566 l 258 720 q 294 755 277 737 q 323 791 310 773 q 343 828 335 810 q 350 864 350 847 q 338 900 350 886 q 303 914 325 914 q 263 902 278 914 q 235 867 247 890 q 212 846 224 852 q 176 844 200 840 l 112 854 q 142 923 122 894 q 189 971 162 951 q 249 1000 216 990 q 321 1009 283 1009 q 386 999 358 1009 q 433 971 414 989 q 462 929 452 953 q 472 876 472 905 q 461 818 472 844 q 433 768 451 792 q 392 724 415 745 q 344 680 369 702 l 240 585 q 280 594 260 591 q 315 597 299 597 l 410 597 m 574 364 q 605 432 585 403 q 651 481 624 461 q 710 509 678 500 q 777 519 742 519 q 841 509 813 519 q 888 482 869 499 q 917 443 907 465 q 926 397 926 421 q 906 319 926 350 q 839 271 885 288 q 891 236 874 258 q 908 177 908 213 q 890 96 908 131 q 843 39 872 62 q 778 6 814 17 q 706 -6 742 -6 q 639 2 668 -6 q 589 25 610 9 q 554 68 568 42 q 533 133 540 94 l 587 155 q 625 159 608 163 q 647 141 642 155 q 654 125 650 133 q 666 109 658 116 q 684 97 673 101 q 711 92 695 92 q 767 114 747 92 q 788 167 788 135 q 767 209 788 197 q 692 221 745 221 l 702 303 q 785 320 761 304 q 809 374 809 337 q 797 409 809 396 q 759 422 784 422 q 717 410 733 422 q 691 378 701 399 q 668 355 680 360 q 635 353 657 350 l 574 364 z "},"⅖":{"ha":969,"x_min":62,"x_max":928,"o":"m 271 49 q 229 10 250 20 q 181 0 208 0 l 113 0 l 765 947 q 807 989 785 974 q 860 1003 830 1003 l 928 1003 l 271 49 m 409 597 q 437 588 428 597 q 444 560 447 578 l 436 490 l 62 490 l 67 529 q 75 553 69 540 q 92 576 81 566 l 256 720 q 292 755 276 737 q 322 791 309 773 q 341 828 334 810 q 349 864 349 847 q 336 900 349 886 q 301 914 324 914 q 261 902 277 914 q 233 867 245 890 q 210 846 222 852 q 174 844 199 840 l 110 854 q 141 923 121 894 q 188 971 160 951 q 248 1000 215 990 q 319 1009 281 1009 q 384 999 356 1009 q 432 971 413 989 q 460 929 451 953 q 470 876 470 905 q 460 818 470 844 q 432 768 449 792 q 391 724 414 745 q 343 680 368 702 l 239 585 q 278 594 259 591 q 313 597 297 597 l 409 597 m 707 408 l 684 329 q 771 331 733 338 q 834 307 808 325 q 872 261 859 289 q 885 201 885 234 q 868 118 885 156 q 821 53 851 81 q 750 10 791 25 q 663 -6 710 -6 q 574 15 613 -6 q 511 63 536 35 l 553 112 q 568 124 559 120 q 584 128 576 128 q 604 123 595 128 q 623 110 613 117 q 646 97 633 103 q 681 91 660 91 q 742 114 719 91 q 765 180 765 138 q 731 234 765 220 q 631 226 697 247 l 562 245 l 640 513 l 904 513 l 899 465 q 878 424 895 440 q 824 408 861 408 l 707 408 z "},"+":{"ha":806,"x_min":63,"x_max":754,"o":"m 738 405 l 467 405 l 432 117 l 297 117 l 332 405 l 63 405 l 78 528 l 347 528 l 383 814 l 517 814 l 482 528 l 754 528 l 738 405 z "},"−":{"ha":806,"x_min":93,"x_max":721,"o":"m 108 528 l 721 528 l 706 405 l 93 405 l 108 528 z "},"×":{"ha":806,"x_min":53,"x_max":751,"o":"m 495 467 l 703 229 l 606 142 l 397 379 l 129 141 l 53 228 l 321 467 l 120 695 l 218 782 l 419 553 l 674 781 l 751 694 l 495 467 z "},"÷":{"ha":806,"x_min":62,"x_max":753,"o":"m 77 528 l 753 528 l 738 405 l 62 405 l 77 528 m 333 701 q 343 746 333 725 q 368 782 352 767 q 405 807 383 798 q 449 816 426 816 q 486 809 469 816 q 515 789 503 801 q 534 760 527 776 q 541 724 541 743 q 531 679 541 699 q 506 643 522 658 q 468 620 490 628 q 424 611 447 611 q 387 618 404 611 q 358 637 370 625 q 340 666 347 649 q 333 701 333 683 m 272 207 q 282 251 272 231 q 307 288 291 272 q 343 313 322 303 q 388 322 365 322 q 425 314 408 322 q 454 294 442 307 q 473 265 466 282 q 480 229 480 249 q 470 184 480 205 q 444 149 460 164 q 407 125 428 134 q 363 117 386 117 q 326 124 343 117 q 298 143 310 131 q 279 172 285 155 q 272 207 272 188 z "},"=":{"ha":806,"x_min":77,"x_max":735,"o":"m 93 407 l 706 407 l 690 284 l 77 284 l 93 407 m 123 650 l 735 650 l 721 526 l 108 526 l 123 650 z "},"≠":{"ha":806,"x_min":134,"x_max":678,"o":"m 559 805 l 678 805 l 253 119 l 134 119 l 559 805 z "},"≈":{"ha":806,"x_min":102,"x_max":709,"o":"m 572 619 q 614 624 593 619 q 652 636 634 628 q 683 651 669 643 q 702 665 696 659 l 709 561 q 634 510 678 526 q 545 494 590 494 q 473 505 508 494 q 405 529 438 516 q 339 553 371 542 q 277 564 307 564 q 233 559 255 564 q 194 546 212 553 q 163 530 176 539 q 144 514 150 521 l 131 615 q 209 670 163 653 q 303 688 254 688 q 375 677 340 688 q 443 653 410 667 q 509 630 477 640 q 572 619 541 619 m 541 373 q 583 378 563 373 q 622 390 604 383 q 653 405 640 397 q 672 419 666 413 l 679 315 q 604 264 648 280 q 515 249 560 249 q 443 259 478 249 q 374 283 408 270 q 309 307 341 296 q 247 317 277 317 q 203 313 224 317 q 164 300 182 308 q 133 284 146 293 q 114 269 119 276 l 102 369 q 179 425 133 408 q 273 443 224 443 q 345 432 310 443 q 414 408 381 421 q 479 384 447 395 q 541 373 511 373 z "},"<":{"ha":806,"x_min":108,"x_max":702,"o":"m 702 790 l 687 667 q 677 642 685 653 q 651 622 669 631 l 383 493 q 348 479 366 485 q 308 468 329 473 q 377 443 347 458 l 614 313 q 634 294 628 306 q 638 268 640 282 l 622 146 l 108 433 l 114 485 l 115 485 l 117 503 l 702 790 z "},">":{"ha":806,"x_min":113,"x_max":708,"o":"m 708 503 l 699 433 l 113 146 l 129 268 q 139 294 131 282 q 165 313 147 306 l 432 443 q 507 468 466 458 q 438 493 468 477 l 202 622 q 182 642 187 631 q 178 667 176 653 l 192 790 l 708 503 z "},"±":{"ha":806,"x_min":22,"x_max":765,"o":"m 36 178 l 713 178 l 697 56 l 22 56 l 36 178 m 765 610 l 750 488 l 478 488 l 449 249 l 315 249 l 344 488 l 75 488 l 90 610 l 360 610 l 390 858 l 524 858 l 494 610 l 765 610 z "},"≤":{"ha":806,"x_min":77,"x_max":724,"o":"m 724 846 l 710 729 q 700 703 708 715 q 667 681 691 690 l 408 572 q 369 559 390 565 q 327 549 349 553 q 403 525 371 539 l 634 413 q 661 392 656 404 q 666 365 667 379 l 651 249 l 133 514 l 135 531 l 142 583 l 724 846 m 93 183 l 644 183 l 627 56 l 77 56 l 93 183 z "},"≥":{"ha":806,"x_min":90,"x_max":706,"o":"m 106 183 l 656 183 l 640 56 l 90 56 l 106 183 m 699 533 l 697 514 l 114 249 l 128 365 q 139 392 130 379 q 172 413 148 404 l 430 525 q 512 549 466 539 q 435 572 471 558 l 204 681 q 176 703 182 690 q 173 729 171 715 l 187 846 l 706 583 l 699 533 z "},"¬":{"ha":806,"x_min":92,"x_max":719,"o":"m 680 208 l 540 208 l 565 405 l 92 405 l 106 528 l 719 528 l 680 208 z "},"℮":{"ha":1133,"x_min":72,"x_max":1091,"o":"m 861 634 q 843 745 861 695 q 790 831 824 795 q 706 886 756 867 q 594 906 657 906 q 484 886 534 906 q 398 828 433 865 q 342 740 362 792 q 322 628 322 689 l 322 607 l 861 607 l 861 634 m 322 397 q 343 282 322 336 q 405 188 365 228 q 504 124 446 147 q 635 100 562 100 q 810 138 731 100 q 948 260 888 176 l 1040 194 q 965 106 1008 145 q 869 41 923 67 q 747 0 815 14 q 597 -15 680 -15 q 380 24 476 -15 q 214 130 283 62 q 109 291 146 197 q 72 496 72 385 q 90 635 72 568 q 139 759 107 701 q 217 863 171 816 q 319 943 263 910 q 444 995 376 977 q 587 1013 511 1013 q 739 994 669 1013 q 863 940 808 974 q 960 858 918 906 q 1030 753 1001 810 q 1074 632 1058 696 q 1091 501 1089 568 l 322 501 l 322 397 z "},"ℓ":{"ha":760,"x_min":28,"x_max":760,"o":"m 551 888 q 477 859 515 888 q 407 781 440 831 q 348 665 374 731 q 309 521 322 598 q 433 581 376 549 q 530 651 490 614 q 593 727 570 688 q 615 808 615 767 q 598 866 615 845 q 551 888 581 888 m 297 383 q 302 260 297 308 q 320 183 308 212 q 348 143 331 155 q 386 132 365 132 q 432 144 410 132 q 475 176 455 156 q 513 224 496 197 q 543 281 531 251 l 685 247 q 632 144 665 191 q 556 63 599 97 q 461 10 513 29 q 350 -10 408 -10 q 262 9 301 -10 q 194 70 222 28 q 150 181 165 113 q 133 347 134 249 q 91 337 113 342 q 49 327 70 332 l 28 440 q 85 452 57 446 q 140 465 113 458 q 169 605 149 536 q 218 734 189 673 q 285 848 247 796 q 369 937 324 899 q 466 995 414 974 q 575 1017 518 1017 q 657 1001 622 1017 q 715 958 692 985 q 749 894 738 931 q 760 816 760 858 q 727 686 760 747 q 633 573 694 626 q 486 476 572 520 q 297 396 401 431 l 297 383 z "},"∞":{"ha":940,"x_min":49,"x_max":888,"o":"m 746 411 q 745 461 749 440 q 730 496 740 483 q 705 516 719 510 q 673 522 690 522 q 637 514 654 522 q 604 490 620 505 q 572 455 588 475 q 540 411 556 434 q 561 367 551 388 q 584 332 572 347 q 612 308 597 317 q 646 299 627 299 q 680 306 663 299 q 710 325 697 312 q 733 360 724 339 q 746 411 742 381 m 263 299 q 299 308 282 299 q 332 332 316 317 q 364 367 349 347 q 396 410 380 388 q 375 454 385 434 q 351 490 364 474 q 324 514 339 505 q 290 522 309 522 q 256 516 273 522 q 226 496 240 510 q 203 461 213 483 q 190 411 193 440 q 191 360 186 381 q 206 325 195 339 q 231 306 216 312 q 263 299 246 299 m 697 660 q 777 642 740 660 q 839 591 813 624 q 876 512 864 558 q 881 411 888 466 q 851 310 874 356 q 794 231 828 264 q 720 180 761 198 q 635 161 678 161 q 572 171 600 161 q 523 198 544 181 q 483 238 501 215 q 452 286 466 260 q 409 238 432 260 q 360 198 386 215 q 304 171 334 181 q 238 161 274 161 q 159 180 195 161 q 97 231 122 198 q 60 310 72 264 q 56 411 49 356 q 85 512 63 466 q 142 591 108 558 q 216 642 175 624 q 300 660 257 660 q 363 651 335 660 q 413 624 391 641 q 452 584 435 607 q 483 535 469 561 q 526 584 503 561 q 575 624 549 607 q 632 651 601 641 q 697 660 662 660 z "},"∂":{"ha":756,"x_min":18,"x_max":746,"o":"m 299 123 q 364 138 331 123 q 426 186 396 153 q 482 271 456 219 q 529 399 508 324 q 519 450 526 426 q 498 494 512 475 q 463 524 484 513 q 410 535 441 535 q 330 517 365 535 q 269 466 294 499 q 227 388 243 433 q 203 288 210 342 q 219 166 194 209 q 299 123 245 123 m 254 927 q 311 964 283 948 q 369 991 339 980 q 433 1008 399 1002 q 506 1014 466 1014 q 613 988 566 1014 q 691 911 660 961 q 734 791 722 862 q 735 629 746 719 q 678 367 717 485 q 581 165 640 249 q 442 35 522 81 q 263 -10 363 -10 q 157 10 204 -10 q 77 70 109 31 q 32 163 46 108 q 26 286 18 218 q 70 437 36 367 q 156 558 105 507 q 272 639 208 610 q 408 668 337 668 q 510 646 469 668 q 575 584 551 624 q 578 607 576 596 q 581 628 579 618 q 563 816 596 754 q 465 878 531 878 q 420 872 442 878 q 379 856 399 865 q 344 841 360 848 q 318 834 328 834 q 300 840 308 834 q 283 862 291 845 l 254 927 z "},"∫":{"ha":563,"x_min":-65,"x_max":633,"o":"m 247 858 q 280 982 256 930 q 339 1068 303 1035 q 422 1118 375 1102 q 525 1135 469 1135 q 579 1130 551 1135 q 633 1112 608 1124 l 623 1040 q 619 1024 622 1031 q 610 1013 616 1017 q 593 1007 603 1009 q 565 1006 583 1006 q 498 998 525 1006 q 452 972 470 990 q 424 928 434 955 q 410 863 415 901 l 322 40 q 289 -85 313 -33 q 229 -171 265 -137 q 146 -221 193 -205 q 43 -237 99 -237 q -11 -232 18 -237 q -65 -214 -40 -227 l -55 -142 q -51 -127 -53 -133 q -42 -116 -48 -120 q -25 -110 -35 -112 q 3 -108 -15 -108 q 70 -100 43 -108 q 116 -75 98 -92 q 144 -31 134 -58 q 158 34 153 -4 l 247 858 z "},"√":{"ha":863,"x_min":28,"x_max":953,"o":"m 953 1185 l 425 0 l 286 0 l 176 448 l 87 448 q 45 463 62 448 q 32 515 28 478 l 38 567 l 282 567 q 311 558 300 567 q 326 536 323 549 l 374 310 q 382 253 379 282 q 383 194 384 224 q 399 242 390 218 q 417 290 407 265 l 794 1153 q 814 1176 800 1167 q 844 1185 827 1185 l 953 1185 z "},"∏":{"ha":974,"x_min":83,"x_max":997,"o":"m 981 865 l 862 865 l 727 -234 l 557 -234 l 691 865 l 388 865 l 253 -234 l 83 -234 l 218 865 l 100 865 l 117 1003 l 997 1003 l 981 865 z "},"∑":{"ha":878,"x_min":-35,"x_max":891,"o":"m 874 860 l 360 860 l 626 410 l 619 361 l 243 -89 l 757 -89 l 739 -233 l -35 -233 l -27 -173 q -19 -147 -26 -160 q -3 -122 -13 -133 l 435 388 l 122 892 q 111 918 113 904 q 110 944 108 932 l 117 1004 l 891 1004 l 874 860 z "},"◊":{"ha":806,"x_min":88,"x_max":737,"o":"m 599 500 l 437 848 q 423 883 429 867 q 413 915 417 899 q 402 883 408 899 q 389 848 397 867 l 229 500 l 389 152 q 402 117 397 133 q 413 85 408 101 q 423 117 417 101 q 437 152 429 133 l 599 500 m 737 500 l 472 -63 l 353 -63 l 88 500 l 353 1063 l 472 1063 l 737 500 z "},"←":{"ha":1389,"x_min":67,"x_max":1313,"o":"m 67 449 l 474 856 l 533 794 q 548 758 551 776 q 528 724 544 740 l 383 577 q 345 541 363 557 q 312 513 328 526 q 408 522 358 518 q 508 526 458 526 l 1313 526 l 1313 372 l 508 372 q 406 376 457 372 q 310 385 356 379 q 345 356 326 372 q 383 321 363 340 l 528 174 q 549 139 546 158 q 534 102 552 120 l 474 42 l 67 449 z "},"→":{"ha":1389,"x_min":76,"x_max":1322,"o":"m 1322 448 l 915 42 l 856 103 q 841 139 838 121 q 861 174 844 158 l 1006 320 q 1043 356 1026 340 q 1078 385 1061 372 q 982 376 1032 379 q 881 372 931 372 l 76 372 l 76 526 l 881 526 q 982 522 932 526 q 1078 513 1033 518 q 1006 577 1045 539 l 860 724 q 840 759 843 740 q 855 795 837 777 l 915 856 l 1322 448 z "},"↑":{"ha":1042,"x_min":113,"x_max":928,"o":"m 928 683 l 867 624 q 830 609 849 606 q 794 629 811 613 l 651 776 q 615 813 631 795 q 585 847 599 831 q 595 751 591 801 q 599 651 599 701 l 599 -157 l 443 -157 l 443 651 q 447 752 443 702 q 456 848 451 802 q 427 814 443 831 q 392 776 412 796 l 247 628 q 212 608 231 612 q 175 623 193 605 l 113 682 l 522 1090 l 928 683 z "},"↓":{"ha":1042,"x_min":113,"x_max":928,"o":"m 928 165 l 519 -242 l 113 165 l 175 224 q 211 238 193 242 q 247 218 230 235 l 391 72 q 456 0 431 33 q 447 95 451 46 q 443 196 443 145 l 443 1004 l 598 1004 l 598 196 q 594 95 598 145 q 585 -1 590 45 q 614 34 598 16 q 649 72 629 51 l 794 219 q 830 239 810 236 q 867 224 849 242 l 928 165 z "},"↗":{"ha":1042,"x_min":26,"x_max":963,"o":"m 963 926 l 963 351 l 876 352 q 840 368 851 353 q 829 406 829 383 l 829 613 q 830 665 829 641 q 834 709 831 688 q 773 635 806 673 q 704 563 740 598 l 135 -9 l 26 99 l 594 671 q 669 740 631 707 q 744 801 708 772 q 699 797 724 798 q 647 795 675 795 l 441 795 q 402 805 417 794 q 387 841 387 816 l 385 926 l 963 926 z "},"↖":{"ha":1042,"x_min":79,"x_max":1016,"o":"m 1016 99 l 906 -9 l 338 563 q 269 635 301 598 q 208 709 236 673 q 211 665 210 688 q 213 613 213 641 l 213 406 q 202 368 213 383 q 165 352 191 353 l 79 351 l 79 926 l 656 926 l 655 841 q 640 805 655 816 q 601 795 624 794 l 395 795 q 342 797 367 795 q 297 801 318 798 q 372 740 334 772 q 447 671 410 707 l 1016 99 z "},"↘":{"ha":1042,"x_min":26,"x_max":963,"o":"m 963 575 l 963 1 l 385 0 l 387 85 q 402 121 387 110 q 441 131 417 132 l 647 131 q 699 130 675 131 q 744 126 724 128 q 669 187 708 154 q 594 256 631 219 l 26 827 l 135 936 l 704 364 q 773 291 740 328 q 834 217 806 253 q 830 262 831 238 q 829 313 829 285 l 829 520 q 840 558 829 543 q 876 574 851 574 l 963 575 z "},"↙":{"ha":1042,"x_min":79,"x_max":1016,"o":"m 79 0 l 79 575 l 165 574 q 202 558 191 574 q 213 519 213 542 l 213 313 q 211 261 213 285 q 208 217 210 238 q 268 290 235 253 q 338 364 301 328 l 906 935 l 1016 827 l 447 255 q 372 186 410 219 q 297 125 334 153 q 395 131 340 131 l 601 131 q 640 120 624 131 q 655 85 655 110 l 656 -1 l 79 0 z "},"↔":{"ha":1389,"x_min":67,"x_max":1322,"o":"m 1322 448 l 915 42 l 856 103 q 841 139 838 121 q 861 174 844 158 l 1006 320 q 1043 356 1026 340 q 1078 385 1061 372 q 982 376 1032 379 q 881 372 931 372 l 326 372 q 354 348 340 361 q 383 321 368 335 l 528 174 q 549 139 546 158 q 534 102 552 120 l 474 42 l 67 449 l 474 856 l 533 794 q 548 758 551 776 q 528 724 544 740 l 383 577 q 328 526 353 547 l 881 526 q 982 522 932 526 q 1078 513 1033 518 q 1006 577 1045 539 l 860 724 q 840 759 843 740 q 855 795 837 777 l 915 856 l 1322 448 z "},"↕":{"ha":1042,"x_min":113,"x_max":928,"o":"m 520 -242 l 114 165 l 176 224 q 212 238 194 242 q 247 218 231 235 l 392 72 q 419 43 406 57 q 443 17 432 30 l 443 651 q 447 752 443 702 q 456 848 451 802 q 427 814 443 831 q 392 776 412 796 l 247 628 q 212 608 231 612 q 175 623 193 605 l 113 682 l 522 1090 l 928 683 l 867 624 q 830 609 849 606 q 794 629 811 613 l 651 776 q 615 813 631 795 q 585 847 599 831 q 595 751 592 801 q 599 651 599 701 l 599 15 q 622 42 610 28 q 650 72 635 56 l 795 219 q 830 239 811 236 q 867 224 849 242 l 928 165 l 520 -242 z "},"Ơ":{"ha":1103,"x_min":56,"x_max":1167,"o":"m 490 138 q 627 169 565 138 q 733 255 689 199 q 800 389 776 310 q 824 565 824 468 q 807 689 824 633 q 758 784 790 744 q 679 845 726 824 q 574 867 633 867 q 438 836 499 867 q 333 749 376 806 q 265 614 289 693 q 241 438 241 535 q 258 315 241 370 q 306 220 274 259 q 384 159 338 181 q 490 138 431 138 m 1165 1105 q 1166 1084 1166 1097 q 1167 1064 1167 1072 q 1154 970 1167 1014 q 1116 890 1142 926 q 1052 829 1090 855 q 963 790 1014 803 q 1009 569 1009 691 q 991 411 1009 486 q 938 271 972 335 q 856 154 904 206 q 747 65 807 102 q 617 9 687 28 q 469 -11 547 -11 q 297 23 374 -11 q 167 117 221 57 q 85 258 113 176 q 56 434 56 339 q 75 593 56 517 q 127 733 93 668 q 210 849 162 797 q 318 939 258 901 q 449 995 378 976 q 597 1015 519 1015 q 782 975 701 1015 q 916 866 863 935 q 974 897 954 875 q 994 947 994 919 q 992 965 994 957 q 986 982 990 974 q 981 1000 983 990 q 978 1022 978 1009 q 1002 1084 978 1063 q 1077 1105 1026 1105 l 1165 1105 z "},"Ư":{"ha":1132,"x_min":81,"x_max":1214,"o":"m 1212 1105 q 1213 1084 1213 1097 q 1214 1064 1214 1072 q 1195 951 1214 1003 q 1139 861 1176 899 q 1043 800 1101 822 q 910 777 986 778 l 863 401 q 816 236 852 312 q 723 106 780 160 q 591 20 667 51 q 426 -11 516 -11 q 269 20 337 -11 q 158 106 201 51 q 98 236 115 160 q 92 401 81 312 l 164 1004 l 344 1004 l 271 401 q 272 296 264 344 q 302 215 280 249 q 361 163 325 181 q 446 144 397 144 q 535 163 494 144 q 606 215 576 181 q 657 296 637 249 q 683 401 676 343 l 757 1004 l 938 1004 l 920 860 q 972 868 949 861 q 1010 887 994 875 q 1034 914 1026 899 q 1042 947 1042 929 q 1039 965 1042 957 q 1033 982 1036 974 q 1027 1000 1030 990 q 1025 1022 1025 1009 q 1049 1084 1025 1063 q 1124 1105 1072 1105 l 1212 1105 z "},"ơ":{"ha":798,"x_min":31,"x_max":859,"o":"m 320 122 q 398 146 363 122 q 457 212 433 171 q 495 308 482 253 q 508 424 508 363 q 479 551 508 510 q 390 592 449 592 q 312 568 347 592 q 253 502 277 544 q 215 406 228 460 q 202 290 202 351 q 231 162 202 203 q 320 122 260 122 m 857 821 q 859 802 858 814 q 859 783 859 790 q 848 695 859 737 q 813 621 836 654 q 752 564 789 588 q 667 528 716 540 q 676 480 673 505 q 680 425 680 454 q 650 254 680 333 q 569 116 620 174 q 450 23 518 57 q 305 -10 382 -10 q 195 9 246 -10 q 109 67 145 29 q 51 161 72 106 q 31 288 31 217 q 60 460 31 381 q 141 599 90 540 q 260 690 192 657 q 406 724 328 724 q 541 692 481 724 q 637 599 601 660 q 687 631 670 609 q 704 676 704 652 q 701 693 704 685 q 695 708 699 700 q 688 725 691 716 q 685 747 685 735 q 707 802 685 783 q 776 821 728 821 l 857 821 z "},"ư":{"ha":874,"x_min":45,"x_max":940,"o":"m 938 821 q 939 802 939 814 q 940 783 940 790 q 924 683 940 729 q 877 602 909 637 q 798 545 846 567 q 683 520 749 524 l 620 0 l 533 0 q 472 59 472 0 l 476 141 q 358 27 422 65 q 225 -10 294 -10 q 145 8 181 -10 q 87 60 110 26 q 55 145 64 94 q 53 260 45 196 l 107 713 l 278 713 l 225 260 q 232 160 216 190 q 290 130 248 130 q 347 145 318 130 q 403 189 376 160 q 453 257 430 217 q 491 347 476 297 l 535 713 l 706 713 l 692 593 q 732 604 715 596 q 761 623 749 612 q 779 648 773 634 q 785 676 785 662 q 782 693 785 685 q 776 708 779 700 q 769 725 772 716 q 766 747 766 735 q 788 802 766 783 q 857 821 810 821 l 938 821 z "},"₫":{"ha":819,"x_min":1,"x_max":818,"o":"m 14 -73 l 678 -73 l 665 -176 l 1 -176 l 14 -73 m 517 529 q 464 563 494 553 q 406 572 435 572 q 322 547 360 572 q 258 480 285 522 q 217 384 231 438 q 202 272 202 330 q 226 161 202 197 q 294 124 251 124 q 351 143 322 124 q 408 196 381 163 q 458 274 435 229 q 498 372 481 319 l 517 529 m 806 787 l 718 787 l 621 0 l 530 0 q 485 16 497 0 q 474 57 474 33 l 480 156 q 364 34 428 79 q 228 -10 300 -10 q 147 6 183 -10 q 85 55 111 22 q 46 138 60 88 q 32 256 32 188 q 59 427 32 346 q 134 570 87 508 q 244 667 181 631 q 379 703 308 703 q 465 687 426 703 q 531 641 503 670 l 550 787 l 465 787 q 418 801 431 787 q 411 846 406 815 l 418 890 l 563 890 l 581 1032 l 749 1032 l 731 890 l 818 890 l 806 787 z "},"○":{"ha":920,"x_min":83,"x_max":844,"o":"m 83 451 q 113 599 83 529 q 194 720 142 668 q 315 801 246 772 q 463 831 385 831 q 611 801 542 831 q 732 720 681 772 q 814 599 784 668 q 844 451 844 529 q 814 303 844 372 q 732 182 784 233 q 611 100 681 130 q 463 70 542 70 q 315 100 385 70 q 194 182 246 130 q 113 303 142 233 q 83 451 83 372 m 235 451 q 253 361 235 403 q 302 288 271 319 q 374 238 333 256 q 463 220 416 220 q 553 238 511 220 q 626 288 594 256 q 675 361 657 319 q 693 451 693 403 q 675 541 693 499 q 626 615 657 583 q 553 664 594 646 q 463 683 511 683 q 374 665 416 683 q 302 615 333 647 q 253 541 271 583 q 235 451 235 499 z "},"◌":{"ha":920,"x_min":81,"x_max":848,"o":"m 415 785 q 430 819 415 805 q 464 833 444 833 q 499 819 484 833 q 513 785 513 805 q 499 750 513 765 q 464 735 484 735 q 430 750 444 735 q 415 785 415 765 m 542 759 q 556 793 542 779 q 591 808 571 808 q 625 793 611 808 q 640 759 640 779 q 625 725 640 739 q 591 710 611 710 q 556 725 571 710 q 542 759 542 739 m 650 688 q 665 723 650 708 q 699 737 679 737 q 734 723 719 737 q 748 688 748 708 q 734 654 748 668 q 699 640 719 640 q 665 654 679 640 q 650 688 650 668 m 721 580 q 735 614 721 600 q 769 628 749 628 q 804 614 790 628 q 819 580 819 600 q 804 545 819 560 q 769 531 790 531 q 735 545 749 531 q 721 580 721 560 m 750 451 q 764 485 750 471 q 799 499 778 499 q 833 485 819 499 q 848 451 848 471 q 833 416 848 431 q 799 402 819 402 q 764 416 778 402 q 750 451 750 431 m 286 759 q 300 793 286 779 q 335 808 315 808 q 369 793 355 808 q 383 759 383 779 q 369 725 383 739 q 335 710 355 710 q 300 725 315 710 q 286 759 286 739 m 178 688 q 192 723 178 708 q 226 737 206 737 q 261 723 247 737 q 276 688 276 708 q 261 654 276 668 q 226 640 247 640 q 192 654 206 640 q 178 688 178 668 m 106 580 q 121 614 106 600 q 156 628 135 628 q 190 614 176 628 q 204 580 204 600 q 190 545 204 560 q 156 531 176 531 q 121 545 135 531 q 106 580 106 560 m 81 451 q 95 485 81 471 q 130 499 110 499 q 165 485 150 499 q 179 451 179 471 q 165 416 179 431 q 130 402 150 402 q 95 416 110 402 q 81 451 81 431 m 721 324 q 735 358 721 344 q 769 372 749 372 q 804 358 790 372 q 819 324 819 344 q 804 289 819 303 q 769 275 790 275 q 735 289 749 275 q 721 324 721 303 m 106 324 q 121 358 106 344 q 156 372 135 372 q 190 358 176 372 q 204 324 204 344 q 190 289 204 303 q 156 275 176 275 q 121 289 135 275 q 106 324 106 303 m 650 215 q 665 250 650 235 q 699 264 679 264 q 734 250 719 264 q 748 215 748 235 q 734 181 748 195 q 699 167 719 167 q 665 181 679 167 q 650 215 650 195 m 178 215 q 192 250 178 235 q 226 264 206 264 q 261 250 247 264 q 276 215 276 235 q 261 181 276 195 q 226 167 247 167 q 192 181 206 167 q 178 215 178 195 m 542 145 q 556 180 542 165 q 591 194 571 194 q 625 180 611 194 q 640 145 640 165 q 625 111 640 125 q 591 97 611 97 q 556 111 571 97 q 542 145 542 125 m 286 145 q 300 180 286 165 q 335 194 315 194 q 369 180 355 194 q 383 145 383 165 q 369 111 383 125 q 335 97 355 97 q 300 111 315 97 q 286 145 286 125 m 415 116 q 430 150 415 136 q 464 165 444 165 q 499 150 484 165 q 513 116 513 136 q 499 82 513 96 q 464 67 484 67 q 430 82 444 67 q 415 116 415 96 z "},"͏":{"ha":0,"x_min":0,"x_max":0,"o":""},"᷂":{"ha":0,"x_min":-128,"x_max":79,"o":"m -128 -62 q -117 -51 -128 -58 q -91 -40 -106 -45 q -60 -31 -76 -35 q -34 -27 -44 -27 q -18 -30 -25 -27 q -4 -37 -11 -33 q 12 -46 3 -41 q 33 -56 21 -51 q 66 -76 52 -64 q 79 -108 79 -89 q 71 -134 79 -123 q 52 -153 63 -145 q 26 -166 40 -161 q 1 -175 13 -171 q -18 -181 -10 -178 q -26 -186 -26 -183 q -16 -192 -26 -190 q 6 -200 -6 -195 q 29 -215 19 -206 q 39 -243 39 -225 q 26 -277 39 -266 q -3 -295 13 -289 q -32 -307 -19 -302 q -45 -323 -45 -312 q -26 -341 -45 -335 q -24 -344 -24 -341 q -25 -349 -24 -347 q -29 -352 -26 -352 q -70 -336 -55 -348 q -85 -308 -85 -325 q -74 -280 -85 -290 q -49 -264 -62 -269 q -24 -256 -35 -258 q -12 -249 -12 -253 q -19 -245 -12 -247 q -34 -241 -25 -243 q -54 -235 -43 -238 q -74 -225 -65 -231 q -90 -211 -83 -219 q -96 -190 -96 -202 q -81 -153 -96 -167 q -47 -132 -65 -140 q -12 -119 -28 -124 q 3 -109 3 -115 q -1 -103 3 -106 q -11 -101 -4 -101 q -23 -102 -19 -101 q -31 -106 -27 -104 q -39 -110 -34 -108 q -51 -110 -43 -111 q -75 -105 -61 -110 q -100 -92 -88 -99 q -120 -77 -112 -85 q -128 -62 -128 -69 z "},"Ɓ":{"ha":1065,"x_min":62,"x_max":1024,"o":"m 632 140 q 715 153 681 140 q 773 191 750 167 q 806 248 795 215 q 817 322 817 281 q 782 410 817 377 q 668 442 747 442 l 499 442 l 463 140 l 632 140 m 551 864 l 515 567 l 647 567 q 791 610 741 567 q 841 744 841 653 q 805 836 841 808 q 693 864 769 864 l 551 864 m 710 1003 q 853 987 794 1003 q 951 941 913 971 q 1007 869 989 911 q 1024 774 1024 826 q 1013 692 1024 731 q 977 620 1001 653 q 915 561 952 587 q 825 517 877 535 q 994 324 994 475 q 969 195 994 255 q 894 93 943 136 q 776 25 846 49 q 617 0 706 0 l 265 0 l 372 873 l 363 873 q 291 863 319 873 q 246 835 263 853 q 223 791 229 817 q 216 733 216 765 q 217 712 216 723 q 218 695 217 701 q 214 663 221 678 q 181 642 207 648 l 74 619 q 65 668 69 643 q 62 717 62 694 q 83 836 62 783 q 146 926 105 889 q 245 983 187 963 q 379 1003 304 1003 l 710 1003 z "},"Ƅ":{"ha":915,"x_min":58,"x_max":876,"o":"m 506 140 q 600 163 563 140 q 659 218 637 185 q 690 290 681 251 q 699 360 699 328 q 691 416 699 389 q 665 465 683 444 q 619 499 648 486 q 551 512 591 512 l 374 512 l 331 167 l 328 140 l 506 140 m 560 653 q 701 630 642 653 q 800 568 761 607 q 858 477 839 528 q 876 368 876 425 q 850 224 876 291 q 775 107 824 157 q 654 29 726 58 q 492 0 583 0 l 131 0 l 206 619 l 58 731 l 301 1003 l 433 1003 l 390 653 l 560 653 z "},"Ɔ":{"ha":858,"x_min":-12,"x_max":819,"o":"m 95 233 q 110 229 103 233 q 123 219 117 225 q 160 184 142 199 q 202 159 179 169 q 251 146 224 150 q 313 142 278 142 q 435 170 376 142 q 538 253 493 199 q 609 386 583 307 q 635 566 635 465 q 619 689 635 635 q 572 782 602 744 q 498 840 541 819 q 401 860 455 860 q 311 848 347 860 q 249 820 274 835 q 206 793 224 806 q 174 781 189 781 q 152 787 160 781 q 140 801 145 793 l 90 885 q 235 979 151 943 q 419 1015 318 1015 q 586 982 512 1015 q 712 890 660 949 q 792 750 764 831 q 819 573 819 669 q 782 340 819 447 q 677 155 744 233 q 514 33 609 77 q 306 -11 419 -11 q 112 29 190 -11 q -12 144 34 69 l 68 222 q 95 233 81 233 z "},"Ƈ":{"ha":869,"x_min":56,"x_max":1132,"o":"m 801 144 q 648 29 736 69 q 445 -11 560 -11 q 280 22 352 -11 q 158 113 208 55 q 82 251 108 172 q 56 426 56 331 q 75 590 56 513 q 128 733 94 667 q 210 850 163 798 q 317 939 258 902 q 444 995 376 976 q 585 1015 512 1015 q 675 1006 631 1015 q 758 978 718 997 q 773 1072 760 1026 q 813 1152 786 1117 q 884 1209 840 1188 q 994 1231 928 1231 q 1036 1229 1017 1231 q 1070 1224 1054 1227 q 1101 1215 1086 1220 q 1132 1203 1116 1210 l 1097 1110 q 1086 1091 1092 1098 q 1072 1081 1079 1084 q 1056 1079 1064 1078 q 1040 1081 1048 1079 q 995 1088 1021 1088 q 930 1054 953 1088 q 899 956 906 1020 l 890 877 l 828 802 q 811 788 821 794 q 788 781 802 781 q 759 794 773 781 q 724 821 745 806 q 669 849 703 836 q 581 861 635 861 q 446 832 508 861 q 338 747 384 802 q 266 615 292 692 q 240 441 240 538 q 258 315 240 371 q 307 221 276 260 q 382 162 339 183 q 476 142 425 142 q 549 148 518 142 q 604 165 581 155 q 644 187 628 176 q 673 209 660 199 q 695 226 685 219 q 715 233 705 233 q 729 229 724 233 q 738 222 735 226 l 801 144 z "},"Ɗ":{"ha":1194,"x_min":62,"x_max":1156,"o":"m 637 144 q 774 173 713 144 q 879 257 835 202 q 947 390 923 312 q 971 565 971 467 q 954 688 971 633 q 906 781 938 742 q 828 840 874 819 q 724 860 783 860 l 551 860 l 464 144 l 637 144 m 742 1003 q 915 971 838 1003 q 1045 881 992 939 q 1127 744 1099 824 q 1156 570 1156 665 q 1116 340 1156 445 q 1004 160 1076 235 q 834 42 932 84 q 619 0 735 0 l 265 0 l 372 873 l 363 873 q 291 863 319 873 q 246 835 263 853 q 223 791 229 817 q 216 733 216 765 q 217 712 216 723 q 218 695 217 701 q 214 663 221 678 q 181 642 207 648 l 74 619 q 65 668 69 643 q 62 717 62 694 q 83 836 62 783 q 146 926 105 889 q 245 983 187 963 q 379 1003 304 1003 l 742 1003 z "},"Ƌ":{"ha":816,"x_min":27,"x_max":782,"o":"m 496 140 l 533 446 l 388 446 q 247 401 290 446 q 204 267 204 356 q 211 218 204 241 q 236 177 219 194 q 282 150 253 160 q 351 140 310 140 l 496 140 m 782 1003 l 659 0 l 333 0 q 202 19 259 0 q 106 74 145 39 q 47 160 67 110 q 27 271 27 210 q 48 394 27 337 q 115 495 69 452 q 233 562 161 538 q 405 586 304 586 l 551 586 l 585 864 l 132 864 l 149 1003 l 782 1003 z "},"Ǝ":{"ha":742,"x_min":-2,"x_max":707,"o":"m 584 0 l -2 0 l 16 144 l 420 144 l 456 436 l 139 436 l 156 575 l 473 575 l 508 860 l 103 860 l 122 1003 l 707 1003 l 584 0 z "},"Ə":{"ha":949,"x_min":45,"x_max":910,"o":"m 221 406 q 223 298 213 347 q 258 213 233 249 q 323 158 283 178 q 417 138 363 138 q 521 157 474 138 q 606 210 569 176 q 668 295 642 245 q 708 406 694 344 l 221 406 m 110 856 q 206 933 156 901 q 307 983 256 964 q 410 1010 358 1001 q 510 1018 462 1018 q 670 988 597 1018 q 796 901 743 958 q 880 760 849 844 q 910 569 910 676 q 893 412 910 487 q 845 273 876 338 q 768 156 813 208 q 666 66 723 103 q 542 9 610 29 q 399 -11 475 -11 q 253 15 319 -11 q 142 90 188 41 q 70 211 95 140 q 45 372 45 282 q 50 455 45 424 q 64 503 55 486 q 86 524 74 519 q 116 529 99 529 l 723 529 q 724 545 724 537 q 724 562 724 553 q 659 785 724 710 q 472 861 595 861 q 377 847 419 861 q 302 815 335 832 q 244 783 269 797 q 197 768 218 768 q 157 789 169 768 l 110 856 z "},"Ɛ":{"ha":772,"x_min":39,"x_max":784,"o":"m 713 150 q 626 74 672 104 q 533 24 581 43 q 435 -2 485 6 q 335 -10 385 -10 q 226 8 279 -10 q 131 59 173 25 q 64 144 90 94 q 39 261 39 194 q 54 354 39 310 q 95 434 69 398 q 158 498 122 470 q 238 544 195 526 q 179 577 203 558 q 140 619 155 596 q 118 667 125 642 q 112 719 112 692 q 139 831 112 777 q 215 925 165 884 q 336 991 265 966 q 497 1015 408 1015 q 590 1007 547 1015 q 668 985 633 999 q 732 949 703 970 q 784 903 760 928 l 735 833 q 708 808 720 813 q 686 803 696 803 q 657 813 672 803 q 619 835 642 823 q 562 858 597 848 q 474 868 527 868 q 395 856 428 868 q 342 822 363 843 q 311 774 321 801 q 301 717 301 747 q 341 631 301 660 q 456 601 380 601 l 609 601 l 593 472 l 424 472 q 336 456 374 472 q 275 415 299 440 q 238 357 250 389 q 226 292 226 324 q 237 233 226 261 q 270 185 248 206 q 324 152 292 164 q 401 140 357 140 q 474 150 443 140 q 529 172 506 159 q 569 200 552 185 q 601 226 587 215 q 617 235 609 231 q 633 239 625 239 q 656 228 648 239 l 713 150 z "},"Ƒ":{"ha":738,"x_min":-177,"x_max":762,"o":"m 340 860 l 302 556 l 643 556 l 625 413 l 285 413 l 243 75 l 244 75 l 238 24 q 210 -86 230 -36 q 156 -173 190 -137 q 76 -230 123 -210 q -33 -251 29 -251 q -77 -249 -58 -251 q -114 -243 -97 -247 q -146 -234 -131 -240 q -177 -223 -161 -229 l -142 -131 q -130 -111 -137 -118 q -116 -101 -124 -104 q -101 -99 -109 -99 q -85 -101 -92 -99 q -64 -106 -76 -104 q -40 -108 -52 -108 q 26 -74 3 -108 q 56 24 49 -41 l 60 53 l 176 1003 l 762 1003 l 744 860 l 340 860 z "},"Ɠ":{"ha":946,"x_min":56,"x_max":1170,"o":"m 928 884 l 867 803 q 832 779 852 784 q 792 788 812 774 q 751 814 772 801 q 707 838 731 827 q 653 854 683 848 q 582 860 622 860 q 444 831 507 860 q 336 746 381 801 q 266 613 291 691 q 241 440 241 535 q 259 311 241 368 q 311 215 278 254 q 392 154 344 175 q 497 133 439 133 q 595 144 552 133 q 678 174 638 155 l 701 365 l 590 365 q 564 375 572 365 q 557 399 555 385 l 569 501 l 881 501 l 831 97 q 667 15 755 42 q 465 -11 579 -11 q 298 22 374 -11 q 169 115 222 56 q 86 256 115 174 q 56 435 56 338 q 97 668 56 562 q 210 851 137 774 q 384 972 283 928 q 607 1015 485 1015 q 707 1006 661 1015 q 792 981 753 997 q 809 1073 796 1028 q 851 1153 823 1118 q 924 1209 879 1188 q 1033 1231 968 1231 q 1074 1229 1056 1231 q 1109 1224 1092 1227 q 1140 1215 1125 1220 q 1170 1203 1154 1210 l 1135 1110 q 1124 1091 1131 1098 q 1110 1081 1117 1084 q 1094 1079 1103 1078 q 1078 1081 1086 1079 q 1033 1088 1059 1088 q 968 1054 991 1088 q 938 956 945 1020 l 928 884 z "},"Ɣ":{"ha":903,"x_min":-1,"x_max":994,"o":"m 317 153 q 306 144 312 148 q 293 135 300 140 l 542 135 q 520 160 528 145 l 431 326 q 413 293 423 309 q 389 263 402 277 l 317 153 m 556 426 l 795 0 l -1 0 l 348 435 l 46 1004 l 221 1004 q 247 998 239 1004 q 263 978 255 992 l 478 551 l 780 978 q 799 997 790 990 q 821 1003 809 1003 l 994 1003 l 556 426 z "},"Ɩ":{"ha":442,"x_min":69,"x_max":386,"o":"m 172 1004 l 353 1004 l 258 226 q 266 151 252 174 q 322 127 280 127 l 386 127 l 378 69 q 363 33 376 47 q 330 9 349 18 q 285 -4 310 0 q 233 -8 260 -8 q 155 9 188 -8 q 103 56 123 26 q 76 127 83 86 q 76 217 69 168 l 172 1004 z "},"Ƙ":{"ha":921,"x_min":53,"x_max":981,"o":"m 303 581 l 343 581 q 386 588 367 581 q 420 617 404 594 l 589 870 q 646 937 616 910 q 710 981 676 965 q 781 1006 744 998 q 862 1013 819 1013 q 902 1011 885 1013 q 934 1007 920 1010 q 960 999 949 1003 q 981 991 972 995 l 953 900 q 942 881 949 888 q 928 871 935 874 q 914 868 922 868 q 899 869 906 868 q 879 873 892 871 q 854 875 866 875 q 793 859 821 875 q 745 814 765 842 l 602 597 q 565 558 585 573 q 524 533 546 542 q 563 509 547 524 q 593 469 579 494 l 846 0 l 686 0 q 641 9 655 0 q 617 35 626 19 l 414 408 q 389 436 404 427 q 343 444 373 444 l 287 444 l 233 0 l 53 0 l 176 1004 l 356 1004 l 303 581 z "},"Ɯ":{"ha":1407,"x_min":81,"x_max":1373,"o":"m 1373 1003 l 1250 3 l 1156 3 q 1105 45 1111 3 l 1108 176 q 988 33 1055 77 q 848 -11 921 -11 q 771 5 805 -11 q 713 48 738 20 q 670 113 688 75 q 644 195 653 151 q 582 105 617 144 q 510 41 548 67 q 430 2 472 15 q 348 -11 389 -11 q 216 16 269 -11 q 131 97 162 44 q 90 227 99 149 q 92 404 81 304 l 167 1003 l 347 1003 l 273 404 q 271 276 265 328 q 294 190 277 223 q 339 142 311 157 q 401 127 366 127 q 474 150 440 127 q 536 214 509 173 q 583 313 564 256 q 609 441 601 371 l 679 1003 l 860 1003 l 790 441 q 785 300 783 360 q 799 202 786 241 q 836 145 811 164 q 902 127 861 127 q 962 145 932 127 q 1020 199 992 163 q 1073 293 1048 236 q 1120 429 1099 350 l 1192 1003 l 1373 1003 z "},"Ɲ":{"ha":996,"x_min":-179,"x_max":962,"o":"m 962 1003 l 839 0 l 746 0 q 711 7 725 0 q 687 31 698 14 l 295 708 q 292 667 294 688 q 289 629 291 647 l 218 50 l 219 50 l 212 0 q 187 -110 205 -60 q 138 -197 169 -160 q 63 -254 108 -233 q -42 -274 18 -274 q -83 -273 -65 -274 q -118 -267 -101 -271 q -149 -259 -134 -264 q -179 -247 -164 -253 l -144 -155 q -133 -135 -140 -142 q -119 -126 -126 -128 q -103 -123 -112 -123 q -87 -125 -95 -124 q -67 -130 -78 -128 q -42 -131 -55 -131 q 23 -98 0 -131 q 53 0 46 -65 l 60 50 l 177 1003 l 271 1003 q 291 1002 283 1003 q 305 998 299 1001 q 316 989 311 995 q 328 974 322 983 l 722 294 q 724 339 722 317 q 728 380 725 360 l 803 1003 l 962 1003 z "}}}
